<?xml version="1.0" encoding="UTF-8"?>
<!DOCTYPE svg PUBLIC "-//W3C//DTD SVG 1.1//EN" "http://www.w3.org/Graphics/SVG/1.1/DTD/svg11.dtd">
<svg version="1.1" xmlns="http://www.w3.org/2000/svg" xmlns:xlink="http://www.w3.org/1999/xlink" x="0" y="0" width="576" height="400" viewBox="0, 0, 576, 400">
  <g id="Layer_1">
    <g>
      <path d="M62.5,27.5 L513.5,27.5 C529.516,27.5 542.5,42.78 542.5,61.629 L542.5,339.371 C542.5,358.22 529.516,373.5 513.5,373.5 L62.5,373.5 C46.484,373.5 33.5,358.22 33.5,339.371 L33.5,61.629 C33.5,42.78 46.484,27.5 62.5,27.5 z" fill="#FFFFFF"/>
      <path d="M62.5,27.5 L513.5,27.5 C529.516,27.5 542.5,42.78 542.5,61.629 L542.5,339.371 C542.5,358.22 529.516,373.5 513.5,373.5 L62.5,373.5 C46.484,373.5 33.5,358.22 33.5,339.371 L33.5,61.629 C33.5,42.78 46.484,27.5 62.5,27.5 z" fill-opacity="0" stroke="#000000" stroke-width="4"/>
    </g>
    <g id="bakery_dining_black_24dp"/>
    <g id="fastfood_black_24dp"/>
    <g>
      <path d="M62.5,107.5 L225.5,107.5 L225.5,307.5 L62.5,307.5 L62.5,107.5 z" fill="#FFFFFF"/>
      <path d="M62.5,107.5 L225.5,107.5 L225.5,307.5 L62.5,307.5 L62.5,107.5 z" fill-opacity="0" stroke="#000000" stroke-width="4"/>
    </g>
    <path d="M75.005,226 C75.005,227.1 75.905,228 77.005,228 L93.005,228 C94.105,228 95.005,227.1 95.005,226 L95.005,223 L75.005,223 L75.005,226 z M77.005,225 L93.005,225 L93.005,226 L77.005,226 L77.005,225 z M91.665,218.5 C93.375,218.5 93.385,219.19 94.995,219.52 L95.005,221.5 C93.085,221.48 92.875,220.5 91.685,220.5 C90.445,220.5 90.305,221.5 88.355,221.5 C86.445,221.5 86.215,220.5 85.025,220.5 C83.785,220.5 83.645,221.5 81.695,221.5 C79.785,221.5 79.555,220.5 78.365,220.5 C77.185,220.5 76.915,221.5 75.015,221.5 L75.015,219.5 C76.255,219.5 76.395,218.5 78.345,218.5 C80.255,218.5 80.485,219.5 81.675,219.5 C82.915,219.5 83.055,218.5 85.005,218.5 C86.915,218.5 87.145,219.5 88.335,219.5 C89.575,219.5 89.715,218.5 91.665,218.5 z M77.185,215 L92.845,215 C92.715,214.63 92.495,214.3 92.195,213.99 C90.935,212.73 88.315,212 85.005,212 C81.615,212 78.015,212.81 77.185,215 z M95.005,216 L95.005,216 L95.005,217 L75.005,217 L75.005,216 C75.005,212 79.295,210 85.005,210 C90.725,210 95.025,212 95.005,216 z" fill="#000000"/>
    <g>
      <g>
        <path d="M287.635,271.25 C259.054,271.25 235.885,248.081 235.885,219.5 C235.885,190.919 259.054,167.75 287.635,167.75 C316.216,167.75 339.385,190.919 339.385,219.5 C339.385,248.081 316.216,271.25 287.635,271.25 z" fill="#FFFFFF"/>
        <path d="M287.635,271.25 C259.054,271.25 235.885,248.081 235.885,219.5 C235.885,190.919 259.054,167.75 287.635,167.75 C316.216,167.75 339.385,190.919 339.385,219.5 C339.385,248.081 316.216,271.25 287.635,271.25 z" fill-opacity="0" stroke="#000000" stroke-width="4"/>
      </g>
      <path d="M286.885,229.961 C291.341,229.961 294.938,226.364 294.938,221.908 L294.938,205.803 C294.938,201.347 291.341,197.75 286.885,197.75 C282.429,197.75 278.832,201.347 278.832,205.803 L278.832,221.908 C278.832,226.364 282.429,229.961 286.885,229.961 z M300.306,221.908 L305.674,221.908 C305.674,231.383 298.669,239.167 289.569,240.483 L289.569,248.75 L284.201,248.75 L284.201,240.483 C275.101,239.167 268.096,231.383 268.096,221.908 L273.464,221.908 C273.464,229.316 279.477,235.329 286.885,235.329 C294.293,235.329 300.306,229.316 300.306,221.908 z" fill="#000000"/>
    </g>
    <path d="M93.5,123.94 C93.63,123.62 93.6,123.71 93.65,123.55 C93.95,122.34 93.31,121.08 92.15,120.62 L90.14,119.82 C89.68,119.64 89.19,119.61 88.73,119.7 C88.62,119.37 88.44,119.07 88.21,118.81 C87.73,118.29 87.06,118 86.36,118 L83.65,118 C82.94,118 82.27,118.29 81.8,118.81 C81.56,119.07 81.38,119.37 81.27,119.69 C80.81,119.6 80.32,119.63 79.86,119.81 L77.85,120.61 C76.69,121.07 76.05,122.33 76.35,123.54 L76.5,123.92 C74.1,128.55 74,128.55 74,129.38 C74,130.29 74.46,131.12 75.24,131.6 C76.66,132.48 77.73,131.74 79.24,130.99 L90.77,130.99 C92.29,131.75 92.63,132 93.4,132 C94.4,132 96.01,131.23 96.01,129.39 C96,128.54 95.88,128.51 93.5,123.94 z M93.12,129.93 L91.44,129.09 L92.52,126.39 L93.93,129.1 C94.21,129.63 93.64,130.19 93.12,129.93 z M88.09,128.99 L88.71,122.09 C88.74,121.76 89.08,121.55 89.39,121.67 L91.4,122.47 C91.62,122.56 91.74,122.78 91.71,123.01 L89.31,128.99 L88.09,128.99 z M80.68,128.99 L78.28,123.01 C78.25,122.78 78.37,122.56 78.59,122.47 L80.6,121.67 C80.91,121.55 81.25,121.75 81.28,122.09 L81.9,128.99 L80.68,128.99 z M76.07,129.1 L77.48,126.38 L78.56,129.09 L76.88,129.93 C76.36,130.19 75.79,129.63 76.07,129.1 z M83.15,120.54 C83.12,120.23 83.38,120 83.65,120 L86.36,120 C86.63,120 86.89,120.23 86.86,120.54 L86.09,128.99 L83.92,128.99 L83.15,120.54 z" fill="#000000"/>
    <path d="M74,194.98 C74,195.54 74.45,195.99 75.01,195.99 L88,195.99 C88.56,195.99 89.01,195.54 89.01,194.98 L89.01,194 L74,194 L74,194.98 z M81.5,181.99 C77.75,181.99 74,184 74,188 L89,188 C89,184 85.25,181.99 81.5,181.99 z M76.62,186 C77.73,184.45 80.09,183.99 81.5,183.99 C82.91,183.99 85.27,184.45 86.38,186 L76.62,186 z M74,190 L89,190 L89,192 L74,192 z M91,178 L91,174 L89,174 L89,178 L84,178 L84.23,180 L93.79,180 L92.39,194 L91,194 L91,196 L92.72,196 C93.56,196 94.25,195.35 94.35,194.53 L96,178 L91,178 z" fill="#000000"/>
    <path d="M85,242.5 C81.43,242.5 78.23,244.04 76.01,246.5 L85,262.5 L93.99,246.5 C91.78,244.05 88.57,242.5 85,242.5 z M85,258.42 L78.51,246.86 C80.32,245.35 82.62,244.5 85,244.5 C87.38,244.5 89.68,245.35 91.49,246.86 L85,258.42 z M82,246 C81.17,246 80.5,246.67 80.5,247.5 C80.5,248.33 81.17,249 82,249 C82.83,249 83.5,248.33 83.5,247.5 C83.5,246.67 82.82,246 82,246 z M83.5,253.5 C83.5,254.33 84.17,255 85,255 C85.82,255 86.5,254.33 86.5,253.5 C86.5,252.67 85.82,252 85,252 C84.18,252 83.5,252.67 83.5,253.5 z" fill="#000000"/>
    <path d="M92.66,155 C92,156.92 90.42,158.54 88.26,159.39 L87,159.89 L87,161 L83,161 L83,159.89 L81.73,159.39 C79.57,158.54 77.99,156.92 77.33,155 L92.66,155 M95,143 L77,144.99 L77,153 L75,153 C75,156.69 77.47,159.86 81,161.25 L81,163 L89,163 L89,161.25 C92.53,159.86 95,156.69 95,153 L83.5,153 L83.5,149 L95,149 L95,147.5 L83.5,147.5 L83.5,145.78 L95,144.51 L95,143 L95,143 z M81,147.5 L81,146.06 L82,145.95 L82,147.5 L81,147.5 L81,147.5 z M78.5,147.5 L78.5,146.34 L79.5,146.23 L79.5,147.5 L78.5,147.5 L78.5,147.5 z M81,153 L81,149 L82,149 L82,153 L81,153 L81,153 z M78.5,153 L78.5,149 L79.5,149 L79.5,153 L78.5,153 L78.5,153 z" fill="#000000"/>
    <text transform="matrix(1, 0, 0, 1, 292.75, 79)">
      <tspan x="-234.364" y="9" font-family="Alata-Regular" font-size="34" kerning="1" fill="#000000">What Would You Like To Eat?</tspan>
    </text>
    <path d="M91.38,281.24 C90.79,278.24 88.14,276 85,276 C81.86,276 79.21,278.24 78.62,281.24 C77.08,281.81 76,283.29 76,285 C76,287.21 77.79,289 80,289 C80.12,289 80.23,288.98 80.34,288.98 L85.07,298 L89.68,288.97 C89.79,288.98 89.89,289 90,289 C92.21,289 94,287.21 94,285 C94,283.29 92.92,281.81 91.38,281.24 z M85.05,293.63 L82.32,288.42 C83.15,288.79 84.06,289 85,289 C85.95,289 86.88,288.79 87.72,288.4 L85.05,293.63 z M90,287 C89.48,287 88.99,286.8 88.61,286.44 L88.05,285.9 L87.39,286.32 C86.68,286.76 85.86,287 85,287 C84.14,287 83.32,286.76 82.61,286.31 L81.95,285.9 L81.39,286.44 C81.01,286.79 80.52,287 80,287 C78.9,287 78,286.11 78,285 C78,284.02 78.72,283.18 79.68,283.03 L80.45,282.9 L80.51,282.12 C80.71,279.8 82.66,278 85,278 C87.34,278 89.29,279.8 89.48,282.12 L89.54,282.9 L90.31,283.02 C91.28,283.18 92,284.01 92,285 C92,286.1 91.1,287 90,287 z" fill="#000000"/>
    <text transform="matrix(1, 0, 0, 1, 173, 125)">
      <tspan x="-42.288" y="5" font-family="Alata-Regular" font-size="16" fill="#000000">Breakfast $</tspan>
    </text>
    <text transform="matrix(1, 0, 0, 1, 173, 154)">
      <tspan x="-32.8" y="5" font-family="Alata-Regular" font-size="16" fill="#000000">Lunch 1 $</tspan>
    </text>
    <path d="M745,-73 L745,-73 L745,-72 L745,-72 L745,-73 z" fill="#000000"/>
    <text transform="matrix(1, 0, 0, 1, 173, 185)">
      <tspan x="-45.184" y="5" font-family="Alata-Regular" font-size="16" fill="#000000">Lunch 2 $$$</tspan>
    </text>
    <text transform="matrix(1, 0, 0, 1, 173, 223)">
      <tspan x="-40.024" y="5" font-family="Alata-Regular" font-size="16" fill="#000000">Lunch 3 $$</tspan>
    </text>
    <text transform="matrix(1, 0, 0, 1, 173, 252.5)">
      <tspan x="-28.504" y="5" font-family="Alata-Regular" font-size="16" fill="#000000">Snack $</tspan>
    </text>
    <text transform="matrix(1, 0, 0, 1, 173, 287)">
      <tspan x="-35.384" y="5" font-family="Alata-Regular" font-size="16" fill="#000000">Desert $$</tspan>
    </text>
    <text transform="matrix(1, 0, 0, 1, 292.336, 353.5)">
      <tspan x="-208.336" y="6" font-family="Alata-Regular" font-size="16" fill="#000000">Sorry no Breakfast past 11am, sorry for the inconvienience</tspan>
    </text>
    <text transform="matrix(1, 0, 0, 1, 398.768, 137.5)">
      <tspan x="-41.768" y="6" font-family="Alata-Regular" font-size="16" fill="#000000">Your Order:</tspan>
    </text>
    <g>
      <path d="M352.5,155.5 L505.5,155.5" fill-opacity="0" stroke="#000000" stroke-width="1"/>
      <path d="M505.5,158.5 L513.5,155.5 L505.5,152.5 z" fill="#000000" fill-opacity="1" stroke="#000000" stroke-width="1" stroke-opacity="1"/>
    </g>
    <g>
      <path d="M429.518,183.94 C429.648,183.62 429.618,183.71 429.668,183.55 C429.968,182.34 429.328,181.08 428.168,180.62 L426.158,179.82 C425.698,179.64 425.208,179.61 424.748,179.7 C424.638,179.37 424.458,179.07 424.228,178.81 C423.748,178.29 423.078,178 422.378,178 L419.668,178 C418.958,178 418.288,178.29 417.818,178.81 C417.578,179.07 417.398,179.37 417.288,179.69 C416.828,179.6 416.338,179.63 415.878,179.81 L413.868,180.61 C412.708,181.07 412.068,182.33 412.368,183.54 L412.518,183.92 C410.118,188.55 410.018,188.55 410.018,189.38 C410.018,190.29 410.478,191.12 411.258,191.6 C412.678,192.48 413.748,191.74 415.258,190.99 L426.788,190.99 C428.308,191.75 428.648,192 429.418,192 C430.418,192 432.028,191.23 432.028,189.39 C432.018,188.54 431.898,188.51 429.518,183.94 z M429.138,189.93 L427.458,189.09 L428.538,186.39 L429.948,189.1 C430.228,189.63 429.658,190.19 429.138,189.93 z M424.108,188.99 L424.728,182.09 C424.758,181.76 425.098,181.55 425.408,181.67 L427.418,182.47 C427.638,182.56 427.758,182.78 427.728,183.01 L425.328,188.99 L424.108,188.99 z M416.698,188.99 L414.298,183.01 C414.268,182.78 414.388,182.56 414.608,182.47 L416.618,181.67 C416.928,181.55 417.268,181.75 417.298,182.09 L417.918,188.99 L416.698,188.99 z M412.088,189.1 L413.498,186.38 L414.578,189.09 L412.898,189.93 C412.378,190.19 411.808,189.63 412.088,189.1 z M419.168,180.54 C419.138,180.23 419.398,180 419.668,180 L422.378,180 C422.648,180 422.908,180.23 422.878,180.54 L422.108,188.99 L419.938,188.99 L419.168,180.54 z" fill="#000000"/>
      <text transform="matrix(1, 0, 0, 1, 392.196, 185)">
        <tspan x="-5.168" y="6" font-family="Alata-Regular" font-size="16" fill="#000000">2</tspan>
      </text>
      <text transform="matrix(1, 0, 0, 1, 462.332, 185)">
        <tspan x="-16.64" y="6" font-family="Alata-Regular" font-size="16" fill="#000000">- $$</tspan>
      </text>
    </g>
    <g>
      <path d="M408.972,226.98 C408.972,227.54 409.422,227.99 409.982,227.99 L422.972,227.99 C423.532,227.99 423.982,227.54 423.982,226.98 L423.982,226 L408.972,226 L408.972,226.98 z M416.472,213.99 C412.722,213.99 408.972,216 408.972,220 L423.972,220 C423.972,216 420.222,213.99 416.472,213.99 z M411.592,218 C412.702,216.45 415.062,215.99 416.472,215.99 C417.882,215.99 420.242,216.45 421.352,218 L411.592,218 z M408.972,222 L423.972,222 L423.972,224 L408.972,224 z M425.972,210 L425.972,206 L423.972,206 L423.972,210 L418.972,210 L419.202,212 L428.762,212 L427.362,226 L425.972,226 L425.972,228 L427.692,228 C428.532,228 429.222,227.35 429.322,226.53 L430.972,210 L425.972,210 z" fill="#000000"/>
      <text transform="matrix(1, 0, 0, 1, 389.988, 220)">
        <tspan x="-2.96" y="6" font-family="Alata-Regular" font-size="16" fill="#000000">1</tspan>
      </text>
      <text transform="matrix(1, 0, 0, 1, 462.332, 220)">
        <tspan x="-16.64" y="6" font-family="Alata-Regular" font-size="16" fill="#000000">- $$</tspan>
      </text>
    </g>
    <g>
      <path d="M357.5,252.5 L510.5,252.5" fill-opacity="0" stroke="#000000" stroke-width="1"/>
      <path d="M510.5,255.5 L518.5,252.5 L510.5,249.5 z" fill="#000000" fill-opacity="1" stroke="#000000" stroke-width="1" stroke-opacity="1"/>
    </g>
    <text transform="matrix(1, 0, 0, 1, 438, 288)">
      <tspan x="-79.95" y="7" font-family="Alata-Regular" font-size="30" fill="#000000">Total: $$$$</tspan>
    </text>
  </g>
</svg>
