<?xml version="1.0" encoding="UTF-8"?>
<!DOCTYPE svg PUBLIC "-//W3C//DTD SVG 1.1//EN" "http://www.w3.org/Graphics/SVG/1.1/DTD/svg11.dtd">
<svg version="1.1" xmlns="http://www.w3.org/2000/svg" xmlns:xlink="http://www.w3.org/1999/xlink" x="0" y="0" width="432" height="216" viewBox="0, 0, 432, 216">
  <g id="Layer_1">
    <g>
      <path d="M413.641,64.581 C412.634,64.581 411.813,63.759 411.813,62.751 C411.813,61.743 412.634,60.922 413.641,60.922 C414.649,60.922 415.471,61.743 415.471,62.751 C415.471,63.759 414.649,64.581 413.641,64.581 M408.575,164.205 C408.053,163.338 407.462,162.357 405.167,162.357 C400.985,162.357 398.889,161.315 397.039,160.397 C395.524,159.644 394.09,158.933 391.852,158.933 L235.146,158.933 L235.024,159.249 C235.024,159.249 233.169,164.089 232.328,166.3 C230.361,163.323 223.092,153.729 211.175,153.729 C205.136,153.729 200.046,156.445 197.622,160.464 C197.813,159.339 198.039,158.202 198.272,157.083 C202.316,153.363 206.543,151.548 211.175,151.548 C220.696,151.548 227.469,157.018 231.473,161.607 L231.69,161.855 L233.111,158.148 C233.433,157.313 234.251,156.752 235.146,156.752 L391.852,156.752 C394.604,156.752 396.412,157.65 398.009,158.443 C399.803,159.334 401.498,160.176 405.168,160.176 C407.854,160.176 409.12,161.697 410.237,163.038 C411.068,164.036 411.802,164.918 412.939,164.918 C413.003,164.918 413.072,164.91 413.139,164.904 L413.139,166.255 C409.756,166.167 409.156,165.171 408.575,164.205 M214.66,160.406 C211.44,158.317 207.546,158.788 205.255,160.194 C205.739,158.796 206.188,157.302 206.307,155.384 C207.82,154.958 209.453,154.714 211.175,154.714 C213.031,154.714 214.758,154.975 216.377,155.395 C215.073,156.62 214.684,158.456 214.66,160.406 M206.118,163.292 C206.044,165.218 206.753,166.391 207.143,166.884 C207.066,167.43 206.609,168.086 205.698,168.086 C204.84,168.086 203.93,167.395 203.93,166.113 C203.93,165.064 204.683,163.974 206.118,163.292 M214.66,160.883 C214.675,161.826 214.763,162.786 214.864,163.709 C213.715,162.4 211.878,161.614 209.579,161.614 C207.123,161.614 205.353,162.345 204.254,163.374 C204.461,162.484 204.741,161.659 205.037,160.818 C207.165,159.225 211.322,158.57 214.66,160.883 M206.588,174.545 C200.414,174.545 197.082,170.048 197.082,165.817 C197.082,161.259 200.408,157.432 205.288,155.705 C205.12,157.542 204.634,158.999 204.142,160.391 C203.553,162.057 202.945,163.779 202.945,166.113 C202.945,167.965 204.345,169.072 205.698,169.072 C207.227,169.072 208.142,167.875 208.142,166.718 L208.142,166.527 L208.013,166.385 C207.743,166.092 206.921,165.002 207.132,162.915 C207.839,162.715 208.655,162.6 209.579,162.6 C212.367,162.6 215.179,164.032 215.179,167.232 C215.179,170.767 212.923,174.545 206.588,174.545 M199.913,147.74 C199.913,146.58 199.817,145.719 199.67,145.062 C202.937,142.912 207.949,140.493 213.984,140.493 C217.924,140.493 222.992,141.085 224.767,143.908 L225.676,145.338 C226.155,146.093 226.992,146.533 227.859,146.533 C228.096,146.532 228.336,146.499 228.571,146.431 C229.665,146.113 230.429,145.095 230.429,143.956 L230.429,132.638 C230.429,131.217 229.273,130.06 227.852,130.06 L223.262,130.06 L223.262,128.3 C225.391,126.863 227.464,125.441 229.755,123.867 C238.444,117.899 247.428,111.728 256.91,107.334 L354.884,107.442 C355.192,107.501 355.506,107.501 355.788,107.447 L397.394,107.494 L397.633,107.5 C397.943,107.585 398.147,107.615 398.363,107.644 C398.422,107.652 398.493,107.661 398.599,107.68 L398.65,107.691 C398.748,107.711 398.846,107.729 398.924,107.742 C399.646,107.855 400.355,107.912 401.032,107.912 C402.192,107.912 403.115,108.154 403.857,108.349 C404.507,108.519 405.12,108.679 405.8,108.679 C406.183,108.679 406.554,108.626 406.901,108.522 L407.03,108.484 C407.678,108.289 408.215,107.856 408.542,107.263 L408.58,107.195 C410.087,108.109 411.618,108.087 413.139,107.136 L413.139,164.506 C412.066,164.609 411.383,163.795 410.542,162.784 C409.427,161.445 408.04,159.779 405.168,159.779 C401.591,159.779 399.937,158.958 398.184,158.087 C396.549,157.275 394.697,156.355 391.852,156.355 L235.146,156.355 C234.088,156.355 233.122,157.018 232.741,158.005 L231.555,161.099 C227.47,156.501 220.675,151.151 211.175,151.151 C206.594,151.151 202.408,152.88 198.41,156.421 C198.516,155.919 198.624,155.421 198.729,154.932 C199.364,151.99 199.913,149.449 199.913,147.74 M198.557,142.978 C199.416,141.871 204.834,137.915 213.984,137.915 C220.658,137.915 225.001,139.439 226.943,142.526 L227.852,143.956 L227.852,132.638 L220.684,132.638 L220.684,126.927 C223.273,125.191 225.805,123.454 228.296,121.742 C237.562,115.377 246.567,109.213 256.347,104.756 L355.352,104.869 L355.359,104.909 C355.417,104.898 355.474,104.88 355.532,104.869 L397.418,104.917 C397.418,104.917 398.029,104.928 398.085,104.946 C398.584,105.104 398.576,105.057 399.057,105.144 C399.147,105.16 399.235,105.181 399.326,105.195 C399.927,105.29 400.504,105.334 401.032,105.334 C402.525,105.334 403.672,105.635 404.51,105.855 C405.034,105.993 405.451,106.102 405.8,106.102 C405.928,106.102 406.047,106.087 406.159,106.054 L406.288,106.015 L406.354,105.897 C406.771,105.13 407.846,104.35 408.483,104.35 C408.949,104.35 409.221,104.534 409.536,104.746 C409.836,104.95 410.177,105.181 410.669,105.181 C411.677,105.181 412.354,104.212 412.354,103.309 C412.354,102.469 411.629,101.601 410.414,101.601 C410.308,101.601 410.16,101.618 409.986,101.639 C409.607,101.687 409.066,101.751 408.607,101.629 C408.971,100.829 409.167,99.234 409.167,97.884 C409.167,95.482 408.252,93.709 407.368,91.994 C406.585,90.476 405.846,89.042 405.846,87.304 C405.846,86.734 405.92,85.408 406.612,85.408 C407.089,85.408 407.177,86.159 407.192,86.482 L407.207,86.795 L407.522,86.795 C408.37,86.791 410.297,85.572 410.297,83.573 C410.297,82.341 409.796,81.599 409.393,81.002 C409.133,80.615 408.928,80.309 408.928,79.978 C408.928,79.359 409.18,78.875 409.774,78.36 L410.11,78.065 L409.729,77.831 C409.252,77.54 408.792,77.457 408.358,77.588 C407.509,77.843 407.047,78.827 406.771,79.415 C406.724,79.516 406.684,79.603 406.649,79.667 C406.439,80.056 406.021,80.466 405.539,80.941 C405.081,81.39 404.562,81.9 404.091,82.518 C403.13,83.779 402.784,85.159 403.044,86.718 C402.304,86.442 401.399,86.228 400.103,86.228 C395.76,86.228 393.487,89.018 393.487,91.773 C393.487,93.807 394.875,95.283 396.788,95.283 C398.292,95.283 399.427,94.017 399.427,92.337 C399.427,90.597 398.307,89.817 397.198,89.817 C396.697,89.817 396.219,90.087 395.888,90.557 C395.642,90.904 395.453,91.419 395.583,91.783 L395.702,92.116 L396.026,91.974 C396.318,91.844 396.556,91.821 396.697,91.91 C396.819,91.987 396.894,92.166 396.899,92.386 C396.903,92.536 396.854,92.766 396.703,92.92 C396.594,93.032 396.452,93.085 396.265,93.085 C395.451,93.085 394.927,92.454 394.927,91.476 C394.927,90.34 396.042,87.993 399.491,87.993 C401.648,87.993 403.025,88.652 403.502,89.932 C403.431,89.913 403.359,89.892 403.295,89.872 C402.93,89.762 402.431,89.612 401.923,89.612 C400.496,89.612 399.573,90.528 399.573,91.944 C399.573,93.359 400.987,96.963 402.76,96.963 C403.75,96.963 404.129,96.29 404.407,95.799 C404.627,95.41 404.736,95.252 404.935,95.252 C405.572,95.252 406.326,95.825 406.683,96.926 C406.023,96.847 405.524,96.938 405.198,97.199 C405.01,97.35 404.787,97.634 404.787,98.14 C404.787,98.754 405.248,99.151 405.652,99.502 C406.038,99.834 406.37,100.122 406.37,100.538 C406.37,101.473 405.426,102.025 404.664,102.251 C404.889,101.809 405.004,101.321 405.004,100.807 C405.004,99.583 403.847,98.941 402.702,98.941 C401.435,98.941 401.14,100.041 400.902,100.924 C400.597,102.055 400.332,102.742 399.234,102.742 C394.281,102.742 391.269,99.342 390.851,94.73 C390.717,93.22 390.78,91.686 391.119,90.216 C391.606,87.998 392.644,85.926 394.035,84.117 C396.818,80.463 400.691,77.792 404.524,75.193 C406.451,73.888 408.409,72.61 410.251,71.117 C411.162,70.36 412.049,69.546 412.791,68.567 C412.915,68.404 413.026,68.225 413.139,68.05 L413.139,106.659 C410.912,108.184 409.269,107.16 408.715,106.812 L408.503,106.682 L408.393,106.792 C408.339,106.847 408.297,106.896 408.263,106.951 L408.196,107.072 C407.919,107.573 407.464,107.939 406.916,108.104 L406.788,108.142 C406.476,108.236 406.144,108.283 405.8,108.283 C405.171,108.283 404.582,108.129 403.957,107.965 C403.193,107.765 402.243,107.516 401.032,107.516 C400.375,107.516 399.687,107.46 398.985,107.349 C398.911,107.338 398.82,107.321 398.729,107.302 L398.673,107.291 C398.555,107.27 398.479,107.26 398.414,107.251 C398.201,107.223 398.015,107.194 397.715,107.111 L397.397,107.097 L355.789,107.051 L355.749,107.055 C355.485,107.103 355.218,107.102 354.921,107.049 L256.866,106.938 L256.783,106.956 C247.256,111.364 238.245,117.554 229.531,123.54 C227.209,125.135 225.112,126.574 222.953,128.029 L222.865,128.089 L222.865,130.457 L227.852,130.457 C229.054,130.457 230.033,131.435 230.033,132.638 L230.033,143.956 C230.033,144.92 229.386,145.781 228.461,146.05 C227.535,146.319 226.528,145.939 226.01,145.126 L225.102,143.696 C223.231,140.721 218.023,140.096 213.984,140.096 C207.923,140.096 202.882,142.493 199.566,144.655 C199.279,143.682 198.871,143.262 198.557,142.978 M304.736,103.826 L258.543,103.773 C266.883,100.243 275.831,98.016 286.02,98.016 C297.513,98.016 302.927,102.069 304.736,103.826 M140.166,152.633 C123.208,152.633 107.068,146.568 103.913,143.98 L103.714,143.817 L103.466,143.886 C97.713,145.497 93.272,143.817 92.21,141.278 C92.686,140.95 93.126,140.553 93.533,140.107 C96.619,143.084 100.327,142.501 102.878,141.786 L103.128,141.717 C103.805,141.528 104.553,141.686 105.095,142.129 L105.296,142.293 C107.612,144.193 123.011,150.452 140.166,150.452 C180.914,150.452 205.134,133.812 226.502,119.132 C244.68,106.645 261.85,94.85 286.02,94.85 C294.118,94.85 304.513,97.666 308.768,103.831 L306.098,103.828 C305.117,102.62 299.829,97.031 286.02,97.031 C262.527,97.031 245.629,108.639 227.738,120.93 C206.107,135.79 181.588,152.633 140.166,152.633 M97.901,128.36 C108.628,122.803 118.794,116.158 128.82,109.601 C131.823,107.637 134.8,105.694 137.762,103.802 C137.975,103.863 138.199,103.929 138.448,104.003 C140.699,104.674 144.466,105.798 150.163,105.798 C176.197,105.798 193.047,94.633 210.888,82.813 C229.604,70.413 248.957,57.591 280.953,57.591 C295.505,57.591 303.508,60.813 307.059,62.802 C306.191,64.702 305.752,66.776 305.752,68.969 C305.752,71.294 307.043,76.467 311.883,81.11 C318.936,87.875 329.23,89.296 336.624,89.296 C345.915,89.296 353.487,86.7 358.521,81.79 C358.758,81.559 360.183,79.93 361.288,78.379 C361.798,82.857 363.292,87.099 367.536,92.215 C364.996,96.78 356.726,102.015 349.26,103.876 L309.242,103.831 C307.717,101.555 304.945,99.343 301.548,97.709 C297.121,95.579 291.751,94.453 286.02,94.453 C261.727,94.453 244.508,106.282 226.278,118.805 C204.957,133.453 180.791,150.055 140.166,150.055 C123.109,150.055 107.838,143.866 105.545,141.985 L105.346,141.822 C104.706,141.298 103.821,141.112 103.022,141.335 L102.772,141.404 C98.845,142.504 96.06,142.008 93.798,139.806 C96.68,136.382 97.799,130.432 97.901,128.36 M47.107,141.06 C30.166,141.06 21.613,135.206 21.528,135.147 L21.203,134.918 L19.211,136.764 C18.68,136.346 17.617,135.49 16.914,134.787 C17.932,133.768 18.847,132.694 19.666,131.577 C21.582,133.347 25.209,135.102 29.742,136.441 C35.067,138.013 41.234,138.88 47.107,138.88 C78.264,138.88 103.083,122.648 127.088,106.95 C147.801,93.402 167.367,80.606 188.647,80.606 C194.308,80.606 199.402,81.905 202.44,84.098 C201.695,84.58 200.949,85.058 200.202,85.533 C199.263,84.865 195.771,82.787 188.647,82.787 C168.019,82.787 148.715,95.411 128.28,108.776 C104.01,124.648 78.915,141.06 47.107,141.06 M21.674,92.766 C25.243,93.723 30.489,95.047 37.794,95.047 C66.739,95.047 88.329,82.058 109.209,69.495 C130.016,56.977 151.533,44.032 180.566,44.032 C193.32,44.032 200.763,46.974 202.913,48.526 L203.296,48.822 C203.85,49.247 204.564,49.43 205.251,49.327 C205.941,49.223 206.568,48.837 206.971,48.268 L207.264,47.854 C208.243,46.477 211.771,44.553 216.323,44.661 C213.07,49.808 211.776,55.814 212.679,61.615 C213.32,65.731 215.896,70.333 219.136,73.21 C215.667,75.387 212.277,77.618 208.919,79.843 C206.869,81.201 204.832,82.545 202.794,83.867 C199.703,81.573 194.464,80.21 188.647,80.21 C167.248,80.21 147.635,93.037 126.868,106.62 C102.915,122.284 78.146,138.483 47.107,138.483 C34.891,138.483 23.678,134.785 19.9,131.251 C28.318,119.428 26.252,102.86 21.674,92.766 M37.794,92.47 C66.021,92.47 87.301,79.668 107.879,67.287 C128.988,54.588 150.816,41.455 180.566,41.455 C197.745,41.455 204.396,46.416 204.462,46.466 L204.868,46.778 L205.163,46.361 C207.184,43.519 213.878,40.736 220.98,42.794 C216.418,47.773 214.221,54.759 215.226,61.218 C215.946,65.839 218.268,69.581 221.625,71.662 C220.907,72.101 220.198,72.547 219.488,72.992 C216.27,70.178 213.704,65.623 213.071,61.554 C212.179,55.823 213.555,49.638 216.843,44.583 L217.033,44.293 L216.687,44.277 C211.762,44.05 208.026,46.097 206.94,47.625 L206.647,48.038 C206.306,48.52 205.776,48.847 205.192,48.935 C204.609,49.023 204.006,48.867 203.538,48.507 L203.15,48.208 C200.959,46.627 193.421,43.636 180.566,43.636 C151.422,43.636 129.859,56.609 109.004,69.155 C88.171,81.69 66.629,94.651 37.794,94.651 C30.32,94.651 25.009,93.253 21.458,92.297 C20.882,91.075 20.271,89.953 19.638,88.955 C23.944,90.766 30.528,92.47 37.794,92.47 M22.026,84.012 C22.363,84.168 22.694,84.328 23.029,84.492 C25.635,85.76 28.59,87.197 36.356,87.197 C47.99,87.197 67.665,80.509 74.103,69.168 C73.884,69.942 73.651,70.694 73.42,71.437 C72.27,75.122 71.098,78.945 71.994,84.985 C61.633,88.947 50.519,91.484 37.794,91.484 C30.055,91.484 23.143,89.517 19.009,87.588 C19.807,86.591 21.344,84.764 22.026,84.012 M48.728,79.875 C48.811,79.264 48.847,78.683 48.857,78.119 C50.724,78.802 53.083,79.455 56.856,79.455 C59.314,79.455 61.335,78.94 62.99,78.355 C62.238,78.806 61.462,79.249 60.643,79.676 C59.667,80.185 58.675,80.652 57.678,81.099 C56.771,81.405 51.389,82.177 48.728,79.875 M46.622,70.412 C48.852,71.463 51.562,72.04 54.434,72.04 C60.304,72.04 63.422,70.357 66.652,68.541 C65.987,71.125 65.604,73.729 66.153,76.267 C65.709,76.593 65.249,76.913 64.776,77.23 C62.777,78.064 60.298,79.058 56.856,79.058 C53.057,79.058 50.715,78.386 48.859,77.698 C48.82,74.793 47.867,72.489 46.622,70.412 M43.783,66.222 C47.025,68.65 51.485,69.462 54.434,69.462 C57.538,69.462 64.608,67.908 68.151,63.443 C67.989,63.991 67.822,64.541 67.65,65.102 C67.354,66.063 67.057,67.034 66.793,68.007 L66.67,68.076 C63.409,69.91 60.329,71.643 54.434,71.643 C51.375,71.643 48.503,70.982 46.231,69.779 C45.712,68.964 45.158,68.177 44.607,67.399 C44.327,67.005 44.052,66.613 43.783,66.222 M60.917,61.813 C61.081,60.961 61.15,59.904 61.031,59.075 C61.058,59.091 61.083,59.107 61.104,59.121 C61.397,59.335 61.714,59.803 61.714,60.477 C61.714,60.893 61.441,61.387 60.917,61.813 M61.103,67.107 C58.687,68.018 56.294,68.42 54.741,68.464 C54.842,65.821 54.157,64.123 53.484,62.49 C53.456,62.422 53.431,62.355 53.403,62.287 C54.601,63.292 56.16,63.778 57.72,63.778 C59.303,63.778 60.595,63.29 61.472,62.599 C61.422,62.833 61.37,63.061 61.317,63.286 C61.048,64.422 60.82,65.523 61.103,67.107 M61.68,58.322 C61.231,57.999 60.705,57.901 60.236,58.058 L59.738,58.224 L59.934,58.71 C60.322,59.677 59.996,61.854 59.722,62.469 C59.164,62.668 58.494,62.793 57.72,62.793 C55.199,62.793 52.256,61.343 52.256,57.26 C52.256,51.146 59.545,50.836 61.007,50.836 C65.018,50.836 69.28,53.135 69.28,57.396 C69.28,62.185 65.787,65.101 62.039,66.732 C61.847,65.456 62.035,64.533 62.277,63.513 C62.474,62.674 62.699,61.724 62.699,60.477 C62.699,59.602 62.309,58.776 61.68,58.322 M40.79,59.509 C40.789,59.503 40.787,59.496 40.786,59.49 C40.72,59.02 40.684,58.529 40.684,58.012 C40.684,49.348 49.779,44.673 58.337,44.673 C69.948,44.673 75.238,53.398 75.238,61.505 C75.238,66.564 72.369,71.426 67.035,75.607 C66.48,72.314 67.543,68.801 68.592,65.393 C69.452,62.598 70.266,59.958 70.266,57.396 C70.266,52.495 65.496,49.851 61.007,49.851 C56.3,49.851 51.27,51.797 51.27,57.26 C51.27,59.706 51.932,61.311 52.572,62.865 C53.236,64.475 53.855,66.012 53.756,68.457 C49.198,68.274 41.757,66.216 40.79,59.509 M142.036,101.106 C157.594,91.431 172.771,83.773 188.647,83.773 C194.758,83.773 198.08,85.378 199.288,86.117 C185.156,95.018 170.494,102.235 150.163,102.235 C146.286,102.235 144.104,101.67 142.036,101.106 M280.953,55.013 C300.331,55.013 308.759,60.617 310.522,61.979 C309.826,62.881 308.329,65.255 308.329,68.969 C308.329,72.718 313.131,86.718 336.624,86.718 C345.229,86.718 352.178,84.375 356.722,79.944 C358.987,77.735 360.286,75.421 361.037,73.413 C361.047,74.919 361.092,76.362 361.225,77.777 C360.116,79.405 358.495,81.261 358.244,81.506 C353.286,86.342 345.809,88.899 336.624,88.899 C329.302,88.899 319.115,87.498 312.157,80.823 C307.414,76.273 306.149,71.231 306.149,68.969 C306.149,66.771 306.601,64.696 307.495,62.804 L307.573,62.638 L307.414,62.547 C303.912,60.548 295.817,57.194 280.953,57.194 C248.837,57.194 229.434,70.05 210.668,82.483 C192.879,94.269 176.077,105.401 150.163,105.401 C144.524,105.401 140.792,104.288 138.562,103.623 C138.437,103.586 138.323,103.553 138.207,103.518 C139.103,102.947 139.998,102.379 140.891,101.818 L141.585,102.005 C143.671,102.575 146.035,103.22 150.163,103.22 C175.419,103.22 191.956,92.264 209.464,80.665 C228.498,68.054 248.181,55.013 280.953,55.013 M342.221,75.814 C343.197,76.313 344.267,76.564 345.336,76.564 C346.932,76.564 348.516,76.012 349.755,74.941 C349.749,77.394 349.96,80.046 350.777,82.7 C349.011,83.525 347.134,84.157 345.242,84.632 C345.083,81.834 343.727,78.808 342.221,75.814 M339.742,70.86 C341.145,72.136 342.962,72.954 344.908,72.954 C347.457,72.954 348.998,72.064 349.904,70.955 C349.841,72.032 349.777,73.188 349.759,74.397 C347.675,76.427 344.362,76.738 341.897,75.175 C341.748,74.882 341.598,74.59 341.448,74.298 C340.845,73.123 340.257,71.973 339.742,70.86 M350.03,67.924 C350.03,68.919 349.556,70.371 348.061,71.238 C348.079,70.117 347.853,68.597 347.182,67.752 C347.261,67.186 347.695,66.204 348.629,66.204 C349.306,66.204 350.03,66.656 350.03,67.924 M348.128,56.52 C355.135,56.52 361.055,61.908 361.055,68.284 C361.055,75.046 356.966,79.515 351.672,82.243 C350.485,78.259 350.702,74.22 350.893,70.94 C350.955,69.854 351.015,68.829 351.015,67.924 C351.015,66.065 349.778,65.219 348.629,65.219 C347.033,65.219 346.184,66.79 346.184,67.924 L346.184,68.127 L346.328,68.272 C346.963,68.906 347.154,70.693 347.049,71.675 C346.45,71.86 345.743,71.969 344.908,71.969 C341.268,71.969 338.074,68.775 338.074,65.134 C338.074,59.66 341.738,56.52 348.128,56.52 M355.428,103.883 L350.74,103.878 C357.837,101.75 365.299,96.872 367.81,92.539 C368.127,92.914 368.456,93.293 368.803,93.678 C367.722,96.983 361.745,102.609 355.428,103.883 M413.641,59.937 C412.09,59.937 410.828,61.199 410.828,62.751 C410.828,64.114 411.801,65.252 413.089,65.51 C412.843,67.431 411.235,69.051 409.65,70.389 C407.878,71.842 405.938,73.128 404.017,74.446 C400.19,77.076 396.256,79.805 393.378,83.623 C391.942,85.513 390.856,87.704 390.357,90.049 C389.895,92.125 389.928,94.271 390.327,96.351 C390.348,96.463 390.366,96.577 390.39,96.686 C390.422,96.839 390.585,97.463 390.632,97.623 C390.708,97.884 390.791,98.134 390.88,98.379 C390.963,98.604 391.039,98.827 391.136,99.046 C391.35,99.537 391.588,99.996 391.852,100.42 C391.878,100.461 391.908,100.498 391.934,100.539 C392.228,100.996 392.549,101.411 392.891,101.792 C392.935,101.841 392.976,101.893 393.022,101.942 C393.422,102.37 393.845,102.75 394.289,103.086 C394.296,103.092 394.301,103.098 394.308,103.103 C394.319,103.111 394.331,103.117 394.342,103.125 C394.746,103.427 395.161,103.697 395.586,103.929 L358.729,103.887 C364.308,101.591 369.063,96.635 369.831,93.675 L369.898,93.417 L369.718,93.219 C361.926,84.686 361.97,78.763 362.03,70.565 C362.036,69.824 362.041,69.065 362.041,68.284 C362.041,61.373 355.669,55.534 348.128,55.534 C341.215,55.534 337.089,59.123 337.089,65.134 C337.089,67.967 338.781,71.262 340.572,74.749 C342.346,78.203 344.155,81.762 344.266,84.87 C341.622,85.455 338.984,85.732 336.624,85.732 C313.95,85.732 309.315,72.51 309.315,68.969 C309.315,64.655 311.55,62.282 311.573,62.258 L311.918,61.9 L311.557,61.558 C311.233,61.25 303.351,54.028 280.953,54.028 C255.581,54.028 238.023,61.758 222.569,71.087 C219.224,69.223 216.904,65.595 216.2,61.067 C215.201,54.654 217.514,47.695 222.233,42.906 L222.785,42.345 L222.038,42.094 C214.423,39.525 207.259,42.29 204.653,45.41 C202.939,44.335 195.718,40.469 180.566,40.469 C150.542,40.469 128.595,53.673 107.37,66.442 C96.007,73.278 84.968,79.893 72.94,84.614 C72.138,78.939 73.209,75.422 74.36,71.731 C75.277,68.792 76.224,65.753 76.224,61.505 C76.224,49.807 67.225,43.688 58.337,43.688 C49.301,43.688 39.699,48.708 39.699,58.012 C39.699,58.558 39.738,59.08 39.805,59.586 C39.818,59.677 39.841,59.762 39.855,59.852 C40.357,63.074 42.096,65.56 43.801,67.969 C46.229,71.398 48.523,74.637 47.715,79.988 L47.679,80.24 L47.86,80.416 C49.521,82.024 52.139,82.459 54.334,82.459 C54.349,82.459 54.362,82.458 54.376,82.458 C47.582,85.023 40.826,86.211 36.356,86.211 C28.818,86.211 25.972,84.826 23.461,83.605 C23.01,83.386 22.567,83.17 22.109,82.967 L21.799,82.829 L21.56,83.069 C20.976,83.652 18.46,86.654 17.838,87.481 L17.617,87.778 L17.84,88.074 C24.608,97.04 29.899,120.859 15.881,134.42 L15.543,134.746 L15.853,135.099 C16.778,136.151 18.851,137.735 18.94,137.803 L19.269,138.054 L21.297,136.175 C23.055,137.284 31.506,142.046 47.107,142.046 C65.592,142.046 81.792,136.572 96.869,128.888 C96.571,131.6 95.052,138.438 91.363,140.651 L91.037,140.847 L91.143,141.212 C92.075,144.419 96.932,146.65 103.491,144.902 C107.67,148.063 124.276,153.618 140.166,153.618 C176.509,153.618 199.898,140.772 219.699,127.586 L219.699,133.623 L226.866,133.623 L226.866,140.753 C225.439,139.164 222.164,136.929 213.984,136.929 C204.211,136.929 198.135,141.358 197.543,142.764 C197.381,143.146 197.557,143.387 197.641,143.473 C197.697,143.53 197.761,143.589 197.832,143.651 C198.241,144.018 198.928,144.632 198.928,147.74 C198.928,149.343 198.363,151.957 197.766,154.725 C196.983,158.349 196.097,162.456 196.097,165.817 C196.097,170.526 199.774,175.531 206.588,175.531 C213.656,175.531 216.165,171.06 216.165,167.232 C216.165,166.411 216.051,165.417 215.929,164.365 C215.566,161.211 215.137,157.323 217.535,155.734 C226.911,158.749 231.945,167.53 232.003,167.637 L232.519,168.589 L232.899,167.576 C233.255,166.622 235.301,161.282 235.823,159.918 L391.852,159.918 C393.86,159.918 395.131,160.55 396.601,161.28 C398.548,162.247 400.753,163.342 405.167,163.342 C406.906,163.342 407.251,163.918 407.73,164.714 C408.409,165.842 409.255,167.247 413.632,167.247 L414.125,167.247 L414.125,65.517 C415.446,65.287 416.457,64.138 416.457,62.751 C416.457,61.199 415.193,59.937 413.641,59.937" fill="#000000"/>
      <g>
        <path d="M38.792,105.856 L38.747,106.061 C38.994,106.332 39.128,106.976 38.893,107.477 L30.391,124.458 C30.177,124.871 29.907,125.119 29.601,125.389 L29.568,125.535 L33.844,126.484 L33.89,126.279 C33.753,125.788 33.685,125.404 33.948,124.909 L35.444,122.046 L38.314,122.683 L38.403,125.745 C38.432,126.304 38.175,126.77 37.785,127.144 L37.739,127.349 L42.308,128.363 L42.347,128.188 C42.132,127.771 42.002,127.251 41.992,126.603 L41.897,106.546 z M38.531,115.202 L38.434,119.79 L36.618,119.387 z" fill="#000000"/>
        <path d="M46.035,107.357 L46.048,107.567 C46.381,108.118 46.619,108.585 46.652,109.154 L47.676,126.464 C47.709,127.033 47.53,127.554 47.262,128.111 L47.275,128.321 L51.946,128.044 L51.934,127.835 C51.513,127.319 51.243,126.824 51.209,126.255 L50.841,120.026 L52.159,119.948 C55.753,119.735 57.995,116.988 57.761,113.035 C57.536,109.232 55.199,106.815 51.905,107.01 z M51.954,116.985 L50.666,117.061 L50.246,109.963 L50.935,109.922 C52.642,109.822 53.835,111.194 53.965,113.38 C54.088,115.476 53.301,116.905 51.954,116.985 z" fill="#000000"/>
        <path d="M58.767,106.415 L58.817,106.619 C59.246,107.1 59.565,107.515 59.703,108.069 L63.883,124.897 C64.02,125.45 63.939,125.996 63.778,126.592 L63.829,126.796 L68.371,125.668 L68.32,125.464 C67.812,125.034 67.456,124.597 67.318,124.044 L65.814,117.988 L67.095,117.67 C70.589,116.802 72.289,113.69 71.335,109.847 C70.416,106.149 67.676,104.203 64.473,104.998 z M66.35,114.795 L65.098,115.105 L63.384,108.205 L64.054,108.039 C65.714,107.627 67.138,108.757 67.666,110.882 C68.172,112.92 67.66,114.469 66.35,114.795 z" fill="#000000"/>
        <path d="M72.102,102.784 L72.179,102.979 C72.657,103.371 73.051,103.795 73.249,104.297 L79.631,120.42 C79.83,120.923 79.833,121.502 79.753,122.114 L79.83,122.31 L88.617,118.832 L87.027,114.815 L86.916,114.859 C86.137,116.071 85.891,116.426 85.361,116.636 L82.404,117.807 L76.541,102.995 C76.331,102.465 76.35,101.941 76.447,101.29 L76.37,101.094 z" fill="#000000"/>
        <path d="M84.002,97.822 L84.096,98.01 C84.619,98.386 85.048,98.708 85.302,99.218 L93.043,114.734 C93.298,115.244 93.31,115.808 93.283,116.425 L93.377,116.613 L97.484,114.564 L97.39,114.376 C96.867,114 96.438,113.678 96.184,113.167 L88.443,97.651 C88.189,97.141 88.176,96.578 88.203,95.961 L88.109,95.773 z" fill="#000000"/>
        <path d="M109.594,102.319 L109.49,102.38 C109.375,102.657 108.576,104.554 107.024,105.466 C105.11,106.591 102.423,105.039 100.37,101.548 C97.877,97.306 97.63,93.867 99.595,92.712 C100.94,91.921 103.125,92.62 103.566,92.778 L103.655,92.691 L101.188,88.852 C100.86,88.766 99.457,89.104 97.983,89.97 C94.001,92.312 93.654,97.701 97.06,103.494 C100.162,108.77 104.857,110.777 108.788,108.466 C110.029,107.736 111.129,106.707 111.47,105.984 z" fill="#000000"/>
        <path d="M108.014,83.441 L108.131,83.615 C108.497,83.622 109.055,83.97 109.257,84.486 L115.681,102.357 C115.832,102.797 115.825,103.163 115.809,103.571 L115.893,103.696 L119.53,101.256 L119.413,101.081 C118.963,100.841 118.638,100.626 118.462,100.094 L117.421,97.035 L119.863,95.397 L122.14,97.446 C122.566,97.811 122.725,98.318 122.727,98.859 L122.844,99.033 L126.73,96.426 L126.63,96.276 C126.18,96.145 125.714,95.88 125.238,95.44 L110.655,81.669 z M114.598,90.078 L117.852,93.314 L116.307,94.35 z" fill="#000000"/>
        <path d="M136.067,90.481 L135.957,90.302 C135.325,90.023 134.842,89.758 134.542,89.273 L126.148,75.735 L127.499,74.897 C127.907,74.644 128.502,74.522 129.443,74.503 L129.876,74.517 L129.978,74.454 L127.78,70.91 L118.092,76.917 L120.289,80.461 L120.391,80.398 L120.57,80.004 C121.006,79.17 121.38,78.691 121.788,78.438 L123.139,77.6 L131.533,91.139 C131.834,91.623 131.857,92.173 131.826,92.863 L131.937,93.042 z" fill="#000000"/>
        <path d="M133.505,67.742 L133.605,67.927 C134.139,68.287 134.577,68.596 134.848,69.098 L143.062,84.369 C143.332,84.871 143.362,85.434 143.354,86.051 L143.454,86.236 L147.496,84.062 L147.396,83.877 C146.862,83.517 146.423,83.208 146.153,82.706 L137.939,67.435 C137.669,66.933 137.638,66.37 137.647,65.753 L137.547,65.568 z" fill="#000000"/>
        <path d="M148.259,71.638 C150.612,77.675 154.847,80.693 158.733,79.179 C162.646,77.654 163.688,72.643 161.367,66.69 C159.025,60.68 154.867,57.696 150.954,59.221 C147.069,60.736 145.949,65.712 148.259,71.638 z M157.556,76.16 C155.907,76.803 153.65,74.399 151.983,70.122 C150.37,65.985 150.427,62.743 152.076,62.1 C153.753,61.447 155.965,63.901 157.654,68.233 C159.245,72.314 159.233,75.507 157.556,76.16 z" fill="#000000"/>
        <path d="M175.526,53.232 L175.551,53.44 C176.003,53.93 176.213,54.418 176.281,54.984 L177.154,62.221 L171.624,53.703 L167.782,54.166 L167.807,54.375 C168.169,54.875 168.432,55.296 168.507,55.922 L170.584,73.137 C170.649,73.673 170.475,74.238 170.239,74.78 L170.267,75.018 L174.854,74.465 L174.825,74.227 C174.403,73.734 174.164,73.249 174.099,72.713 L172.787,61.842 L180.93,73.732 L182.151,73.585 L179.855,54.553 C179.79,54.017 179.904,53.459 180.137,52.887 L180.112,52.678 z" fill="#000000"/>
        <path d="M188.998,69.071 L188.76,69.038 L188.291,73.062 C188.564,73.493 189.513,74.292 191.503,74.569 C194.772,75.024 197.285,73.072 197.753,69.715 C198.133,66.981 197.122,64.235 194.816,61.006 C194.057,59.931 193.739,58.948 193.892,57.849 C194.004,57.046 194.655,56.289 195.516,56.409 C196.735,56.579 197.545,57.721 197.895,58.467 L198.133,58.5 L198.585,54.383 C198.398,54.205 197.459,53.772 195.914,53.556 C192.853,53.13 190.584,54.632 190.212,57.306 C189.902,59.534 190.537,61.501 192.055,63.651 C193.726,66.004 194.475,67.804 194.26,69.349 C194.02,71.073 192.903,71.917 191.684,71.747 C190.08,71.524 189.384,70.427 188.998,69.071 z" fill="#000000"/>
      </g>
      <text transform="matrix(1, 0, 0, 1, 326.382, 131.852)">
        <tspan x="-80.99" y="13.5" font-family="Blackriver-Bold" font-size="30" kerning="4" fill="#000000">Interfaces</tspan>
      </text>
      <g>
        <path d="M139.569,124.324 C139.846,118.39 135.911,113.882 129.408,113.579 C123.205,113.29 119.267,117.882 119.08,121.898 C118.919,125.344 121.738,126.737 124.116,125.316 L124.127,125.076 C123.229,124.373 122.904,123.608 122.971,122.169 C123.117,119.052 126.2,117.334 129.227,117.475 C133.662,117.682 135.83,120.786 135.673,124.142 C135.52,127.439 133.525,130.289 130.128,130.371 L130.525,121.83 C130.552,121.261 130.911,120.647 131.26,120.243 L131.27,120.033 L126.145,119.794 L126.136,120.004 C126.473,120.5 126.715,121.112 126.688,121.682 L125.564,145.805 C125.538,146.375 125.21,146.96 124.859,147.394 L124.85,147.604 L129.974,147.843 L129.984,147.633 C129.645,147.167 129.374,146.553 129.4,145.984 L129.959,133.997 C135.993,134.038 139.344,129.149 139.569,124.324 z" fill="#000000"/>
        <path d="M155.613,141.201 L155.592,140.992 C155.158,140.552 154.81,140.074 154.549,139.556 L151.087,132.478 C152.592,131.518 153.959,129.155 153.672,126.199 C153.332,122.705 150.953,120.555 147.728,120.869 L141.935,121.432 L141.956,121.641 C142.307,122.149 142.568,122.667 142.62,123.204 L144.298,140.463 C144.35,141 144.194,141.558 143.947,142.124 L143.968,142.333 L148.476,141.895 L148.456,141.686 C148.031,141.034 147.868,140.598 147.822,140.12 L147.151,133.223 L148.166,133.124 L151.671,141.584 z M147.873,130.108 L146.858,130.207 L146.286,124.325 L146.883,124.266 C148.675,124.092 149.807,124.886 150.004,126.917 C150.19,128.828 149.037,129.995 147.873,130.108 z" fill="#000000"/>
        <path d="M157.277,130.275 C158.624,136.613 162.317,140.275 166.396,139.408 C170.504,138.534 172.341,133.758 171.011,127.508 C169.67,121.199 166.048,117.583 161.94,118.456 C157.862,119.324 155.954,124.054 157.277,130.275 z M165.722,136.239 C163.991,136.607 162.151,133.87 161.196,129.38 C160.273,125.037 160.852,121.847 162.583,121.479 C164.344,121.104 166.131,123.883 167.098,128.432 C168.009,132.716 167.482,135.864 165.722,136.239 z" fill="#000000"/>
        <path d="M185.751,121.656 L185.68,121.458 L181.387,122.995 L181.458,123.193 C181.892,123.515 182.27,123.858 182.421,124.282 L184.596,130.354 C184.541,130.469 184.35,130.825 183.841,131.007 C182.316,131.553 179.334,129.275 177.948,125.405 C176.27,120.717 176.847,118.057 179.219,117.207 C180.631,116.702 182.075,117.173 183.094,117.795 L183.207,117.755 L181.852,113.97 C181.133,113.654 179.862,113.217 177.772,113.965 C173.733,115.412 172.058,120.345 174.333,126.7 C176.386,132.433 180.925,135.588 184.653,134.253 C186.884,133.454 188.245,131.915 188.123,129.793 L185.807,123.325 C185.635,122.844 185.602,122.219 185.751,121.656 z" fill="#000000"/>
        <path d="M205.066,124.723 L204.97,124.537 C204.404,124.287 203.904,123.971 203.471,123.586 L197.647,118.279 C198.692,116.833 199.093,114.132 197.738,111.489 C196.136,108.366 193.132,107.243 190.249,108.722 L185.071,111.378 L185.167,111.565 C185.68,111.908 186.113,112.293 186.36,112.774 L194.274,128.202 C194.52,128.683 194.58,129.259 194.559,129.876 L194.655,130.063 L198.686,127.996 L198.59,127.809 C197.955,127.359 197.643,127.014 197.424,126.587 L194.261,120.42 L195.168,119.955 L201.542,126.531 z M193.785,117.259 L192.878,117.724 L190.181,112.466 L190.714,112.192 C192.316,111.37 193.661,111.692 194.592,113.507 C195.468,115.216 194.826,116.725 193.785,117.259 z" fill="#000000"/>
        <path d="M201.198,102.244 L201.307,102.424 C201.672,102.449 202.213,102.824 202.389,103.348 L207.935,121.511 C208.064,121.958 208.039,122.323 208.004,122.73 L208.081,122.858 L211.833,120.599 L211.725,120.419 C211.287,120.157 210.973,119.926 210.823,119.386 L209.932,116.28 L212.451,114.763 L214.626,116.92 C215.033,117.305 215.168,117.82 215.143,118.36 L215.251,118.54 L219.26,116.125 L219.167,115.971 C218.724,115.817 218.271,115.53 217.818,115.068 L203.922,100.603 z M207.451,109.194 L210.544,112.585 L208.95,113.545 z" fill="#000000"/>
        <path d="M225.637,87.49 L225.525,87.313 L221.7,89.741 L222.908,97.858 L215.849,93.455 L212.202,95.77 L212.315,95.947 C212.966,96.245 213.327,96.478 213.552,96.832 L222.957,111.649 C223.263,112.13 223.333,112.69 223.293,113.354 L223.406,113.532 L227.231,111.104 L227.118,110.927 C226.598,110.724 226.154,110.472 225.849,109.991 L219.177,99.48 L226.486,103.83 L226.765,103.653 L225.914,95.203 L232.506,105.588 C232.811,106.069 232.917,106.571 232.969,107.213 L233.081,107.39 L236.728,105.075 L236.616,104.898 C236.048,104.618 235.616,104.218 235.342,103.787 L226.049,89.148 C225.744,88.666 225.625,88.422 225.637,87.49 z" fill="#000000"/>
        <path d="M244.729,75.892 L244.623,75.71 L240.708,77.989 L241.602,86.146 L234.718,81.474 L230.984,83.647 L231.09,83.829 C231.729,84.151 232.081,84.398 232.292,84.761 L241.119,99.929 C241.406,100.422 241.455,100.983 241.389,101.646 L241.495,101.828 L245.41,99.549 L245.305,99.368 C244.793,99.145 244.359,98.876 244.073,98.384 L237.811,87.623 L244.947,92.252 L245.232,92.086 L244.708,83.61 L250.894,94.24 C251.181,94.733 251.267,95.238 251.294,95.882 L251.4,96.064 L255.134,93.891 L255.028,93.709 C254.471,93.408 254.055,92.991 253.798,92.55 L245.077,77.563 C244.79,77.071 244.68,76.822 244.729,75.892 z" fill="#000000"/>
        <path d="M252.816,71.864 L252.892,72.06 C253.377,72.484 253.773,72.845 253.978,73.377 L260.213,89.558 C260.418,90.09 260.377,90.652 260.292,91.263 L260.367,91.459 L264.65,89.809 L264.575,89.613 C264.09,89.189 263.693,88.827 263.488,88.296 L257.254,72.115 C257.049,71.583 257.089,71.021 257.175,70.409 L257.099,70.214 z" fill="#000000"/>
        <path d="M278.208,66.942 L278.206,67.152 C278.59,67.697 278.734,68.208 278.728,68.778 L278.647,76.068 L274.278,66.899 L270.408,66.856 L270.406,67.066 C270.7,67.61 270.905,68.062 270.898,68.692 L270.707,86.031 C270.701,86.571 270.455,87.108 270.149,87.615 L270.147,87.855 L274.767,87.906 L274.769,87.666 C274.415,87.122 274.241,86.61 274.247,86.07 L274.367,75.121 L280.886,87.973 L282.116,87.987 L282.327,68.818 C282.333,68.278 282.519,67.74 282.825,67.203 L282.828,66.993 z" fill="#000000"/>
        <path d="M302.832,82.646 L302.893,82.445 L298.529,81.124 L298.468,81.325 C298.625,81.843 298.724,82.343 298.594,82.774 L296.725,88.947 C296.612,89.007 296.247,89.179 295.73,89.022 C294.18,88.553 293.14,84.947 294.331,81.013 C295.774,76.247 297.821,74.453 300.233,75.183 C301.669,75.618 302.548,76.856 302.996,77.963 L303.111,77.998 L304.276,74.15 C303.887,73.468 303.125,72.36 301.001,71.717 C296.895,70.474 292.611,73.44 290.656,79.9 C288.891,85.729 290.659,90.966 294.449,92.114 C296.718,92.8 298.727,92.374 299.893,90.596 L301.883,84.02 C302.031,83.532 302.377,83.01 302.832,82.646 z" fill="#000000"/>
      </g>
    </g>
  </g>
</svg>
