<?xml version="1.0" encoding="UTF-8"?>
<!DOCTYPE svg PUBLIC "-//W3C//DTD SVG 1.1//EN" "http://www.w3.org/Graphics/SVG/1.1/DTD/svg11.dtd">
<svg version="1.1" xmlns="http://www.w3.org/2000/svg" xmlns:xlink="http://www.w3.org/1999/xlink" x="0" y="0" width="396" height="180" viewBox="0, 0, 396, 180">
  <g id="Layer_1">
    <path d="M22.962,39.831 L28.903,39.831 L28.903,44.396 Q30.112,41.811 32.45,40.491 Q34.787,39.171 37.812,39.171 Q44.577,39.226 46.118,43.846 Q47.327,41.701 49.748,40.436 Q52.167,39.171 54.862,39.171 Q58.822,39.171 60.857,40.683 Q62.893,42.196 63.58,44.973 Q64.268,47.751 64.268,52.426 L64.268,65.076 L58.272,65.076 L58.272,52.371 Q58.272,47.916 57.365,45.991 Q56.458,44.066 53.873,44.066 Q50.408,44.066 48.62,46.403 Q46.833,48.741 46.833,52.536 L46.833,65.076 L40.893,65.076 L40.893,51.491 Q40.893,48.576 40.673,47.146 Q40.452,45.716 39.463,44.891 Q38.472,44.066 36.272,44.066 Q34.347,44.066 32.67,45.221 Q30.993,46.376 29.975,48.328 Q28.958,50.281 28.958,52.536 L28.958,65.076 L22.962,65.076 z M84.012,60.676 Q80.437,60.676 78.54,58.393 Q76.642,56.111 76.642,52.426 Q76.642,48.796 78.567,46.513 Q80.492,44.231 84.012,44.231 Q86.047,44.231 87.752,45.276 Q89.457,46.321 90.447,48.191 Q91.437,50.061 91.437,52.426 L91.437,52.811 Q91.437,56.331 89.292,58.503 Q87.147,60.676 84.012,60.676 z M83.022,65.626 Q86.102,65.626 88.577,64.113 Q91.052,62.601 91.987,60.621 L92.097,65.076 L97.707,65.076 L97.707,39.831 L92.042,39.831 L91.932,44.066 Q91.492,42.966 90.172,41.838 Q88.852,40.711 86.927,39.941 Q85.002,39.171 82.802,39.171 Q79.007,39.171 76.202,40.821 Q73.397,42.471 71.885,45.441 Q70.372,48.411 70.372,52.371 Q70.372,56.386 72.105,59.383 Q73.837,62.381 76.725,64.003 Q79.612,65.626 83.022,65.626 z M107.882,65.076 L113.877,65.076 L113.877,44.671 L119.707,44.671 L119.707,39.831 L113.877,39.831 L113.877,28.226 L107.882,29.546 L107.882,39.831 L103.427,39.831 L103.427,44.671 L107.882,44.671 z M145.502,59.246 Q143.192,59.246 141.982,57.816 Q140.772,56.386 140.772,54.021 Q140.772,50.281 142.752,47.833 Q144.732,45.386 147.922,45.386 Q150.122,45.386 151.195,46.706 Q152.267,48.026 152.267,50.391 Q152.267,52.426 151.497,54.488 Q150.727,56.551 149.215,57.898 Q147.702,59.246 145.502,59.246 z M146.107,75.196 Q152.817,75.196 159.087,72.446 L157.492,69.036 Q152.542,71.401 146.327,71.401 Q140.717,71.401 136.565,69.421 Q132.412,67.441 130.157,63.618 Q127.902,59.796 127.902,54.406 Q127.902,48.411 130.955,43.571 Q134.007,38.731 139.315,35.953 Q144.622,33.176 151.112,33.176 Q158.922,33.176 162.882,36.916 Q166.842,40.656 166.842,46.761 Q166.842,49.511 165.687,52.508 Q164.532,55.506 162.415,57.568 Q160.297,59.631 157.492,59.631 Q156.667,59.631 156.255,59.273 Q155.842,58.916 155.842,58.036 Q155.842,57.431 156.117,56.166 L159.527,41.261 L154.357,41.261 L153.642,44.286 Q153.092,42.746 151.717,41.893 Q150.342,41.041 147.702,41.041 Q144.347,41.041 141.487,42.663 Q138.627,44.286 136.922,47.311 Q135.217,50.336 135.217,54.296 Q135.217,58.696 137.665,61.226 Q140.112,63.756 143.907,63.756 Q146.162,63.756 148.06,62.876 Q149.957,61.996 151.277,60.181 Q151.607,63.921 155.677,63.921 Q160.022,63.921 163.515,61.528 Q167.007,59.136 168.987,55.121 Q170.967,51.106 170.967,46.376 Q170.967,41.756 168.822,37.933 Q166.677,34.111 162.387,31.856 Q158.097,29.601 151.882,29.601 Q143.962,29.601 137.5,32.846 Q131.037,36.091 127.325,41.893 Q123.612,47.696 123.612,55.066 Q123.612,60.951 126.307,65.516 Q129.002,70.081 134.09,72.638 Q139.177,75.196 146.107,75.196 z M187.137,65.076 L188.292,65.076 L201.547,39.831 L194.947,39.831 L189.557,51.216 L187.797,55.781 L186.037,51.216 L180.592,39.831 L173.827,39.831 z M207.543,65.076 L213.538,65.076 L213.538,44.671 L219.368,44.671 L219.368,39.831 L213.538,39.831 L213.538,28.226 L207.543,29.546 L207.543,39.831 L203.088,39.831 L203.088,44.671 L207.543,44.671 z M236.362,60.676 Q232.787,60.676 230.89,58.393 Q228.992,56.111 228.992,52.426 Q228.992,48.796 230.917,46.513 Q232.842,44.231 236.362,44.231 Q238.397,44.231 240.102,45.276 Q241.807,46.321 242.797,48.191 Q243.787,50.061 243.787,52.426 L243.787,52.811 Q243.787,56.331 241.642,58.503 Q239.497,60.676 236.362,60.676 z M235.372,65.626 Q238.452,65.626 240.927,64.113 Q243.402,62.601 244.337,60.621 L244.447,65.076 L250.057,65.076 L250.057,39.831 L244.392,39.831 L244.282,44.066 Q243.842,42.966 242.522,41.838 Q241.202,40.711 239.277,39.941 Q237.352,39.171 235.152,39.171 Q231.357,39.171 228.552,40.821 Q225.747,42.471 224.235,45.441 Q222.722,48.411 222.722,52.371 Q222.722,56.386 224.455,59.383 Q226.187,62.381 229.075,64.003 Q231.962,65.626 235.372,65.626 z M271.672,60.621 Q269.637,60.621 267.932,59.603 Q266.227,58.586 265.21,56.743 Q264.192,54.901 264.192,52.536 L264.192,52.151 Q264.192,49.786 265.21,47.998 Q266.227,46.211 267.96,45.248 Q269.692,44.286 271.672,44.286 Q275.302,44.286 277.2,46.513 Q279.097,48.741 279.097,52.481 Q279.097,56.056 277.172,58.338 Q275.247,60.621 271.672,60.621 z M258.142,78.441 L263.917,78.441 L263.862,61.281 Q265.182,63.371 267.52,64.498 Q269.857,65.626 273.047,65.626 Q276.457,65.626 279.235,63.976 Q282.012,62.326 283.635,59.301 Q285.257,56.276 285.257,52.316 Q285.257,45.936 281.957,42.553 Q278.657,39.171 273.322,39.171 Q266.887,39.171 263.862,44.506 L263.862,39.831 L258.142,39.831 z M295.047,35.101 Q296.752,35.101 297.88,33.946 Q299.007,32.791 299.007,31.086 Q299.007,29.546 297.852,28.446 Q296.697,27.346 295.047,27.346 Q293.342,27.346 292.187,28.446 Q291.032,29.546 291.032,31.086 Q291.032,32.791 292.187,33.946 Q293.342,35.101 295.047,35.101 z M292.022,65.076 L298.182,65.076 L298.182,39.831 L292.022,39.831 z M310.503,65.626 Q312.207,65.626 313.335,64.498 Q314.462,63.371 314.462,61.721 Q314.462,60.016 313.335,58.888 Q312.207,57.761 310.503,57.761 Q308.797,57.761 307.67,58.888 Q306.542,60.016 306.542,61.721 Q306.542,63.371 307.697,64.498 Q308.852,65.626 310.503,65.626 z M334.207,65.626 Q336.848,65.626 339.02,64.883 Q341.193,64.141 342.402,63.206 L340.258,59.026 Q339.378,59.686 337.755,60.181 Q336.133,60.676 334.427,60.676 Q331.017,60.676 329.12,58.421 Q327.223,56.166 327.223,52.096 Q327.223,48.521 329.065,46.376 Q330.908,44.231 334.427,44.231 Q337.342,44.231 339.652,46.541 L342.293,41.756 Q341.082,40.656 338.965,39.913 Q336.848,39.171 333.932,39.171 Q330.082,39.171 327.14,40.766 Q324.198,42.361 322.575,45.303 Q320.953,48.246 320.953,52.151 Q320.953,56.276 322.712,59.328 Q324.473,62.381 327.47,64.003 Q330.467,65.626 334.207,65.626 z M360.003,60.786 Q356.812,60.786 354.777,58.393 Q352.742,56.001 352.742,52.481 Q352.742,48.851 354.64,46.431 Q356.538,44.011 359.672,44.011 Q362.917,44.011 364.897,46.458 Q366.878,48.906 366.878,52.481 Q366.878,56.056 365.035,58.421 Q363.193,60.786 360.003,60.786 z M359.837,65.626 Q363.742,65.626 366.74,63.866 Q369.737,62.106 371.387,59.081 Q373.038,56.056 373.038,52.371 Q373.038,48.741 371.415,45.716 Q369.792,42.691 366.795,40.931 Q363.797,39.171 359.837,39.171 Q355.878,39.171 352.852,40.931 Q349.827,42.691 348.205,45.716 Q346.582,48.741 346.582,52.371 Q346.582,56.056 348.232,59.081 Q349.883,62.106 352.908,63.866 Q355.932,65.626 359.837,65.626 z M72.154,150.444 Q70.488,149.22 68.839,146.925 Q67.19,144.63 66.068,141.298 Q64.946,137.966 64.946,133.92 Q64.946,129.874 66.085,126.525 Q67.224,123.176 68.873,120.881 Q70.522,118.586 72.154,117.396 L70.182,115.152 Q68.856,115.832 66.816,118.263 Q64.776,120.694 63.144,124.74 Q61.512,128.786 61.512,133.92 Q61.512,139.054 63.144,143.1 Q64.776,147.146 66.833,149.577 Q68.89,152.008 70.182,152.654 z M85.244,142.454 Q83.068,142.454 81.759,141.179 Q80.45,139.904 80.45,137.966 Q80.45,135.96 81.81,134.719 Q83.17,133.478 85.244,133.478 Q87.284,133.478 88.644,134.753 Q90.004,136.028 90.004,137.966 Q90.004,139.904 88.695,141.179 Q87.386,142.454 85.244,142.454 z M85.244,130.214 Q83.612,130.214 82.558,129.126 Q81.504,128.038 81.504,126.474 Q81.504,124.876 82.524,123.873 Q83.544,122.87 85.244,122.87 Q86.91,122.87 87.93,123.873 Q88.95,124.876 88.95,126.474 Q88.95,128.004 87.862,129.109 Q86.774,130.214 85.244,130.214 z M85.244,145.786 Q87.59,145.786 89.579,144.834 Q91.568,143.882 92.724,142.131 Q93.88,140.38 93.88,138.068 Q93.88,135.688 92.69,134.141 Q91.5,132.594 89.698,131.812 Q91.092,131.03 91.959,129.721 Q92.826,128.412 92.826,126.576 Q92.826,124.57 91.84,123.057 Q90.854,121.544 89.12,120.711 Q87.386,119.878 85.244,119.878 Q83.102,119.878 81.368,120.711 Q79.634,121.544 78.648,123.074 Q77.662,124.604 77.662,126.644 Q77.662,128.31 78.495,129.653 Q79.328,130.996 80.654,131.778 Q78.886,132.526 77.747,134.09 Q76.608,135.654 76.608,138.068 Q76.608,140.38 77.764,142.131 Q78.92,143.882 80.892,144.834 Q82.864,145.786 85.244,145.786 z M107.276,142.318 Q102.312,142.318 102.312,132.798 Q102.312,128.412 103.383,125.862 Q104.454,123.312 107.276,123.312 Q110.098,123.312 111.152,125.862 Q112.206,128.412 112.206,132.798 Q112.206,136.98 111.135,139.649 Q110.064,142.318 107.276,142.318 z M107.276,145.786 Q111.935,145.786 114.145,142.233 Q116.354,138.68 116.354,132.798 Q116.354,119.878 107.276,119.878 Q102.449,119.878 100.306,123.363 Q98.164,126.848 98.164,132.798 Q98.164,138.578 100.374,142.182 Q102.584,145.786 107.276,145.786 z M120.673,145.276 L137.673,145.276 L137.673,141.91 L127.983,141.91 L132.607,136.062 Q136.687,131.064 136.687,126.95 Q136.687,123.788 134.681,121.833 Q132.674,119.878 128.9,119.878 Q125.875,119.878 123.937,121.442 Q121.999,123.006 120.809,125.284 L123.971,126.984 Q124.719,125.522 125.841,124.502 Q126.963,123.482 128.799,123.482 Q130.805,123.482 131.808,124.485 Q132.811,125.488 132.811,127.392 Q132.811,128.956 131.74,130.792 Q130.669,132.628 129.071,134.77 z M144.337,152.654 Q145.629,152.008 147.686,149.577 Q149.743,147.146 151.375,143.1 Q153.007,139.054 153.007,133.92 Q153.007,128.786 151.375,124.74 Q149.743,120.694 147.702,118.263 Q145.663,115.832 144.337,115.152 L142.365,117.396 Q143.997,118.586 145.646,120.881 Q147.295,123.176 148.434,126.525 Q149.573,129.874 149.573,133.92 Q149.573,137.966 148.451,141.298 Q147.329,144.63 145.68,146.925 Q144.031,149.22 142.365,150.444 z M173.645,145.786 Q176.704,145.786 178.915,144.698 Q181.124,143.61 182.281,141.689 Q183.436,139.768 183.436,137.32 Q183.436,135.45 182.553,133.903 Q181.669,132.356 180.02,131.404 Q178.37,130.452 176.229,130.384 L183.301,120.286 L167.15,120.286 L167.15,123.618 L176.535,123.618 L170.279,133.342 Q171.57,133.138 173.441,133.138 Q176.126,133.138 177.708,134.362 Q179.288,135.586 179.288,137.592 Q179.288,142.318 173.475,142.318 Q171.842,142.318 170.279,141.723 Q168.714,141.128 167.695,140.312 L166.096,143.542 Q167.083,144.528 169.275,145.157 Q171.469,145.786 173.645,145.786 z M196.9,132.798 Q194.928,132.798 193.568,131.54 Q192.208,130.282 192.208,128.072 Q192.208,125.93 193.517,124.553 Q194.826,123.176 197.002,123.176 Q199.008,123.176 200.334,124.553 Q201.66,125.93 201.66,128.106 Q201.66,130.282 200.317,131.54 Q198.974,132.798 196.9,132.798 z M193.534,145.276 L197.954,145.276 Q201.49,139.156 203.088,136.028 Q204.686,132.9 205.128,131.37 Q205.57,129.84 205.57,128.208 Q205.57,125.692 204.465,123.788 Q203.36,121.884 201.456,120.881 Q199.552,119.878 197.24,119.878 Q194.588,119.878 192.565,120.898 Q190.542,121.918 189.42,123.771 Q188.298,125.624 188.298,128.038 Q188.298,130.282 189.267,132.118 Q190.236,133.954 191.987,135.008 Q193.738,136.062 195.982,136.062 Q198.362,136.062 199.62,134.94 Q199.28,135.348 198.668,136.368 Q198.056,137.388 197.92,137.626 z M217.267,145.786 Q220.327,145.786 222.537,144.698 Q224.747,143.61 225.903,141.689 Q227.059,139.768 227.059,137.32 Q227.059,135.45 226.175,133.903 Q225.291,132.356 223.642,131.404 Q221.993,130.452 219.851,130.384 L226.923,120.286 L210.773,120.286 L210.773,123.618 L220.157,123.618 L213.901,133.342 Q215.193,133.138 217.063,133.138 Q219.749,133.138 221.33,134.362 Q222.911,135.586 222.911,137.592 Q222.911,142.318 217.097,142.318 Q215.465,142.318 213.901,141.723 Q212.337,141.128 211.317,140.312 L209.719,143.542 Q210.705,144.528 212.898,145.157 Q215.091,145.786 217.267,145.786 z M233.246,138.374 L244.908,138.374 L244.908,135.11 L233.246,135.11 z M259.596,142.454 Q257.421,142.454 256.111,141.179 Q254.802,139.904 254.802,137.966 Q254.802,135.96 256.163,134.719 Q257.522,133.478 259.596,133.478 Q261.637,133.478 262.996,134.753 Q264.357,136.028 264.357,137.966 Q264.357,139.904 263.047,141.179 Q261.738,142.454 259.596,142.454 z M259.596,130.214 Q257.965,130.214 256.91,129.126 Q255.856,128.038 255.856,126.474 Q255.856,124.876 256.876,123.873 Q257.896,122.87 259.596,122.87 Q261.262,122.87 262.283,123.873 Q263.302,124.876 263.302,126.474 Q263.302,128.004 262.215,129.109 Q261.126,130.214 259.596,130.214 z M259.596,145.786 Q261.943,145.786 263.931,144.834 Q265.921,143.882 267.077,142.131 Q268.232,140.38 268.232,138.068 Q268.232,135.688 267.042,134.141 Q265.853,132.594 264.051,131.812 Q265.444,131.03 266.311,129.721 Q267.178,128.412 267.178,126.576 Q267.178,124.57 266.193,123.057 Q265.206,121.544 263.473,120.711 Q261.738,119.878 259.596,119.878 Q257.454,119.878 255.72,120.711 Q253.986,121.544 253,123.074 Q252.014,124.604 252.014,126.644 Q252.014,128.31 252.847,129.653 Q253.68,130.996 255.007,131.778 Q253.238,132.526 252.099,134.09 Q250.96,135.654 250.96,138.068 Q250.96,140.38 252.117,142.131 Q253.272,143.882 255.244,144.834 Q257.216,145.786 259.596,145.786 z M280.03,145.786 Q283.09,145.786 285.3,144.698 Q287.51,143.61 288.666,141.689 Q289.822,139.768 289.822,137.32 Q289.822,135.45 288.938,133.903 Q288.054,132.356 286.405,131.404 Q284.756,130.452 282.614,130.384 L289.686,120.286 L273.536,120.286 L273.536,123.618 L282.92,123.618 L276.664,133.342 Q277.956,133.138 279.826,133.138 Q282.512,133.138 284.093,134.362 Q285.674,135.586 285.674,137.592 Q285.674,142.318 279.86,142.318 Q278.228,142.318 276.664,141.723 Q275.1,141.128 274.08,140.312 L272.482,143.542 Q273.468,144.528 275.661,145.157 Q277.854,145.786 280.03,145.786 z M301.689,145.786 Q304.749,145.786 306.959,144.698 Q309.169,143.61 310.325,141.689 Q311.481,139.768 311.481,137.32 Q311.481,135.45 310.597,133.903 Q309.713,132.356 308.064,131.404 Q306.415,130.452 304.273,130.384 L311.345,120.286 L295.195,120.286 L295.195,123.618 L304.579,123.618 L298.323,133.342 Q299.615,133.138 301.485,133.138 Q304.171,133.138 305.752,134.362 Q307.333,135.586 307.333,137.592 Q307.333,142.318 301.519,142.318 Q299.887,142.318 298.323,141.723 Q296.759,141.128 295.739,140.312 L294.141,143.542 Q295.127,144.528 297.32,145.157 Q299.513,145.786 301.689,145.786 z M325.046,142.454 Q323.04,142.454 321.697,141.094 Q320.354,139.734 320.354,137.66 Q320.354,135.382 321.663,134.056 Q322.972,132.73 325.148,132.73 Q327.12,132.73 328.395,134.039 Q329.67,135.348 329.67,137.592 Q329.67,139.734 328.429,141.094 Q327.188,142.454 325.046,142.454 z M324.808,145.786 Q327.358,145.786 329.347,144.783 Q331.336,143.78 332.458,141.842 Q333.58,139.904 333.58,137.252 Q333.58,135.178 332.645,133.393 Q331.71,131.608 329.976,130.537 Q328.242,129.466 325.998,129.466 Q324.808,129.466 323.89,129.772 Q322.972,130.078 322.428,130.588 Q322.53,130.486 322.666,130.248 Q322.802,130.01 322.938,129.772 Q324.876,126.372 328.208,121.34 L324.944,119.436 Q321.068,125.828 319.3,129.058 Q317.532,132.288 316.988,134.005 Q316.444,135.722 316.444,137.49 Q316.444,140.006 317.549,141.893 Q318.654,143.78 320.575,144.783 Q322.496,145.786 324.808,145.786 z" fill="#000000"/>
  </g>
</svg>
