<svg xmlns="http://www.w3.org/2000/svg" viewBox="0 0 230.4 151.2" height="1em" width="1em" class="plasmic-default__svg plasmic__default_style-module--all--NwouX PlasmicHeaderNav-module--svg__ohNq7--1cB2a" role="img" style="fill: currentcolor;"><path d="M139.339 109.001c-.831.802-1.498 1.797-1.853 2.912a6.225 6.225 0 00-.305 1.721c-.008.163-.005.33.007.499a17.785 17.785 0 00-1.773-1.907c-1.967-1.828-4.323-3.207-6.835-4.123a21.701 21.701 0 00-2.404-.721l15.922-.149a8.66 8.66 0 00-2.759 1.768m-10.884 8.008c-.178-4.41-3.047-8.127-6.994-9.57 2.348.056 4.688.485 6.893 1.288 2.434.887 4.714 2.223 6.61 3.985 1.308 1.217 2.437 2.637 3.283 4.205zm-2.796-73.391c.81-.209 1.609-.465 2.39-.766 2.494-.963 4.824-2.386 6.757-4.249a18.062 18.062 0 001.736-1.94c-.008.168-.008.335.003.498.028.584.147 1.163.337 1.715.376 1.109 1.062 2.091 1.907 2.877a8.655 8.655 0 002.791 1.716zm2.098-9.668l9.792-.091c-.817 1.584-1.919 3.024-3.203 4.266-1.863 1.797-4.118 3.175-6.535 4.108a21.7 21.7 0 01-6.867 1.416c3.919-1.516 6.718-5.286 6.813-9.699m96.132 39.767l-.213-22.885-.332.003c-4.3.041-7.831-3.425-7.871-7.724l-.003-.332-11.588.108-55.259.516a4.496 4.496 0 001.369-1.05 3.949 3.949 0 00.819-1.485l35.594-.333a.93.93 0 10-.006-.663l-36.143.337-.038.285c-.004.029-.445 2.898-4.811 2.939l-.31.003c-2.134.025-4.296-.724-5.857-2.169-.774-.721-1.394-1.612-1.731-2.607a5.559 5.559 0 01-.302-1.536c-.004-.13-.015-.264-.005-.386l.008-.187.027-.186c.011-.124.052-.243.078-.365a3.97 3.97 0 01.127-.351c.392-.918 1.268-1.62 2.258-1.77.062-.008.123-.022.185-.028l.187-.011.093-.006.089.004c.058.002.117.004.175.015a1.83 1.83 0 011.576 1.645c.007.121.015.228-.007.331a1.067 1.067 0 01-1.119.89.58.58 0 01-.245-.089.595.595 0 01-.203-.239c.012.01.022.021.034.03a.493.493 0 00.297.101.582.582 0 00.577-.522c.002-.02.002-.041.002-.061l-.002-.049a.714.714 0 00-.616-.653c-.032-.005-.064-.005-.096-.006l-.082.004a.92.92 0 00-.831 1.005c.024.38.24.738.555.944.159.104.342.17.529.193.197.023.354.001.526-.032a1.74 1.74 0 00.88-.501c.235-.249.396-.569.449-.908.032-.171.023-.343.012-.497a2.495 2.495 0 00-.81-1.62l7.585-.071a.928.928 0 001.734-.017l3.242-.03a.93.93 0 10-.007-.663l-3.241.03a.93.93 0 00-1.734.016l-10.835.101a14.997 14.997 0 00.929-2.991l.005.001.006-.055c.145-.738.235-1.488.258-2.241.06-1.342-.143-2.756-.723-3.999-.154-.307-.293-.622-.486-.906-.094-.145-.175-.296-.278-.433l-.312-.41c-.099-.14-.218-.264-.335-.39-.117-.124-.231-.254-.352-.374l-.384-.343c-.065-.056-.127-.115-.194-.17l-.207-.152-.415-.304-.442-.264-.221-.131c-.075-.041-.155-.074-.232-.112l-.466-.219c-.638-.249-1.297-.459-1.979-.544-.17-.022-.339-.055-.51-.066l-.514-.021-.257-.011-.262.015-.263.016c-.087.006-.173.025-.259.038a5.423 5.423 0 00-1.968.704 5.484 5.484 0 00-2.654 4.303c-.003.176-.022.348-.012.528l.016.271c.011.09.027.179.041.269a3.658 3.658 0 002.864 2.925c.089.019.179.028.269.042l.134.018.135.006c.092.002.179.011.274.007.094-.008.189-.006.283-.024.376-.054.74-.195 1.054-.407.626-.429 1.048-1.154 1.08-1.917a1.735 1.735 0 00-.31-1.145 1.734 1.734 0 00-1.287-.728c-.051-.002-.101-.005-.153-.005-.056.004-.112.004-.168.015a1.237 1.237 0 00-1.047 1.154l-.003.084.006.096a.932.932 0 00.553.739.902.902 0 00.377.073.712.712 0 00.696-.647c.002-.038.005-.073 0-.125a.578.578 0 00-.596-.52.473.473 0 00-.324.141.609.609 0 01.157-.213.583.583 0 01.282-.126c.025-.006.052-.005.078-.007l.094.003a1.065 1.065 0 01.983 1.174 1.831 1.831 0 01-.792 1.406 1.862 1.862 0 01-1.201.31l-.112-.005-.109-.015c-.074-.012-.148-.018-.22-.034a3.159 3.159 0 01-.832-.304 3.097 3.097 0 01-.706-.536 2.982 2.982 0 01-.806-1.555c-.064-.289-.05-.59-.036-.901a4.815 4.815 0 012.332-3.78 4.768 4.768 0 011.727-.619c.076-.01.152-.029.229-.033l.23-.014.231-.013.237.01.473.019c.158.01.313.042.469.061 1.483.198 2.872.885 3.976 1.886a1.166 1.166 0 00-.646.276 1.243 1.243 0 00-.343 1.317l.077.226.239-.002c.394-.003.893.306 1.368.85.926 1.059 1.877 3.176 1.539 5.678a14.517 14.517 0 01-1.013 3.157l-10.779.101.003.332a9.928 9.928 0 01-2.209 6.348.71.71 0 00-1.2-.13l-.02-.026c-.483-.56-1.212-.754-1.814-.482l-.217.098.023.236c.147 1.509-2.17 3.582-4.508 4.034l.063.326.003.331.761-.007 27.127-.253h.002l58.782-.55 10.932-.102c.211 4.401 3.794 7.918 8.198 8.047l.208 22.228a.93.93 0 00-.59.873.93.93 0 00.606.862l.208 22.228c-4.401.211-7.918 3.795-8.047 8.199l-11.01.103-86.095.804-.577.006.003.331-.057.327c2.346.408 4.701 2.438 4.582 3.949l-.018.237.218.093c.18.077.369.114.559.112.454-.005.913-.226 1.247-.627l.019-.026a.711.711 0 001.198-.153 9.934 9.934 0 012.327 6.306l.003.331 10.779-.1c.235.493.443.999.619 1.518a14.2 14.2 0 01.453 1.62c.385 2.495-.527 4.63-1.433 5.705-.465.553-.958.872-1.351.875l-.239.003-.074.227c-.15.466.001 1.005.367 1.311.131.109.344.235.651.263-1.084 1.022-2.46 1.735-3.939 1.96-.156.023-.311.057-.468.071l-.472.028-.237.014-.231-.009-.231-.009c-.077-.004-.152-.021-.229-.03a4.748 4.748 0 01-1.738-.586 4.82 4.82 0 01-2.232-2.83 4.81 4.81 0 01-.17-.906c-.021-.311-.04-.611.019-.902a2.986 2.986 0 011.473-2.118c.259-.143.536-.254.825-.32.072-.017.146-.024.219-.038l.11-.017.111-.006a1.863 1.863 0 011.207.287c.465.308.785.832.818 1.391a1.08 1.08 0 01-.176.728 1.07 1.07 0 01-.785.464l-.094.005c-.026-.002-.052 0-.078-.006a.577.577 0 01-.284-.121.591.591 0 01-.161-.21.473.473 0 00.326.135.581.581 0 00.586-.531c.005-.052.001-.087-.002-.125a.713.713 0 00-.708-.634.917.917 0 00-.914.829c-.003.032-.004.064-.005.096l.005.085a1.245 1.245 0 00.456.871c.176.14.389.235.613.263.056.009.112.009.168.012.052-.002.102-.005.152-.009a1.73 1.73 0 001.562-1.902 2.493 2.493 0 00-1.115-1.896 2.516 2.516 0 00-1.062-.387c-.093-.018-.189-.013-.284-.019-.094-.003-.181.008-.272.012l-.136.008-.134.021c-.089.016-.179.026-.268.047a3.826 3.826 0 00-1.009.391 3.657 3.657 0 00-1.799 2.588c-.012.089-.027.179-.037.269l-.011.271c-.006.18.016.351.023.527a5.479 5.479 0 002.734 4.253 5.417 5.417 0 001.979.668c.087.011.174.029.261.033l.263.011.262.009.257-.015.513-.031c.171-.014.339-.05.509-.075.68-.098 1.336-.32 1.969-.581l.462-.228c.076-.039.155-.074.229-.116l.219-.135.437-.272.409-.312.205-.156c.065-.056.126-.116.19-.174l.377-.349c.12-.123.23-.255.346-.382.114-.127.231-.253.327-.396l.304-.414c.101-.14.18-.293.27-.439.188-.288.321-.605.469-.915.558-1.254.733-2.671.648-4.012a13.77 13.77 0 00-.299-2.234l-.007-.056h-.005a15.204 15.204 0 00-.985-2.973l10.834-.102a.928.928 0 001.735-.016l3.242-.03a.93.93 0 10-.006-.663l-3.242.03a.93.93 0 00-1.735.016l-7.585.071a2.494 2.494 0 00.78-1.635 1.905 1.905 0 00-.022-.496 1.719 1.719 0 00-.465-.9 1.738 1.738 0 00-.89-.485 1.653 1.653 0 00-.525-.023 1.242 1.242 0 00-1.063 1.158.909.909 0 00.029.309.916.916 0 00.821.681l.081.002c.032-.001.065-.002.096-.008a.725.725 0 00.351-.158.717.717 0 00.253-.507l.001-.049-.003-.06a.586.586 0 00-.587-.511.487.487 0 00-.294.106c-.012.009-.023.02-.034.031a.601.601 0 01.198-.243.583.583 0 01.243-.093c.079-.013.201-.003.301.015a1.07 1.07 0 01.835.853c.023.103.018.21.012.331a1.83 1.83 0 01-1.719 1.692l-.088.006-.094-.005-.187-.007c-.062-.004-.123-.017-.185-.024-.992-.132-1.882-.818-2.291-1.728a3.858 3.858 0 01-.133-.349c-.029-.121-.072-.239-.086-.363l-.03-.185-.011-.187c-.013-.121-.004-.256-.003-.386a5.57 5.57 0 01.274-1.541c.318-1.001.921-1.904 1.682-2.639 1.534-1.474 3.682-2.264 5.816-2.278l.31-.003c4.338-.041 4.845 2.732 4.864 2.849l.044.283 36.142-.337a.928.928 0 10-.006-.664l-35.594.333a3.936 3.936 0 00-.846-1.47 4.502 4.502 0 00-1.389-1.024l55.26-.517 11.666-.109-.003-.331c-.041-4.3 3.425-7.831 7.725-7.871l.331-.003-.213-22.885a.93.93 0 00-.017-1.735m2.387 24.6a2.159 2.159 0 01-2.137 2.175l-.331.004a5.648 5.648 0 00-5.589 5.694l.003.332a2.158 2.158 0 01-2.136 2.176l-25.223.236.042.366a3.088 3.088 0 01-3.037 3.438 3.07 3.07 0 01-1.74-.523l-.085-.057-35.19.329a2.168 2.168 0 01-2.15-1.825l-.029-.184-.017-.064c-.094-.254-.567-1.08-2.712-1.06l-.325.003c-1.404.013-2.755.452-3.807 1.236l-.687.512.853.084a4.549 4.549 0 01.412.06 3.872 3.872 0 011.998 1.093c.53.541.899 1.248 1.039 1.997l.015.077.049.277 3.672-.034.084-.059a3.074 3.074 0 011.731-.556 3.074 3.074 0 011.741.524l.084.057 1.336-.012.084-.059a3.064 3.064 0 011.731-.556 3.089 3.089 0 013.114 3.056 3.09 3.09 0 01-3.057 3.115 3.063 3.063 0 01-1.74-.524l-.085-.057-1.336.013-.084.058a3.063 3.063 0 01-3.471.033l-.085-.057-6.887.064.084.397c.007.035.014.071.021.119l.004.023c.175.83.284 1.663.325 2.477.112 1.802-.175 3.534-.831 5.008l-.023.05-.08.171c-.128.274-.286.616-.515.973l-.051.085c-.069.12-.164.283-.291.459l-.298.406c-.161.231-.321.409-.449.552l-.027.03a7.957 7.957 0 00-.11.123c-.097.109-.194.218-.296.323l-.08.078-.44.408c-.064.059-.128.119-.195.175l-.088.072-.618.47c-.054.041-.11.08-.167.115l-.66.41-.066.04a4.404 4.404 0 01-.276.143l-.531.262a2.188 2.188 0 01-.131.059c-.925.382-1.715.611-2.484.722l-.1.016-.024.004a5.453 5.453 0 01-.508.07l-.828.05a1.989 1.989 0 01-.204.002l-.536-.021c-.181-.009-.314-.029-.404-.042l-.035-.006a7.661 7.661 0 01-2.784-.936 7.65 7.65 0 01-3.191-3.54l-.186-.419-.453.408a2.146 2.146 0 01-.116.098 7.484 7.484 0 01-.286.209l-.076.054-.075.052-.022.016a3.461 3.461 0 01-.468.297l-.323.177a7.55 7.55 0 01-2.121.73l-.377.072.125.362a9.71 9.71 0 01.529 3.063c.042 4.428-3.254 9.933-3.629 10.546l-.278.452a2.145 2.145 0 01-1.818 1.029 2.142 2.142 0 01-1.836-.995l-.286-.447c-.387-.605-3.785-6.049-3.826-10.476a9.687 9.687 0 01.472-3.07l.118-.365-.379-.064a7.572 7.572 0 01-2.143-.692l-.333-.174a3.535 3.535 0 01-.47-.286l-.031-.022a1.969 1.969 0 01-.067-.045l-.077-.052a7.426 7.426 0 01-.288-.203 2.13 2.13 0 01-.118-.095l-.513-.446-.176.426a7.655 7.655 0 01-3.15 3.647 7.61 7.61 0 01-2.743.981l-.051.008c-.088.015-.221.038-.385.049l-.552.032a2.29 2.29 0 01-.203.002l-.776-.032-.053-.003a5.646 5.646 0 01-.511-.06l-.022-.004-.105-.015c-.769-.096-1.561-.31-2.494-.674a3.753 3.753 0 01-.132-.057l-.536-.252a5.525 5.525 0 01-.278-.138l-.067-.038-.667-.398a1.901 1.901 0 01-.169-.112l-.627-.459a2.148 2.148 0 01-.09-.07c-.067-.055-.132-.113-.199-.172l-.447-.4a1.455 1.455 0 01-.081-.076 9.208 9.208 0 01-.311-.327l-.103-.111-.031-.034a5.538 5.538 0 01-.46-.544l-.302-.396a5.451 5.451 0 01-.299-.453l-.057-.092c-.23-.344-.395-.683-.528-.956l-.084-.17a.734.734 0 01-.023-.049c-.683-1.461-1.004-3.187-.925-4.995.026-.811.119-1.645.278-2.479l.006-.037.017-.105.077-.398-6.887.064-.084.059a3.066 3.066 0 01-3.472.032l-.085-.057-1.335.013-.084.058a3.056 3.056 0 01-1.731.556 3.089 3.089 0 01-3.114-3.056 3.089 3.089 0 013.056-3.115 3.07 3.07 0 011.741.524l.085.057 1.336-.012.084-.059a3.063 3.063 0 013.471-.032l.085.057 3.673-.035.057-.359a3.92 3.92 0 011.007-2.019 3.859 3.859 0 011.971-1.123l.074-.016c.126-.023.233-.04.338-.052l.85-.101-.695-.498c-1.064-.765-2.423-1.178-3.84-1.165l-.315.003c-2.123.02-2.599.867-2.693 1.126l-.04.234a2.168 2.168 0 01-2.116 1.864l-35.19.329-.084.058a3.07 3.07 0 01-1.73.557 3.089 3.089 0 01-3.1-3.382l.035-.366-25.144.235a2.16 2.16 0 01-2.177-2.136l-.003-.332a5.648 5.648 0 00-5.694-5.589l-.332.003a2.158 2.158 0 01-2.176-2.136l-.444-47.504a2.158 2.158 0 012.136-2.176l.331-.004a5.647 5.647 0 005.589-5.694l-.003-.332a2.159 2.159 0 012.136-2.176l25.223-.236-.041-.366a3.09 3.09 0 013.036-3.438 3.064 3.064 0 011.741.524l.085.057 35.189-.329a2.168 2.168 0 012.151 1.824l.028.184.017.065c.094.253.567 1.079 2.713 1.059l.324-.002c1.404-.013 2.756-.453 3.807-1.237l.686-.511-.851-.084a5.22 5.22 0 01-.412-.061 3.875 3.875 0 01-2-1.093 3.908 3.908 0 01-1.038-1.996l-.063-.355-3.673.034-.084.059a3.06 3.06 0 01-3.471.032l-.085-.056-1.336.012-.084.058a3.073 3.073 0 01-1.731.557 3.09 3.09 0 01-3.114-3.057 3.09 3.09 0 013.057-3.115 3.08 3.08 0 011.741.524l.085.057 1.335-.012.084-.059a3.064 3.064 0 013.472-.032l.085.057 6.888-.065-.085-.397c-.007-.03-.012-.06-.018-.094l-.008-.047a15.978 15.978 0 01-.325-2.477c-.112-1.803.176-3.534.832-5.009l.103-.221a7.9 7.9 0 01.513-.97l.045-.076.009-.016c.069-.118.164-.28.288-.452l.01-.016.289-.393c.161-.231.326-.414.447-.548l.139-.157c.097-.108.194-.217.296-.322.026-.027.053-.053.08-.078l.44-.408a6.483 6.483 0 01.284-.248l.617-.47c.054-.041.11-.079.167-.115l.661-.41.065-.039c.09-.051.182-.098.276-.144l.531-.261c.043-.022.087-.042.131-.06.926-.382 1.715-.611 2.485-.722l.121-.02c.13-.022.308-.052.512-.07l.826-.05c.068-.004.137-.004.204-.002l.536.021c.183.009.322.03.405.043l.035.005a7.663 7.663 0 012.784.937 7.64 7.64 0 013.191 3.54l.185.419.453-.409c.038-.034.077-.067.117-.099.092-.072.188-.139.285-.208l.077-.054.073-.052.023-.016c.094-.069.251-.184.469-.297l.322-.176a7.537 7.537 0 012.122-.731l.376-.071-.124-.363a9.706 9.706 0 01-.53-3.062c-.042-4.431 3.254-9.934 3.63-10.547l.277-.451a2.142 2.142 0 011.818-1.029 2.144 2.144 0 011.837.994l.285.447c.388.606 3.785 6.046 3.826 10.477a9.695 9.695 0 01-.472 3.07l-.117.365.378.064a7.547 7.547 0 012.144.692l.333.173c.213.107.372.219.468.286l.033.023.066.044.077.052c.098.066.195.133.288.203.041.031.08.063.118.096l.513.445.176-.426a7.662 7.662 0 013.151-3.647 7.596 7.596 0 012.742-.98l.049-.008a3.44 3.44 0 01.387-.049l.551-.032c.069-.004.138-.005.205-.002l.776.032.053.003c.201.013.38.04.512.06l.021.003.106.015c.768.096 1.559.31 2.492.675.045.017.088.036.132.057l.537.252c.094.043.186.088.278.138l.065.037.669.398c.058.035.114.072.169.112l.626.459c.03.023.061.046.09.071.068.055.133.113.2.173l.445.397.083.077c.103.103.202.21.301.318l.143.153c.123.132.291.312.461.546l.301.396c.13.173.229.335.308.466l.049.078c.229.344.394.682.526.954l.084.169.025.052c.683 1.461 1.003 3.187.924 4.994a16.034 16.034 0 01-.279 2.488l-.003.022a3.73 3.73 0 01-.019.112l-.077.398 6.888-.064.084-.058a3.064 3.064 0 011.73-.557 3.08 3.08 0 011.741.524l.085.057 1.335-.012.085-.059a3.07 3.07 0 011.73-.556 3.088 3.088 0 013.114 3.057 3.089 3.089 0 01-3.056 3.114 3.064 3.064 0 01-1.741-.524l-.085-.057-1.335.013-.084.058a3.075 3.075 0 01-1.731.557 3.073 3.073 0 01-1.741-.525l-.085-.056-3.674.034-.042.279-.014.082a3.92 3.92 0 01-1.006 2.016 3.85 3.85 0 01-2.384 1.193l-.85.1.695.499c1.064.764 2.423 1.178 3.841 1.164l.314-.003c2.124-.02 2.599-.866 2.694-1.126l.039-.233a2.17 2.17 0 012.116-1.865l35.189-.329.085-.058a3.06 3.06 0 011.73-.556 3.089 3.089 0 013.101 3.381l-.035.366 25.144-.235a2.159 2.159 0 012.176 2.136l.003.332a5.648 5.648 0 005.694 5.589l.332-.003a2.16 2.16 0 012.177 2.136zm-2.627-50.304l-.332.003a4.984 4.984 0 01-5.024-4.932l-.004-.332a2.82 2.82 0 00-2.845-2.793l-24.426.228v-.027a3.754 3.754 0 00-3.784-3.714 3.729 3.729 0 00-2.017.617l-34.987.327a2.835 2.835 0 00-2.767 2.438l-.017.122c-.115.238-.671.651-2.065.664l-.33.003a5.976 5.976 0 01-2.738-.621 4.502 4.502 0 001.942-1.217 4.593 4.593 0 001.14-2.174l2.916-.027a3.722 3.722 0 004.045-.038l.931-.008a3.73 3.73 0 002.028.578 3.754 3.754 0 003.714-3.784 3.752 3.752 0 00-3.784-3.713 3.722 3.722 0 00-2.017.616l-.931.009a3.722 3.722 0 00-4.045.038l-5.881.055a16.43 16.43 0 00.243-2.325c.083-1.91-.258-3.742-.985-5.299l-.033-.068c-.028-.054-.054-.109-.081-.164a8.31 8.31 0 00-.567-1.024l-.045-.074a6.11 6.11 0 00-.336-.506l-.3-.394a6.028 6.028 0 00-.509-.603l-.139-.15a10.2 10.2 0 00-.323-.34 3.335 3.335 0 00-.107-.1l-.446-.398a5.042 5.042 0 00-.34-.284l-.626-.459a3.04 3.04 0 00-.222-.147l-.669-.398a5.621 5.621 0 00-.402-.206l-.535-.252a2.997 2.997 0 00-.173-.074c-.985-.385-1.827-.612-2.651-.715a2.323 2.323 0 01-.088-.013l-.023-.003a6.263 6.263 0 00-.636-.07l-.776-.032a2.684 2.684 0 00-.269.002l-.556.032a4.348 4.348 0 00-.459.058l-.032.005a8.276 8.276 0 00-2.985 1.067 8.323 8.323 0 00-3.242 3.555c-.095-.071-.194-.138-.291-.204l-.074-.051a4.437 4.437 0 00-.072-.048l-.022-.015a4.052 4.052 0 00-.548-.334l-.335-.174a8.085 8.085 0 00-1.964-.684c.272-.958.405-1.938.396-2.922-.043-4.616-3.533-10.205-3.931-10.827l-.285-.447a2.805 2.805 0 00-2.402-1.301 2.803 2.803 0 00-2.378 1.346l-.277.451c-.386.63-3.771 6.284-3.727 10.9.009.984.16 1.963.45 2.916a8.12 8.12 0 00-1.942.719l-.324.176a4.174 4.174 0 00-.547.347l-.011.009a1.848 1.848 0 00-.08.055l-.074.052c-.08.057-.16.114-.239.173a8.314 8.314 0 00-3.28-3.451 8.317 8.317 0 00-3.02-1.017l-.028-.004a4.425 4.425 0 00-.476-.05l-.539-.021a3.013 3.013 0 00-.269.003l-.773.046c-.025.002-.049.003-.071.006-.231.019-.433.054-.581.079l-.091.015c-.825.118-1.664.362-2.642.765-.058.024-.115.05-.171.078l-.53.261a5.213 5.213 0 00-.399.214l-.661.411a2.52 2.52 0 00-.219.151l-.617.47a5.533 5.533 0 00-.334.289l-.439.407a2.55 2.55 0 00-.105.103 9.735 9.735 0 00-.316.345l-.137.153a5.983 5.983 0 00-.493.605l-.283.387-.015.02a6.113 6.113 0 00-.324.509l-.009.015-.032.056c-.248.386-.417.751-.553 1.043l-.077.165a1.245 1.245 0 00-.03.066c-.699 1.571-1.006 3.41-.888 5.315.038.765.135 1.549.286 2.322l-5.88.055a3.73 3.73 0 00-4.046.038l-.93.009a3.722 3.722 0 00-2.028-.579 3.753 3.753 0 00-3.714 3.784 3.754 3.754 0 003.784 3.714 3.726 3.726 0 002.016-.617l.931-.008a3.739 3.739 0 002.028.579 3.732 3.732 0 002.018-.617l2.915-.027a4.578 4.578 0 001.176 2.146c.546.56 1.22.966 1.968 1.186a6.024 6.024 0 01-2.746.672l-.309.003c-1.408.013-1.962-.375-2.073-.602l-.022-.145a2.836 2.836 0 00-2.813-2.386l-34.987.327a3.73 3.73 0 00-2.028-.578 3.752 3.752 0 00-3.714 3.783v.028l-24.504.229a2.822 2.822 0 00-2.793 2.845l.003.332a4.985 4.985 0 01-4.932 5.025l-.331.003a2.824 2.824 0 00-2.794 2.846l.444 47.505a2.824 2.824 0 002.846 2.793l.332-.004a4.984 4.984 0 015.024 4.932l.004.332a2.822 2.822 0 002.846 2.793l24.425-.228v.027a3.754 3.754 0 003.784 3.714 3.723 3.723 0 002.017-.617l34.987-.327a2.834 2.834 0 002.767-2.438l.017-.122c.116-.238.671-.65 2.065-.663l.33-.003c.973-.01 1.92.208 2.738.62a4.496 4.496 0 00-1.94 1.217 4.592 4.592 0 00-1.142 2.174l-2.916.027a3.735 3.735 0 00-2.027-.579 3.732 3.732 0 00-2.018.617l-.93.009a3.723 3.723 0 00-2.029-.579 3.754 3.754 0 00-3.714 3.784 3.754 3.754 0 003.784 3.714 3.732 3.732 0 002.018-.617l.93-.009a3.723 3.723 0 004.046-.037l5.88-.055a16.566 16.566 0 00-.243 2.323c-.083 1.911.258 3.744.986 5.3.01.023.021.045.032.066l.08.164c.142.291.318.652.568 1.026l.047.077c.079.129.187.306.334.503l.302.396c.188.259.372.456.508.603l.03.032.243-.227-.229.242.097.104c.104.114.211.228.321.337.035.035.071.069.107.101l.446.399c.073.064.145.128.221.19.038.031.077.062.117.091l.628.46c.07.052.145.102.221.147l.668.398.088.05c.09.049.188.098.316.158l.534.25c.057.027.114.052.173.075.985.385 1.828.612 2.652.715.03.003.059.008.089.012l.022.004c.133.02.335.051.566.066l.07.004.775.031c.09.004.179.003.27-.002l.555-.032c.2-.013.359-.041.46-.058l.032-.005a8.284 8.284 0 002.984-1.067 8.32 8.32 0 003.242-3.554c.096.07.194.138.292.204l.074.05.073.049.02.014c.103.073.296.208.549.334l.335.175c.61.306 1.269.536 1.963.684a10.289 10.289 0 00-.395 2.921c.043 4.613 3.533 10.205 3.93 10.828l.286.446a2.802 2.802 0 002.402 1.301 2.804 2.804 0 002.377-1.345l.277-.453c.386-.629 3.771-6.285 3.728-10.898a10.328 10.328 0 00-.451-2.916 8.14 8.14 0 001.941-.719l.325-.177c.256-.134.445-.272.547-.347l.011-.008c.027-.018.055-.037.08-.056l.074-.052c.081-.056.161-.114.24-.173a8.302 8.302 0 003.28 3.451 8.317 8.317 0 003.02 1.017l.031.005c.095.014.255.039.471.049l.54.021c.09.003.179.002.269-.003l.775-.046.07-.005c.23-.02.431-.054.564-.077l.023-.003.084-.015c.825-.118 1.664-.361 2.642-.765.058-.024.115-.049.171-.077l.529-.26c.127-.062.224-.113.314-.164.029-.017.059-.034.087-.052l.66-.41c.075-.047.149-.098.219-.151l.618-.471c.04-.03.079-.062.117-.094a8 8 0 00.215-.194l.439-.407a2.6 2.6 0 00.107-.103c.108-.112.213-.228.321-.352l.1-.111.028-.032a5.93 5.93 0 00.496-.609l.297-.405c.145-.201.249-.38.326-.512l.04-.069c.248-.386.418-.751.553-1.043l.077-.165c.011-.023.022-.045.031-.067.699-1.571 1.006-3.41.887-5.315a16.464 16.464 0 00-.286-2.322l5.881-.055a3.725 3.725 0 004.045-.038l.93-.009a3.723 3.723 0 002.029.579 3.753 3.753 0 003.714-3.784 3.754 3.754 0 00-3.784-3.714 3.726 3.726 0 00-2.017.617l-.931.009a3.722 3.722 0 00-4.045.037l-2.916.028a4.582 4.582 0 00-1.176-2.147 4.523 4.523 0 00-1.967-1.186 6.02 6.02 0 012.745-.672l.309-.003c1.408-.013 1.962.375 2.073.602l.023.145a2.836 2.836 0 002.813 2.386l34.986-.327a3.733 3.733 0 002.029.579 3.753 3.753 0 003.713-3.784v-.027l24.504-.229a2.822 2.822 0 002.793-2.846l-.003-.332a4.985 4.985 0 014.932-5.025l.332-.003a2.822 2.822 0 002.793-2.846l-.444-47.504a2.822 2.822 0 00-2.846-2.793M102.644 117.25l-9.793.091c.817-1.584 1.919-3.024 3.204-4.266 1.863-1.796 4.118-3.174 6.534-4.107a21.645 21.645 0 016.868-1.416c-3.92 1.515-6.719 5.285-6.813 9.698m-11.032-7.803a8.66 8.66 0 00-2.792-1.716l15.921-.149c-.81.21-1.608.465-2.39.766-2.493.963-4.824 2.386-6.757 4.25a17.872 17.872 0 00-1.736 1.94 4.366 4.366 0 00-.002-.499 6.234 6.234 0 00-.337-1.715c-.377-1.108-1.062-2.09-1.907-2.877m-.55-67.248c.83-.802 1.497-1.797 1.853-2.912a6.262 6.262 0 00.305-1.721c.007-.163.005-.33-.007-.498a18.073 18.073 0 001.772 1.907c1.967 1.827 4.324 3.206 6.835 4.122.787.287 1.59.527 2.404.721l-15.921.149a8.665 8.665 0 002.759-1.768m10.884-8.007c.177 4.41 3.046 8.127 6.993 9.569a21.66 21.66 0 01-6.892-1.288c-2.434-.887-4.715-2.223-6.611-3.984-1.307-1.218-2.436-2.638-3.282-4.206zm4.768 77.166l.021.025c.34.395.803.608 1.258.604.19-.002.378-.042.556-.122l.217-.097-.023-.237c-.147-1.508 2.17-3.582 4.507-4.034l-.062-.325-.003-.332-.762.007-85.911.803-10.931.102c-.211-4.401-3.795-7.918-8.199-8.047l-.208-22.228a.928.928 0 00-.016-1.735L6.95 53.514c4.401-.211 7.919-3.795 8.048-8.198l11.009-.103 58.783-.55h.002l27.311-.255.577-.005-.003-.332.057-.327c-2.346-.408-4.702-2.438-4.583-3.948l.019-.238-.219-.093c-.608-.261-1.333-.053-1.805.516l-.02.026a.712.712 0 00-1.197.152 9.934 9.934 0 01-2.328-6.305l-.003-.332-10.778.1a14.269 14.269 0 01-1.072-3.138c-.385-2.495.526-4.63 1.432-5.705.465-.553.958-.871 1.352-.875l.239-.002.073-.228c.151-.465 0-1.004-.367-1.311a1.166 1.166 0 00-.651-.263c1.084-1.022 2.46-1.735 3.939-1.96.156-.023.311-.057.468-.07l.473-.028.236-.015.231.009.231.01c.077.003.153.02.229.029a4.76 4.76 0 011.738.586 4.816 4.816 0 012.403 3.736c.02.311.039.611-.019.902a2.987 2.987 0 01-1.473 2.118 3.18 3.18 0 01-.826.32c-.072.017-.146.025-.218.038l-.11.017-.112.007a1.856 1.856 0 01-1.206-.287 1.832 1.832 0 01-.819-1.392 1.093 1.093 0 01.177-.728 1.064 1.064 0 01.784-.463l.094-.006c.026.003.053 0 .078.006a.582.582 0 01.284.121c.069.058.125.13.161.21a.47.47 0 00-.326-.135.581.581 0 00-.586.531c-.004.052-.001.087.002.126a.73.73 0 00.278.488.71.71 0 00.43.145.917.917 0 00.915-.829l.004-.096-.004-.084a1.253 1.253 0 00-.457-.872 1.244 1.244 0 00-.612-.262c-.056-.01-.112-.01-.168-.012-.053.001-.102.005-.153.008a1.729 1.729 0 00-1.562 1.902 2.493 2.493 0 001.115 1.896 2.52 2.52 0 001.062.387c.094.017.189.013.284.019.094.003.182-.008.273-.011l.135-.009.134-.021c.089-.015.18-.026.268-.046.354-.08.693-.216 1.01-.391.315-.179.598-.41.849-.67a3.643 3.643 0 00.949-1.918c.013-.09.027-.179.037-.269l.012-.271c.005-.181-.016-.352-.023-.528a5.48 5.48 0 00-2.734-4.253 5.44 5.44 0 00-1.98-.668c-.087-.01-.173-.028-.261-.032l-.262-.012-.263-.009-.256.015-.514.031c-.171.014-.339.051-.509.076-.68.097-1.335.319-1.969.581l-.462.227c-.076.039-.155.074-.229.116l-.219.136-.437.272-.409.311-.204.156c-.065.056-.127.116-.19.174l-.378.35c-.119.122-.23.254-.345.381-.115.128-.231.254-.328.396l-.304.415c-.1.139-.179.292-.27.438-.187.288-.321.605-.469.915-.557 1.254-.733 2.672-.647 4.013.036.752.14 1.499.299 2.234l.007.056.004-.001c.124.563.279 1.12.467 1.664.151.446.325.882.518 1.309l-10.834.102a.93.93 0 00-1.735.016l-3.241.03a.93.93 0 10.006.664l3.241-.031a.93.93 0 001.735-.016l7.585-.071a2.497 2.497 0 00-.78 1.635c-.008.155-.014.327.022.497a1.735 1.735 0 001.355 1.384c.173.03.33.049.526.023a1.243 1.243 0 001.063-1.157.925.925 0 00-.69-.964.861.861 0 00-.16-.026l-.082-.003c-.032.002-.064.003-.096.008a.71.71 0 00-.567.475.727.727 0 00-.037.19l-.001.049.004.06a.582.582 0 00.586.512.498.498 0 00.295-.107c.012-.009.022-.02.034-.031a.583.583 0 01-.199.243.593.593 0 01-.243.094 1.04 1.04 0 01-.848-.315 1.069 1.069 0 01-.288-.554c-.023-.102-.017-.21-.012-.331a1.841 1.841 0 01.887-1.439c.202-.12.426-.2.658-.235.057-.012.116-.015.174-.018l.088-.006.094.005.187.007c.062.004.124.017.186.025.992.131 1.881.817 2.29 1.727.052.113.094.231.133.349.029.121.072.239.086.363l.03.185.011.187c.013.122.004.256.003.386a5.584 5.584 0 01-.274 1.542c-.318 1-.921 1.903-1.681 2.639-1.535 1.473-3.682 2.263-5.816 2.278l-.31.003c-4.338.04-4.846-2.733-4.865-2.849l-.044-.284-36.142.338a.93.93 0 10.006.663l35.594-.333c.101.331.335.903.847 1.47.311.346.76.719 1.388 1.025l-55.259.516-11.666.109.003.332c.04 4.3-3.426 7.831-7.726 7.871l-.331.003.214 22.884a.93.93 0 00.016 1.735l.214 22.885.331-.003c4.3-.04 7.831 3.425 7.871 7.725l.003.332 11.588-.109 55.259-.516a4.494 4.494 0 00-1.369 1.051 3.941 3.941 0 00-.819 1.485l-35.593.332a.928.928 0 00-1.794.349.93.93 0 001.8.315l36.142-.338.039-.284c.004-.029.445-2.899 4.81-2.94l.31-.003c2.134-.025 4.296.724 5.857 2.169.775.721 1.394 1.613 1.731 2.607.171.495.277 1.013.302 1.536.004.13.016.265.005.386l-.008.188-.026.185c-.011.124-.053.243-.079.365a3.963 3.963 0 01-.126.351c-.392.918-1.269 1.62-2.258 1.77-.062.009-.123.023-.185.028l-.188.011-.093.006-.088-.004a1.78 1.78 0 01-.836-.238 1.833 1.833 0 01-.915-1.421 1.256 1.256 0 01.006-.332 1.067 1.067 0 011.12-.889c.087.01.171.041.245.088a.593.593 0 01.202.239c-.011-.01-.022-.021-.034-.03a.492.492 0 00-.297-.1.582.582 0 00-.579.582l.002.049a.72.72 0 00.263.502c.101.08.224.135.353.151.032.005.065.006.097.007l.081-.004a.92.92 0 00.831-1.006 1.239 1.239 0 00-1.084-1.137 1.614 1.614 0 00-.525.032 1.738 1.738 0 00-1.33 1.41 1.94 1.94 0 00-.012.497 2.481 2.481 0 00.811 1.62l-7.586.071a.927.927 0 00-1.734.016l-3.241.03a.929.929 0 10.006.663l3.241-.03a.93.93 0 00.873.59.931.931 0 00.862-.606l10.834-.101c-.185.431-.351.87-.493 1.318a14.898 14.898 0 00-.436 1.673h-.004l-.007.054a13.834 13.834 0 00-.257 2.241c-.06 1.342.142 2.756.723 4 .153.307.293.621.485.906.094.144.176.296.279.433l.311.409c.1.14.219.264.336.39.117.125.23.254.352.375l.384.342c.064.057.127.116.193.17l.207.152.415.304.442.264.222.131c.075.041.154.075.231.112l.466.219c.638.25 1.297.459 1.98.544.17.022.339.055.51.066l.513.022.257.01.263-.014.262-.016c.087-.006.173-.026.26-.038a5.42 5.42 0 001.967-.705 5.48 5.48 0 002.654-4.303c.004-.176.023-.348.013-.528l-.017-.271c-.011-.09-.027-.179-.041-.268a3.654 3.654 0 00-1.847-2.554 3.845 3.845 0 00-1.017-.372c-.088-.019-.179-.028-.268-.042l-.134-.018-.136-.006c-.091-.002-.179-.011-.273-.006-.095.007-.19.005-.284.024a2.517 2.517 0 00-1.054.407 2.494 2.494 0 00-1.08 1.916 1.763 1.763 0 00.311 1.145 1.728 1.728 0 001.286.728c.051.002.101.005.153.005.056-.003.112-.004.168-.015a1.233 1.233 0 001.048-1.154l.002-.084c-.001-.032-.002-.064-.006-.096a.928.928 0 00-.552-.739.907.907 0 00-.378-.073.711.711 0 00-.675.533.76.76 0 00-.021.114c-.002.038-.004.073 0 .125a.582.582 0 00.597.521.478.478 0 00.323-.142.609.609 0 01-.157.213.581.581 0 01-.281.127c-.026.006-.053.004-.079.007l-.093-.004a1.065 1.065 0 01-.983-1.173c.022-.56.332-1.09.791-1.406a1.854 1.854 0 011.202-.31l.111.004.11.015c.073.012.147.018.22.034.29.06.569.167.831.304.261.142.496.327.706.536.415.424.703.971.806 1.555.064.289.051.59.036.901a4.808 4.808 0 01-2.332 3.78 4.755 4.755 0 01-1.727.619c-.076.011-.152.029-.228.034l-.231.013-.231.014-.236-.01-.474-.02c-.157-.01-.312-.041-.469-.061-1.483-.197-2.871-.884-3.975-1.886.307-.034.518-.164.646-.276.361-.313.502-.855.343-1.317l-.078-.226-.239.002c-.394.004-.892-.306-1.368-.849-.926-1.059-1.877-3.177-1.538-5.679a14.305 14.305 0 011.013-3.157l10.778-.101-.003-.332a9.935 9.935 0 012.209-6.347c.118.24.363.405.649.403a.712.712 0 00.551-.273m7.852-4.199a.928.928 0 111.858-.017.93.93 0 11-1.858.017m1.265 36.003c-.81-1.372-3.068-5.463-3.097-8.514-.023-2.559 1.331-4.498 2.958-6.423 1.663 1.894 3.053 3.808 3.077 6.366.028 3.052-2.152 7.184-2.938 8.571m-.314-33.587c.718-.006 4.504 3.933 4.554 9.274.029 3.082-1.764 5.341-3.62 7.484l-.011-.011a7.148 7.148 0 01-.765.68 7.243 7.243 0 01-.778-.665l-.005.005c-1.893-2.106-3.725-4.331-3.754-7.409-.05-5.341 3.662-9.351 4.379-9.358m8.448 13.68l-.131-.142a1.327 1.327 0 00-.141-.139 2.115 2.115 0 00-.894-.476 2.136 2.136 0 00-1.913.455c-.098.088-.206.19-.288.315a1.491 1.491 0 00.292 2.008c.132.1.288.168.451.2a1.09 1.09 0 00.924-.259.844.844 0 00.274-.484.82.82 0 00-.187-.675l-.05-.053c-.022-.02-.043-.04-.068-.057a.645.645 0 00-.815.04l-.032.03a.6.6 0 00-.098.138.543.543 0 00.11.624c.014.014.03.026.046.038a.444.444 0 01-.156-.072.778.778 0 01-.155-.172.833.833 0 01.01-.929c.043-.069.105-.125.177-.191a1.463 1.463 0 012.034.118l.103.111c.034.038.061.081.092.121.495.644.612 1.549.325 2.306a2.967 2.967 0 01-.124.277c-.053.086-.095.179-.159.257l-.089.124-.101.114c-.061.078-.148.147-.226.22l-.239.216c-.084.066-.175.125-.261.188-.091.058-.17.132-.268.179l-.283.154c-.762.403-1.64.571-2.51.555-1.14-.022-2.264-.365-3.257-.943l.208-.238c2.066-2.371 4.202-4.823 4.169-8.37-.049-5.235-3.787-9.945-5.224-9.931-1.436.013-5.085 4.792-5.036 10.027.033 3.547 2.215 5.958 4.325 8.29l.208.231c-.984.599-2.104.964-3.247 1.007-.868.033-1.75-.119-2.519-.507l-.286-.149c-.098-.045-.18-.118-.271-.174-.088-.062-.179-.119-.265-.183l-.243-.212c-.08-.071-.168-.139-.23-.216l-.103-.112-.091-.122c-.065-.077-.109-.169-.165-.254-.045-.09-.091-.181-.128-.274-.302-.752-.201-1.659.281-2.312.031-.041.057-.084.09-.123l.101-.113a.791.791 0 01.103-.105c.034-.032.068-.065.107-.091a1.467 1.467 0 011.822.04c.073.065.136.12.181.188a.83.83 0 01-.125 1.103.422.422 0 01-.155.075.529.529 0 00.143-.665.486.486 0 00-.1-.135l-.032-.03a.648.648 0 00-.816-.025c-.024.018-.045.038-.067.058l-.048.054a.817.817 0 00.108 1.157c.25.221.605.309.929.242.161-.034.316-.106.447-.208.136-.109.217-.216.303-.341a1.497 1.497 0 00-.049-1.672 1.648 1.648 0 00-.294-.31 2.132 2.132 0 00-1.921-.419 2.127 2.127 0 00-1.023.634l-.128.145c-.042.049-.077.103-.116.155-.613.835-.742 1.985-.358 2.942.047.12.105.236.164.35.069.109.128.225.209.325l.117.154.13.143c.085.1.18.174.272.256l.278.242c.098.073.201.139.302.21.104.065.198.145.309.197l.327.171c.878.441 1.87.611 2.835.574a7.321 7.321 0 002.919-.749c-1.455 1.805-2.658 3.77-2.634 6.273.036 3.892 3.346 9.115 3.487 9.335l.285.447.277-.452c.137-.223 3.349-5.506 3.312-9.399-.023-2.498-1.257-4.438-2.742-6.214.91.42 1.901.666 2.914.686.965.018 1.953-.169 2.823-.627l.323-.177c.11-.054.204-.136.306-.203.099-.072.202-.14.298-.216l.274-.246c.09-.084.183-.16.267-.262l.127-.145.113-.156c.08-.102.137-.218.203-.329.057-.115.113-.232.158-.353.366-.964.216-2.111-.413-2.935-.04-.051-.076-.105-.118-.153m-9.051-78.275a.93.93 0 01-.018-1.859.93.93 0 11.018 1.859m-.345-36.941c.811 1.371 3.068 5.462 3.097 8.514.024 2.558-1.33 4.497-2.957 6.422-1.664-1.894-3.054-3.807-3.078-6.366-.028-3.051 2.153-7.184 2.938-8.57m.314 33.586c-.718.006-4.504-3.933-4.554-9.274-.029-3.082 1.765-5.341 3.621-7.484l.011.011c.238-.244.494-.471.765-.68.274.204.534.426.777.666l.005-.005c1.894 2.105 3.725 4.33 3.754 7.409.05 5.341-3.662 9.35-4.379 9.357m-8.447-13.68l.13.143c.042.047.089.093.142.138a2.11 2.11 0 00.894.476 2.132 2.132 0 001.912-.455 1.496 1.496 0 00.306-1.987 1.425 1.425 0 00-.309-.336 1.086 1.086 0 00-1.375.06.827.827 0 00-.275.483.815.815 0 00.188.675l.05.054c.021.019.043.039.067.056a.649.649 0 00.816-.04l.032-.03.037-.042a.543.543 0 00-.05-.72.384.384 0 00-.045-.037.45.45 0 01.156.071c.046.033.11.109.154.172a.836.836 0 01-.009.929c-.043.069-.106.125-.178.191a1.46 1.46 0 01-2.034-.117l-.102-.112c-.034-.038-.062-.08-.093-.121-.495-.644-.612-1.548-.325-2.306.036-.094.08-.186.124-.276.053-.086.096-.179.16-.258l.088-.124.101-.114c.061-.078.148-.147.227-.22l.238-.216c.085-.066.175-.125.262-.188.09-.058.17-.132.267-.179l.283-.154c.763-.403 1.641-.571 2.51-.554 1.14.021 2.265.364 3.257.942l-.207.239c-2.066 2.371-4.202 4.822-4.169 8.37.049 5.234 3.786 9.944 5.223 9.93 1.437-.013 5.086-4.792 5.037-10.026-.033-3.548-2.215-5.959-4.325-8.291l-.208-.23c.983-.599 2.104-.965 3.246-1.008.869-.033 1.75.119 2.52.508l.286.149c.098.045.179.117.27.174.088.061.18.118.266.183l.242.211c.08.071.168.139.231.216l.103.112.091.122c.065.078.109.17.164.255.046.089.091.18.129.274.301.752.201 1.658-.282 2.312-.03.04-.057.083-.09.122l-.101.114a.776.776 0 01-.102.104 1.438 1.438 0 01-.608.339 1.464 1.464 0 01-1.321-.288c-.074-.065-.137-.12-.181-.188a.837.837 0 01-.027-.928.791.791 0 01.151-.175.446.446 0 01.155-.075.521.521 0 00-.167.228.538.538 0 00.086.531c.012.015.025.028.038.042l.033.029a.641.641 0 00.816.025c.024-.017.045-.038.066-.058l.049-.054a.823.823 0 00-.108-1.157 1.086 1.086 0 00-1.377-.033 1.428 1.428 0 00-.302.341 1.497 1.497 0 00.342 1.981 2.134 2.134 0 001.921.419 2.101 2.101 0 00.885-.493 1.23 1.23 0 00.139-.141l.128-.144c.041-.049.076-.104.115-.155.613-.836.743-1.985.359-2.943a3.992 3.992 0 00-.165-.35c-.068-.109-.127-.225-.209-.325l-.116-.154-.13-.143c-.086-.1-.18-.174-.273-.256l-.277-.241c-.098-.074-.202-.14-.303-.21-.103-.065-.198-.146-.309-.198l-.326-.17c-.879-.442-1.87-.611-2.835-.575a7.318 7.318 0 00-2.919.75c1.455-1.806 2.657-3.771 2.633-6.273-.036-3.893-3.345-9.115-3.486-9.336l-.286-.446-.277.451c-.137.224-3.349 5.507-3.312 9.4.023 2.497 1.258 4.438 2.743 6.213a7.315 7.315 0 00-2.914-.686c-.966-.018-1.954.169-2.824.628l-.323.176c-.11.054-.203.136-.305.204-.1.072-.202.14-.299.215l-.273.247c-.09.083-.184.159-.267.261l-.128.145-.113.156c-.08.102-.137.219-.203.329a3.994 3.994 0 00-.158.353c-.366.965-.215 2.112.414 2.935.039.051.075.105.118.153"></path><path d="M28.703 67.009l5.303-.043 4.34 8.89 1.409 3.568 1.351-3.59 4.153-8.959 5.174-.042-10.231 19.874-.905.008zm29.454 3.556l-3.492.028-.031-3.794 3.493-.028-.066-8.063 4.691-1.073.074 9.098 4.57-.037.031 3.794-4.57.037.129 15.996-4.699.038zm24.944 16.226q-2.673.022-4.947-1.232-2.274-1.253-3.651-3.592-1.377-2.339-1.403-5.486-.025-3.105 1.142-5.443 1.167-2.337 3.355-3.649 2.188-1.311 5.163-1.335 1.725-.014 3.239.577 1.514.592 2.556 1.467 1.042.876 1.394 1.735l.059-3.32 4.441-.036.16 19.79-4.398.035-.114-3.491q-.72 1.558-2.651 2.759-1.931 1.201-4.345 1.221zm.745-3.887q2.457-.02 4.125-1.736 1.668-1.717 1.645-4.476l-.002-.302q-.015-1.854-.803-3.314-.788-1.459-2.131-2.268-1.344-.808-2.939-.795-2.759.022-4.254 1.824-1.494 1.801-1.471 4.647.023 2.889 1.525 4.666 1.502 1.777 4.305 1.754zm19.935-16.503l4.484-.036.03 3.665q2.337-4.202 7.382-4.243 4.182-.034 6.79 2.597 2.609 2.631 2.649 7.632.025 3.104-1.227 5.486-1.253 2.382-3.42 3.693t-4.84 1.333q-2.501.02-4.34-.849-1.84-.869-2.888-2.499l.152 13.451-4.527.037zm10.739 16.212q2.802-.023 4.297-1.824 1.494-1.802 1.471-4.604-.023-2.932-1.525-4.666-1.502-1.735-4.347-1.712-1.552.013-2.904.779-1.352.765-2.139 2.173-.786 1.408-.771 3.261l.002.302q.015 1.854.825 3.292.809 1.438 2.152 2.225 1.343.787 2.939.774zm18.814-16.451l4.829-.039.161 19.79-4.829.039zm2.342-3.727q-1.337.01-2.25-.888-.912-.898-.923-2.234-.01-1.208.888-2.077.899-.87 2.236-.881 1.293-.01 2.205.845.913.855.923 2.062.01 1.337-.866 2.249-.877.913-2.213.924zm15.303 23.806q-1.293.011-2.206-.866-.912-.876-.923-2.17-.011-1.336.866-2.227.877-.891 2.213-.902 1.337-.011 2.228.866.891.876.902 2.213.01 1.293-.867 2.184-.876.891-2.213.902zm20.715-.167q-2.932.023-5.292-1.23-2.36-1.252-3.759-3.634-1.399-2.382-1.426-5.616-.024-3.061 1.229-5.378 1.253-2.317 3.55-3.586 2.296-1.269 5.314-1.293 2.285-.019 3.95.55 1.665.568 2.62 1.423l-2.039 3.768q-1.825-1.796-4.111-1.778-2.759.023-4.19 1.716-1.43 1.693-1.408 4.495.026 3.191 1.528 4.947 1.502 1.755 4.175 1.734 1.336-.011 2.605-.409 1.269-.399 1.955-.922l1.708 3.263q-.943.741-2.641 1.337-1.699.596-3.768.613zm23.086-.187q-3.061.024-5.444-1.336-2.382-1.361-3.695-3.722-1.313-2.36-1.336-5.249-.023-2.846 1.229-5.227 1.253-2.382 3.613-3.781 2.36-1.399 5.465-1.424 3.104-.025 5.465 1.335 2.361 1.361 3.652 3.722 1.291 2.361 1.314 5.207.024 2.889-1.251 5.27-1.274 2.382-3.612 3.781-2.339 1.399-5.4 1.424zm.098-3.796q2.501-.02 3.93-1.886 1.43-1.865 1.407-4.668-.023-2.802-1.59-4.708-1.568-1.906-4.112-1.886-2.457.02-3.93 1.929-1.472 1.909-1.449 4.755.023 2.759 1.633 4.622 1.611 1.863 4.111 1.842z"></path></svg>