<?xml version="1.0" encoding="UTF-8"?>
<!DOCTYPE svg PUBLIC "-//W3C//DTD SVG 1.1//EN" "http://www.w3.org/Graphics/SVG/1.1/DTD/svg11.dtd">
<svg version="1.1" xmlns="http://www.w3.org/2000/svg" xmlns:xlink="http://www.w3.org/1999/xlink" x="0" y="0" width="252" height="396" viewBox="0, 0, 252, 396">
  <g id="Layer_1">
    <path d="M28.095,50.687 L28.302,51.052 L28.085,51.926 L28.705,52.983 L29.292,53.402 L29.513,54.029 L30.44,55.22 L30.586,55.849 L30.501,56.068 L29.99,57.382 L28.85,57.178 L28.256,58.036 L27.028,58.288 L26.821,58.636 L27.121,60.76 L26.427,63.987 L25.837,64.919 L25.597,66.058 L25.004,66.239 L24.299,67.102 L22.964,67.436 L22.654,67.978 L23.809,69.906 L24.345,69.389 L25.161,69.91 L25.609,69.848 L26.007,69.565 L26.594,67.169 L26.967,67.112 L27.287,67.47 L27.497,68.623 L28.068,69.494 L27.879,70.18 L28.68,70.4 L29.681,73.012 L29.398,73.365 L28.5,73.412 L27.609,76.462 L27.158,76.448 L26.807,76.917 L25.962,76.549 L25.558,76.72 L25.387,77.743 L24.454,79.257 L24.04,79.24 L23.52,78.63 L23.47,77.694 L22.228,75.116 L21.891,74.813 L19.804,75.111 L19.25,74.578 L19.205,73.717 L19.621,73.094 L19.463,72.24 L18.986,71.74 L19.037,71.286 L19.628,71.104 L20.056,70.668 L18.932,68.627 L18.892,67.878 L19.345,67.216 L18.97,66.522 L19.402,64.059 L18.622,62.825 L19.173,61.181 L20.158,59.373 L20.542,58.668 L20.915,55.796 L21.324,54.985 L22.544,54.583 L23.876,53.461 L24.256,53.517 L24.821,54.237 L25.647,54.194 L25.96,53.727 L26.187,52.326 L26.639,51.627 L28.095,50.687 z M35.609,10.607 L20.822,10.982 L21.018,12.588 L19.948,12.675 L19.948,12.676 L21.065,12.587 L21.806,13.897 L21.606,14.396 L20.019,13.692 L19.921,14.673 L20.284,15.817 L20.588,15.839 L21.031,14.952 L22.101,15.326 L23.456,15.8 L24.508,18.521 L24.465,19.838 L23.431,22.406 L23.489,23.492 L24.078,24.624 L23.345,27.177 L23.425,27.962 L24.32,29.191 L24.635,30.862 L24.701,32.098 L24.208,33.947 L24.382,34.629 L25.432,35.213 L25.644,35.652 L24.825,38.698 L23.485,41.133 L23.094,42.279 L23.117,46.258 L22.23,49.382 L22.206,50.359 L23.218,51.694 L23.864,51.81 L24.117,51.61 L24.168,51.389 L24.638,49.368 L25.868,50.579 L26.161,50.413 L26.177,49.286 L26.437,48.522 L27.116,47.811 L26.791,46.664 L27.058,45.299 L26.475,42.815 L26.548,42.06 L26.769,41.973 L27.594,42.606 L27.991,42.284 L28.448,40.611 L29.355,38.969 L30.042,36.766 L30.567,35.356 L31.502,34.52 L30.719,33.248 L30.866,32.452 L32.387,31.959 L32.783,31.601 L32.973,30.916 L32.711,28.79 L32.233,26.863 L31.531,25.698 L31.057,26.023 L30.396,27.071 L29.989,28.668 L28.848,29.929 L28.115,32.515 L28.008,34.118 L26.564,37.385 L26.597,38.059 L27.716,38.25 L28.218,38.41 L28.488,38.889 L28.38,39.201 L28.143,39.397 L27.909,39.654 L27.397,40.539 L27.09,40.554 L26.465,40.4 L25.905,40.305 L25.225,41.506 L24.753,41.96 L24.658,41.288 L26.224,38.015 L26.373,37.271 L26.097,36.67 L27.094,34.347 L27.894,31.789 L27.857,30.432 L27.995,29.486 L28.977,27.369 L28.229,26.058 L28.425,25.485 L29.418,24.27 L29.755,22.076 L29.185,20.566 L29.443,19.727 L30.024,19.284 L31.99,18.619 L32.912,17.483 L33.981,16.978 L34.182,15.766 L34.907,14.452 L34.965,12.766 L34.972,12.766 L34.965,12.766 L34.982,12.272 L35.364,10.901 L35.609,10.607 z M20.225,27.381 L19.71,27.469 L19.582,27.563 L19.374,27.832 L19.346,27.877 L19.435,29.525 L19.208,30.212 L18.678,30.743 L18.456,30.966 L17.697,36.486 L17.226,37.563 L17.417,38.303 L18.026,39.096 L18.036,39.997 L18.476,40.46 L20.12,40.899 L20.946,40.141 L20.705,39.179 L21.638,37.59 L21.803,36.455 L22.567,35.214 L21.894,34.611 L21.791,34.092 L22.561,32.286 L22.577,31.159 L23.074,29.857 L22.569,28.907 L21.786,28.349 L20.982,28.128 L20.225,27.381 z M152.889,11.9 L153.259,12.766 L153.917,13.709 L155.103,14.076 L155.263,14.332 L154.72,15.854 L154.288,18.309 L151.793,20.095 L151.552,20.667 L152.032,21.322 L150.894,23.056 L149.587,21.531 L149.409,19.926 L148.52,18.461 L149.027,16.04 L148.456,13.85 L148.223,12.959 L148.114,12.766 L147.644,12.034 L145.802,12.08 L138.979,11.992 L124.916,11.366 L112.483,11.406 L108.878,10.657 L108.512,10.598 L102.44,10.344 L78.616,10.038 L64.3,10.458 L54.911,10.343 L53.594,10.167 L52.996,10.347 L50.521,10.229 L49.311,10.259 L49.449,10.675 L49.215,12.038 L49.463,12.766 L49.279,13.305 L48.84,13.723 L47.944,14.073 L46.737,14.376 L45.719,14.278 L44.542,14.198 L44.106,13.999 L43.778,13.549 L44.192,13.113 L44.265,12.766 L43.229,12.766 L43.647,11.755 L43.317,11.209 L41.371,11.608 L41.091,12.035 L41.369,12.587 L41.376,12.587 L41.375,12.6 L41.386,12.62 L41.374,12.62 L41.344,13.26 L41.005,13.633 L40.019,13.965 L39.604,13.83 L38.829,13.576 L38.346,13.75 L37.787,15.357 L35.15,17.667 L34.482,19.118 L33.522,21.205 L33.153,22.8 L33.542,23.756 L34.463,24.045 L34.841,24.777 L35.299,24.866 L35.912,23.596 L37.43,23.03 L38.458,23.202 L39.522,24.085 L40.055,24.172 L40.414,23.816 L40.395,23.442 L40.801,23.271 L41.149,23.441 L40.964,25.701 L40.298,28.138 L40.211,29.062 L39.982,31.532 L39.082,33.829 L38.278,37.248 L38.572,38.546 L37.661,42.797 L37.745,43.693 L38.924,43.182 L40.154,44.395 L40.185,44.994 L39.44,45.146 L38.535,45.954 L38.109,47.09 L38.653,48.151 L38.393,48.952 L38.636,49.278 L39.409,48.937 L39.679,47.61 L40.099,46.988 L41.445,46.056 L42.719,43.739 L43.323,43.784 L43.982,44.877 L43.99,45.776 L43.701,46.767 L41.127,50.876 L40.366,51.644 L38.927,52.002 L38.553,53.523 L37.05,54.989 L35.782,58.845 L35.709,60.35 L35.186,61.841 L35.138,63.833 L35.488,65.504 L35.001,66.993 L35.457,70.004 L35.572,70.754 L35.286,72.496 L34.47,73.401 L31.046,73.992 L31.607,74.676 L30.7,75.287 L31.232,76.123 L32.255,75.582 L33.323,76.614 L33.279,79.394 L33.601,81.967 L34.431,82.074 L34.613,82.323 L35.118,83.014 L35.939,82.221 L36.494,82.793 L36.945,82.807 L37.734,82.091 L38.211,82.629 L37.153,85.387 L36.101,86.792 L35.336,87.244 L34.697,87.202 L33.907,86.418 L34.461,85.526 L34.222,85.276 L33.199,85.779 L32.699,84.829 L33.159,83.566 L32.788,82.948 L31.997,82.877 L31.493,84.554 L31.39,84.898 L29.945,85.949 L27.85,86.059 L27.071,85.499 L26.656,86.16 L24.012,85.811 L23.814,86.31 L24.21,86.702 L25.384,86.94 L26.825,87.953 L27.384,89.312 L27.651,89.411 L27.901,89.172 L28.147,88.146 L29.009,88.138 L29.635,88.63 L29.702,89.903 L29.984,90.301 L31.299,90.344 L29.992,91.164 L29.467,91.154 L28.877,90.622 L28.444,89.518 L28.015,89.916 L28.381,91.174 L27.973,93.41 L28.172,95.051 L28.507,94.996 L29.001,94.445 L29.709,94.37 L30.671,94.845 L31.032,96.027 L31.54,96.414 L32.715,96.69 L33.383,97.294 L34.164,98.641 L34.364,99.607 L34.116,100.596 L33.976,100.881 L32.999,102.869 L32.895,103.775 L33.22,104.246 L33.936,104.359 L34.315,105.165 L34.076,106.342 L34.555,107.63 L34.31,108.694 L33.715,109.475 L33.474,110.614 L33.159,111.007 L32.821,110.987 L32.223,109.554 L31.522,109.027 L31.375,108.359 L30.745,107.754 L31.294,106.073 L31.328,105.283 L30.726,104.527 L30.292,104.812 L30.377,105.401 L30.468,106.042 L29.461,106.808 L29.834,107.502 L29.541,108.343 L30.071,109.18 L29.49,110.223 L27.442,111.832 L27.739,113.243 L26.941,114.411 L27.089,115.08 L27.669,114.748 L28.046,114.803 L28.469,115.757 L28.399,116.549 L28.765,117.13 L28.014,117.77 L27.926,118.939 L26.855,119.897 L27.067,121.376 L25.957,123.435 L25.862,124.492 L24.839,126.348 L24.785,126.726 L25.567,127.398 L25.628,127.845 L24.675,128.196 L24.442,128.734 L25.303,129.477 L26.243,128.188 L26.667,128.429 L26.796,128.759 L26.462,129.528 L26.986,130.251 L26.601,130.759 L25.37,131.464 L24.51,132.859 L25.467,133.297 L26.092,133.151 L26.494,132.399 L26.772,131.877 L27.71,131.978 L28.939,132.626 L28.208,133.64 L28.689,134.29 L27.63,134.722 L27.201,136.509 L26.41,137.076 L25.728,136.887 L25.343,137.358 L24.721,136.866 L24.39,136.959 L23.758,137.706 L22.981,137.823 L22.776,138.208 L23.186,138.9 L23.087,139.13 L22.417,139.166 L22.214,139.553 L22.702,140.314 L22.069,141.062 L20.343,140.854 L19.336,141.547 L17.951,143.535 L16.577,145.037 L16.884,147.31 L18.14,147.093 L18.57,147.482 L18.678,148.114 L17.603,150.312 L17.1,152.067 L16.47,152.138 L16.825,153.884 L16.449,155.218 L16.282,155.439 L14.502,157.801 L14.396,160.698 L11.602,163.404 L11.347,164.207 L11.768,165.122 L11.111,166.735 L10.118,168.329 L10.75,170.397 L11.492,171.069 L12.096,171.224 L12.988,172.498 L13.666,173.466 L13.234,175.817 L12.779,176.732 L12.738,176.993 L13.503,178.769 L12.543,179.572 L12.504,180.927 L12.744,182.64 L13.894,185.394 L13.73,185.815 L12.961,186.015 L12.846,186.615 L12.888,187.401 L13.599,187.513 L13.971,188.243 L13.815,190.167 L13.995,190.757 L16.064,191.995 L16.201,194.579 L17.213,196.889 L17.052,197.348 L16.55,197.767 L16.066,199.449 L16.183,199.837 L16.641,200.075 L16.859,201.414 L16.448,202.037 L16.249,203.174 L15.381,203.311 L15.003,203.642 L14.378,204.929 L14.401,205.34 L15.844,206.726 L16.053,207.484 L16.067,207.497 L16.362,208.298 L16.431,208.769 L16.712,209.118 L17.167,209.32 L18.078,209.045 L18.391,209.367 L18.82,211.182 L19.566,212.681 L19.744,213.948 L19.659,214.441 L18.271,216.205 L17.425,217.716 L16.866,219.266 L17.067,220.44 L17.348,221.85 L15.18,222.795 L14.291,224.103 L14.206,224.272 L13.5,225.965 L12.946,226.672 L11.541,232.907 L11.108,233.795 L10.272,234.742 L10.132,235.576 L10.34,236.015 L11.003,237.341 L11.288,238.291 L11.249,239.096 L10.902,240.079 L10.966,241.362 L10.431,242.213 L10.162,243.938 L10.465,244.64 L11.431,245.05 L11.83,245.666 L13.355,246.878 L14.307,247.245 L14.378,246.995 L14.79,246.909 L14.903,246.242 L15.577,246.105 L15.754,245.831 L15.852,245.432 L15.537,244.76 L15.876,244.284 L15.42,243.917 L15.347,243.524 L15.924,243.378 L15.74,242.465 L15.98,242.263 L16.461,242.289 L16.414,242.009 L17.031,241.226 L16.95,240.833 L16.573,240.574 L16.826,240.35 L16.665,239.833 L17.339,238.844 L17.029,238.294 L17.099,238.009 L17.838,238.181 L19.159,237.731 L19.514,238.335 L19.803,238.506 L20.495,237.679 L20.819,237.984 L21.506,237.436 L21.845,237.75 L22.264,237.776 L22.639,237.514 L23.173,237.544 L23.416,237.353 L23.478,237.585 L24.196,238.074 L24.749,237.38 L25.204,237.809 L25.153,238.659 L25.458,239.104 L25.403,239.816 L25.178,240.418 L25.469,240.25 L25.734,240.378 L26.234,241.167 L26.552,242.145 L26.358,242.496 L26.288,243.24 L25.859,244.097 L26.425,244.551 L26.009,245.519 L26.052,245.822 L26.189,245.544 L26.667,245.676 L27.266,245.414 L27.688,245.691 L27.74,246.346 L28.096,246.174 L28.571,246.497 L29.19,246.697 L29.128,246.944 L29.64,247.227 L30.092,247.5 L30.338,247.759 L30.371,248.07 L30.654,248.261 L30.698,248.587 L31.043,249.085 L30.822,249.291 L31.506,249.576 L31.299,250.137 L31.44,250.388 L31.364,250.841 L31.602,251.017 L31.355,251.048 L31.332,251.283 L31.746,251.541 L31.731,251.788 L32,252.039 L32.103,252.596 L32.195,252.829 L32.353,253.098 L32.207,253.364 L32.295,253.577 L31.719,254.173 L31.616,254.6 L31.627,255.034 L31.716,255.57 L31.731,255.884 L30.59,297.68 L29.035,334.38 L28.038,366.871 L27.995,367.55 L27.21,367.439 L27.015,369.724 L27.408,370.802 L27.065,371.494 L27.129,371.708 L26.561,372.707 L28.258,381.861 L82.884,383.406 L123.877,385 L123.853,384.536 L123.247,383.348 L122.166,381.878 L121.635,379.368 L121.432,379.061 L120.786,378.664 L120.056,377.53 L119.258,377.456 L118.938,378.318 L118.085,378.849 L117.486,378.946 L117.138,378.597 L117.063,378.152 L117.284,377.699 L118.039,377.179 L117.983,376.31 L116.873,374.552 L114.4,372.226 L114.131,371.569 L114.08,370.45 L113.753,369.53 L113.453,366.609 L113.278,366.014 L112.788,365.439 L112.743,365.068 L112.333,364.343 L112.665,363.083 L112.509,361.915 L112.53,360.768 L112.902,359.425 L112.863,359.086 L114.288,358.358 L115.108,357.407 L115.355,356.86 L115.316,355.449 L115.47,354.803 L116.15,354.1 L116.166,353.533 L115.845,352.029 L115.871,349.919 L115.675,349.206 L115.216,348.932 L114.979,348.54 L115.251,347.659 L116.93,346.27 L118.109,346.138 L118.537,345.867 L119.89,345.563 L121.157,344.523 L121.738,344.886 L122.075,344.836 L123.495,343.076 L123.082,341.99 L123.142,341.318 L123.399,340.652 L123.886,340.099 L124.904,340.204 L125.539,339.443 L125.609,338.688 L123.933,337.303 L123.381,336.097 L123.32,335.568 L123.606,333.495 L122.923,332.474 L122.755,331.739 L123.317,330.753 L124.215,330.02 L124.826,329.032 L125.513,328.524 L126.441,327.182 L126.688,326.563 L126.638,326.114 L126.225,325.504 L126.097,324.61 L125.811,324.218 L125.629,323.592 L125.838,322.923 L126.686,322.273 L126.905,321.54 L126.858,320.618 L125.775,319.101 L125.757,318.716 L126.012,318.352 L126.005,317.917 L125.608,317.719 L125.185,317.867 L124.662,317.626 L123.98,316.028 L124.6,315.197 L124.651,313.168 L124.494,312.11 L125.002,311.435 L125.487,311.082 L125.587,310.779 L125.542,310.32 L124.992,309.482 L124.815,308.77 L126.153,307.25 L126.174,306.14 L125.888,304.673 L126.155,303.608 L126.692,302.352 L126.127,300.115 L126.177,298.891 L126.514,298.018 L128.185,297.132 L128.799,296.076 L129.79,293.946 L130.405,290.813 L131.238,289.017 L130.986,288.351 L130.412,287.808 L129.691,286.613 L129.498,285.958 L130.593,283.649 L131.769,282.142 L131.865,281.823 L131.623,281.67 L130.246,281.631 L129.144,280.871 L128.943,280.354 L128.84,278.43 L129.17,277.341 L130.262,276.09 L130.711,272.273 L131.185,269.698 L131.215,268.459 L131.41,267.456 L131.811,266.382 L131.585,263.739 L132.647,262.436 L132.844,261.655 L133.01,260.038 L132.941,259.477 L132.488,258.352 L131.048,256.962 L130.876,256.195 L131.384,253.908 L131.982,253.766 L132.659,252.632 L133.001,251.701 L132.866,250.922 L132.907,249.402 L132.721,248.167 L133.029,247.8 L133.111,246.266 L134.092,245.213 L135.793,244.243 L136.561,244.03 L139.134,241.749 L139.097,240.9 L138.575,240.331 L138.336,239.642 L138.336,239.125 L138.615,237.914 L138.949,237.42 L139.213,237.02 L138.952,236.641 L138.992,236.196 L140.615,235.279 L140.766,234.908 L140.629,233.927 L140.849,232.527 L141.656,231.343 L141.7,230.853 L141.987,230.978 L141.836,230.275 L142.122,229.832 L142.009,229.511 L142.092,229.018 L141.681,228.345 L141.782,226.39 L142.16,225.487 L141.889,225.332 L141.698,225.05 L142.074,225.196 L142.368,225.04 L142.395,224.593 L143.27,223.832 L144.492,221.743 L145.288,221.096 L145.717,220.09 L146.604,220.023 L148.759,218.598 L149.306,218.391 L149.539,218.318 L149.842,217.763 L150.343,217.722 L149.64,218.284 L149.876,218.234 L150.445,217.732 L150.479,217.36 L151.243,216.249 L151.878,214.975 L152.886,214.508 L153.48,214.025 L153.505,213.108 L153.775,212.806 L153.5,212.15 L153.537,211.781 L154.661,210.752 L155.219,209.254 L155.989,208.429 L156.131,207.574 L155.451,205.698 L156.236,203.759 L156.163,201.947 L155.568,200.238 L156.039,198.701 L157.14,198.43 L157.958,197.926 L157.279,196.328 L157.375,195.435 L157.676,195.106 L158.358,195.113 L158.791,194.904 L159.096,193.687 L159.784,192.628 L161.574,191.367 L161.956,190.728 L163.328,189.769 L163.646,189.048 L163.789,187.391 L163.554,186.103 L163.608,185.337 L163.812,185.106 L164.495,185.088 L165.105,184.734 L165.894,183.476 L165.88,183.221 L165.651,182.93 L165.701,182.57 L166.709,181.915 L165.874,181.626 L165.278,181.492 L165.054,181.668 L165.092,181.419 L164.49,181.922 L164.1,181.75 L164.376,178.831 L164.271,178.448 L163.844,177.879 L163.797,177.291 L164.72,176.427 L165.28,176.124 L165.338,175.862 L165.087,174.53 L165.484,174.087 L166.351,174.082 L166.576,174.492 L166.556,174.967 L166.865,174.9 L166.828,174.579 L166.361,174.032 L166.24,173.502 L166.304,172.938 L166.602,172.454 L167.47,173.104 L167.952,172.93 L168.047,171.858 L168.611,171.549 L168.788,171.243 L168.251,169.906 L168.365,169.457 L169.389,168.742 L170.309,168.412 L170.054,167.874 L169.487,167.627 L169.535,167.172 L170.86,166.994 L171.186,166.157 L171.9,165.123 L171.799,164.65 L171.33,163.956 L172.419,163.506 L172.964,163.932 L173.362,163.953 L173.74,163.786 L173.938,163.47 L173.664,163.011 L172.966,162.747 L172.395,162.074 L173.239,162.024 L173.654,161.724 L173.838,161.216 L173.903,160.107 L173.601,159.779 L172.799,159.512 L172.418,159.943 L172.32,160.63 L171.865,160.722 L171.349,160.097 L170.975,158.397 L171.219,157.756 L171.233,156.79 L171.484,156.852 L171.737,156.492 L172.629,155.978 L173.117,156.038 L173.272,155.393 L173.566,154.954 L172.551,154.094 L172.561,152.409 L172.444,151.797 L172.678,151.212 L172.812,150.783 L172.357,150.807 L172.536,150.053 L171.917,150.032 L171.734,149.472 L171.33,149.159 L170.661,146.909 L169.722,145.401 L169.952,144.132 L170.452,143.704 L170.667,143.091 L170.639,142.43 L170.45,142.152 L170.631,141.827 L170.97,141.68 L171.321,140.795 L171.173,139.723 L171.883,137.393 L171.621,136.545 L171.048,135.913 L170.495,134.537 L170.367,133.628 L170.267,133.372 L170.623,133.098 L170.457,132.667 L170.64,132.291 L170.081,132.463 L169.905,132.687 L169.646,132.612 L169.464,132.221 L169.532,131.741 L170.586,129.625 L171.252,128.942 L172.047,128.696 L172.32,128.147 L173.001,127.931 L173.631,127.038 L173.803,124.899 L173.579,124.704 L173.543,124.447 L173.63,124.045 L174.069,123.725 L175.229,124.076 L176.919,123.526 L178.838,122.51 L179.048,122.273 L179.264,121.458 L179.673,121.252 L181.775,121.406 L183.876,121.212 L184.759,121.462 L186.544,119.985 L187.089,119.796 L187.117,119.772 L187.234,119.745 L187.872,119.524 L188.081,119.548 L188.347,119.486 L188.658,119.615 L189.109,119.668 L190.702,120.36 L192.056,120.649 L194.112,119.64 L194.582,118.122 L195.271,119.673 L197.514,118.694 L198.089,118.036 L198.363,115.176 L198.809,114.034 L200.289,111.432 L200.691,111.156 L201.685,111.097 L201.933,110.975 L202.325,110.996 L203.718,110.076 L204.57,109.859 L204.991,109.979 L205.291,109.867 L205.977,109.969 L206.744,110.697 L207.621,110.747 L208.067,109.679 L208.394,109.379 L209.525,109.222 L210.865,109.454 L212.232,108.8 L213.22,107.842 L214.371,107.146 L214.556,106.54 L215.227,106.621 L215.346,106.284 L215.11,105.244 L216.562,105.006 L217.107,104.478 L217.472,103.558 L217.634,101.985 L217.886,101.385 L218.181,101.05 L219.049,101.151 L219.666,100.47 L219.591,100.152 L218.732,99.564 L218.749,99.031 L220.177,97.841 L220.392,97.295 L221.07,97.303 L221.271,97.545 L220.988,97.876 L220.197,98.024 L220.128,98.662 L220.569,98.962 L221.406,98.733 L222.161,97.002 L223.129,97.277 L224.377,96.904 L224.856,95.71 L224.939,94.554 L225.226,94.508 L225.477,94.98 L225.898,94.806 L225.845,94.048 L225.815,93.594 L226.139,94.313 L226.94,94.361 L226.954,93.873 L226.303,93.293 L225.889,92.237 L225.19,91.666 L224.974,91.17 L225.049,90.921 L225.871,91.047 L226.472,90.696 L227.337,89.284 L227.574,88.366 L226.998,87.658 L225.831,86.927 L224.542,85.771 L224.618,84.931 L225.068,84.147 L225.441,83.919 L227.002,84.031 L227.92,84.415 L228.876,84.247 L229.153,83.953 L229.156,83.197 L229.993,83.361 L230.365,83.008 L230.312,82.669 L229.629,81.842 L229.777,81.405 L230.174,81.952 L230.583,81.935 L231.44,81.238 L231.875,80.192 L231.498,80.284 L231.272,80.146 L231.539,79.494 L231.41,79.176 L230.649,79.738 L230.425,79.695 L230.668,79.036 L230.526,78.696 L229.499,79.329 L229.657,78.54 L230.029,78.306 L230.017,78.094 L229.267,78.308 L228.726,78.139 L228.721,77.774 L229.384,77.733 L229.699,77.26 L229.359,75.466 L229.687,74.185 L230.328,74.677 L230.539,74.481 L230.313,74.11 L229.269,73.785 L229.235,73.446 L229.573,73.442 L229.823,73.794 L230.44,73.394 L230.126,73.206 L229.629,73.285 L228.464,72.168 L228.458,71.89 L228.934,71.832 L229.158,71.398 L228.67,70.54 L228.572,69.693 L228.222,69.449 L227.845,70.032 L226.903,69.967 L226.554,69.736 L227.213,69.391 L227.121,69.124 L226.243,69.114 L225.701,68.489 L225.665,68.262 L225.985,67.778 L225.641,66.815 L226.262,66.541 L226.39,66.28 L224.619,65.48 L224.93,64.606 L224.625,63.967 L224.465,63.165 L224.941,62.478 L224.134,62.053 L224.388,61.361 L224.295,61.021 L223.637,60.514 L223.228,59.606 L222.761,59.161 L222.757,58.75 L222.044,58.257 L222.224,57.19 L221.993,57.137 L221.467,57.419 L221.174,57.218 L221.309,55.864 L221.136,55.258 L221.29,54.791 L221.069,54.193 L220.555,53.918 L220.465,53.543 L220.676,53.162 L222.275,52.673 L222.721,52.231 L222.692,51.87 L222.896,51.194 L223.497,50.95 L223.888,50.55 L224.16,49.949 L224.797,49.544 L224.733,48.904 L225.102,48.354 L226.202,47.943 L226.657,47.983 L227.045,47.275 L227.401,47.012 L227.595,46.448 L227.403,45.646 L227.919,44.364 L227.391,43.676 L226.98,43.432 L226.928,43.028 L227.362,42.106 L228.458,41.759 L228.685,41.648 L229.22,39.97 L229.938,39.464 L229.884,38.515 L229.391,37.564 L229.621,37.105 L230.366,36.445 L230.098,35.741 L230.133,35.35 L230.545,34.72 L232.066,34.017 L232.552,33.482 L232.597,32.791 L233.274,32.475 L233.697,31.652 L234.033,31.676 L234.145,31.264 L234.666,30.708 L234.362,30.414 L234.291,30.073 L234.946,29.711 L235.051,29.225 L235.53,28.895 L235.852,28.369 L236.508,28.437 L236.379,27.684 L236.712,27.279 L235.92,27.312 L235.831,26.746 L235.401,26 L234.453,24.85 L234.075,24.682 L234.368,24.358 L234.058,23.948 L234.036,23.436 L233.369,22.831 L233.962,22.698 L234.184,21.986 L233.833,21.773 L233.954,21.213 L233.664,21.016 L234.06,20.502 L234.16,19.546 L234.008,18.595 L233.6,18.744 L233.155,18.642 L233.214,18.282 L233.198,17.972 L232.881,17.633 L232.749,17.179 L232.229,16.705 L232.129,16.106 L231.611,15.906 L231.559,15.315 L231.102,15.388 L231.428,14.601 L232.076,14.257 L231.627,13.816 L232.359,12.87 L233.055,12.427 L234.273,12.048 L234.915,11.474 L235.402,11.411 L235.77,11.649 L236.085,12.128 L236.458,12.012 L237.218,12.638 L237.568,12.395 L238.161,12.394 L238.431,11.54 L238.678,11.222 L239.802,10.867 L240,10.533 L205.162,10.901 L187.401,11.49 L183.638,11.397 L169.087,11.789 L158.703,11.753 L152.889,11.9 z" fill="#002909"/>
  </g>
</svg>
