<?xml version="1.0" encoding="UTF-8"?>
<!DOCTYPE svg PUBLIC "-//W3C//DTD SVG 1.1//EN" "http://www.w3.org/Graphics/SVG/1.1/DTD/svg11.dtd">
<svg version="1.1" xmlns="http://www.w3.org/2000/svg" xmlns:xlink="http://www.w3.org/1999/xlink" x="0" y="0" width="252" height="18" viewBox="0, 0, 252, 18">
  <g id="Layer_1">
    <path d="M237.097,8.028 L237.097,8.029 L237.097,8.542 L237.097,8.542 L136.2,8.542 C136.07,9.751 135.056,10.699 133.813,10.699 C132.569,10.699 131.555,9.751 131.424,8.542 L131.126,8.542 C129.269,8.556 125.305,12.268 125.305,14 L124.792,14 C124.792,12.268 120.828,8.556 118.971,8.542 L118.673,8.542 C118.543,9.751 117.528,10.699 116.284,10.699 C115.041,10.699 114.026,9.751 113.896,8.542 L13.493,8.542 L13.493,8.542 L13.493,8.029 L13.493,8.028 L113.896,8.028 C114.026,6.82 115.041,5.872 116.284,5.872 C117.528,5.872 118.543,6.82 118.673,8.028 L118.96,8.028 C120.813,8.028 124.792,4.304 124.792,2.571 L125.305,2.571 C125.305,4.304 129.284,8.028 131.137,8.028 L131.424,8.028 C131.555,6.82 132.569,5.872 133.813,5.872 C135.055,5.872 136.07,6.82 136.2,8.028 z" fill="#000000"/>
  </g>
</svg>
