<svg xmlns="http://www.w3.org/2000/svg" viewBox="0 0 1000 150" height="1em" width="1em" class="plasmic-default__svg plasmic__default_style-module--all--NwouX PlasmicFooter-module--svg__crbm--MdLf8" role="img" style="fill: currentcolor;"><path d="M771.401 91.605c.324-.009.645-.03.967-.044 7.264-.385 14.584-1.845 20.597-4.114-5.008-.806-13.137-1.102-25.706-1.102-15.013 0-23.048-6.266-27.167-12.483a82.726 82.726 0 00-5.185 1.837c4.893 9.176 18.297 15.973 33.624 15.973h.035c.941 0 1.887-.032 2.835-.067m-38.253-16.533c-.994-2.211-1.552-4.533-1.552-6.931 0-1.133.079-2.189.23-3.173-15.591 4.92-30.63 14.26-36.285 19.256l-1.02.902-.07-1.359c-.159-3.212-1.343-5.286-3.616-6.339l-.892-.412.726-.665c2.36-2.154 18.802-14.667 34.825-18.193l1.906-.418-1.266 1.483c-.401.468-.954 1.998-.867 3.795l-1.311.064c-.056-1.246.144-2.42.454-3.322-14.17 3.559-28.352 13.822-32.152 16.953 1.867 1.183 3.001 3.098 3.379 5.711 6.441-5.29 21.249-14.224 36.467-18.908 1.823-7.748 8.118-10.398 11.422-10.398h.707l-.053.707c-.087 1.095-.036 4.551 1.217 7.32l.368.815-.893.101c-2.014.234-4.064.603-6.126 1.056.443 2.326 1.472 5.641 3.862 8.766 6.017-1.642 11.592-2.395 16.372-2.089-1.506-13.083-10.003-24.663-12.522-27.425-5.786.762-12.687 2.617-20.199 5.37-.297.115-.584.229-.905.349-7.35 2.748-15.248 6.329-23.263 10.607-14.205 7.59-26.182 16.071-30.267 21.389 7.388 4.332 14.894 12.919 20.165 21.511 13.076-12.052 27.763-21.183 41.159-26.523m.081-10.536a19.418 19.418 0 00-.321 3.605c0 2.233.525 4.398 1.451 6.46a92.13 92.13 0 015.065-1.786c-2.117-3.557-2.995-6.959-3.19-9.053-1.003.259-2.002.477-3.005.774m10.639-3.665c-.847-2.309-1.047-4.856-1.026-6.405-2.922.324-7.551 2.674-9.266 8.61 3.455-.997 6.917-1.766 10.292-2.205m197.357-33.374c0 3.963-3.43 6.641-10.194 7.961-5.294 1.037-11.537 1.06-15.777 1.06-.338 1.229-1.55 3.18-4.284 3.18-.659 0-1.824-.326-3.178-.704-1.07-.301-2.25-.628-3.093-.761-.186 2.645-1.395 6.921-4.55 6.921-1.872 0-3.299-1.054-4.344-1.821-.501-.372-1.073-.793-1.348-.793-.432 0-.895.166-1.437.361-.735.266-1.651.595-2.824.595-1.759 0-2.197-1.5-2.618-2.948-.688-2.349-1.542-5.27-7.785-5.27-3.182 0-7.653.389-11.921 1.412 7.974 1.008 18.954 5.051 18.954 12.902 0 2.509-1.679 4.134-4.271 4.134-2.168 0-3.37-1.804-4.335-3.251-.434-.652-.843-1.267-1.26-1.602-.611-.492-1.486-.551-2.413-.611-1.359-.09-2.898-.191-3.683-1.812-.14-.284-.163-.636-.195-1.078-.12-1.697-.326-4.537-7.141-4.537-14.737 0-28.288 12.001-33.335 21.526-1.173 2.453-1.825 4.54-2.02 5.967 3.208-.64 5.198.221 6.326 1.091 1.515 1.166 2.385 3.036 2.385 5.132 0 1.995-.865 3.763-2.308 4.729-.908.6-1.903.779-2.644.467l-.405-.166v-.439c0-.725-2.091-1.8-4.982-1.8-4.312 0-10.111 2.485-16.827 5.364-2.883 1.237-5.973 2.546-9.236 3.811 1.846 1.467 2.985 3.389 2.985 5.813 0 4.523-2.71 7.223-5.327 7.223-1.318 0-2.168-.872-2.168-2.224 0-1.084.866-1.635 1.704-2.168 1.105-.704 2.246-1.428 2.246-3.462 0-1.587-1.084-2.741-3.823-3.565-4.877 1.859-10.249 3.253-16.099 4.047-3.27.485-6.649.802-10.178.802v-.047c-.425.007-.827.047-1.256.047h-.035c-15.848 0-29.712-7.139-34.82-16.788-13.938 5.671-28.552 15.481-40.888 26.795 2.254 3.851 4.032 7.653 5.126 11.032.203-.353.45-.744.733-1.17 3.825-6.64 12.621-19.452 32.205-19.452 15.555 0 19.704 11.294 19.704 17.968 0 8.721-10.111 17.247-17.66 17.247-8.688 0-15.239-5.282-15.239-12.285 0-5.503 3.708-8.472 7.194-8.472 3.533 0 4.816 3.024 4.816 5.055v1.303l-1.046-.779c-1.319-.978-2.995-1.168-4.393-.461-1.384.693-2.178 2.116-2.178 3.903 0 4.637 3.726 7.207 5.627 7.493.055.007.103.01.138.014-.044-.404-.46-1.32-.722-1.896-.486-1.07-.987-2.177-.987-3.067 0-1.722 1.034-2.926 2.517-2.926 1.788 0 2.514 1.658 3.216 3.263.804 1.828 1.561 3.554 3.695 3.554 4.426 0 11.247-5.478 11.247-12.758 0-8.64-6.261-14.446-15.587-14.446-.08 0-.154 0-.222.004.293.143.647.306.984.459 2.994 1.366 9.233 4.214 9.233 11.03 0 3.187-1.722 5.249-4.388 5.249-1.614 0-3.355-1.282-3.355-3.35 0-.707.239-1.208.471-1.695.26-.542.528-1.106.528-2.132 0-1.573-3.565-6.122-10.366-6.122-12.58 0-20.684 8.647-24.002 13.446-.489.831-.9 1.579-1.249 2.208l-1.295 2.283-.413-1.534c-.946-3.527-2.835-7.733-5.342-12.029-7.625 7.113-14.33 14.772-19.394 22.319l-.616.919-.509-.983c-8.504-16.446-27.07-33.409-38.418-38.345l-.522-.227.154-.549c.707-2.555 11.537-17.546 28.311-32.067 14.054-12.166 35.767-27.051 62.202-32.299h-92.783c9.011 7.255 15.761 17.96 17.348 27.533 3.901-4.501 11.803-12.275 19.088-16.334-5.568.549-11.418.638-16.351-.939 1.099 1.993 2.043 4.672 2.043 6.135h-1.311c0-1.543-1.502-5.437-2.905-7.026l-1.955-2.215 2.709 1.18c6.137 2.679 14.363 2.061 21.611 1.092l5.816-.773-5.504 2.037c-8.502 3.149-19.285 14.027-23.177 18.803l-.987 1.212-.173-1.552c-1.124-10.123-8.582-21.891-18.56-29.28l-1.593-1.184h105.096l.074 1.304c-55.236 6.313-94.131 57.678-97.516 64.213 11.365 5.236 29.264 21.609 37.955 37.711 5.544-8.103 12.039-15.507 19.037-22.079-5.349-8.744-13.079-17.602-20.435-21.668l-.632-.349.409-.593c2.266-3.297 7.521-7.728 14.459-12.423-.853-.763-1.428-1.828-1.639-3.098-.399-2.394.542-5.14 2.517-7.34l.505-.562.487.581c2.847 3.439 10.2 2.789 15.525.057a215.264 215.264 0 019.498-4.725c-6.101 1.642-12.339 2.927-16.43 2.927-5.253 0-8.648-2.635-8.648-6.708 0-3.196 2.052-5.262 5.223-5.262 2.165 0 4.096 1.692 4.307 3.77l.069.722h-.721c-.57 0-1.688.442-1.688 1.458 0 .956.99 1.97 2.829 1.97 7.2 0 19.943-1.887 29.79-5.011.246-.097.48-.191.704-.283l.01.03c.461-.165.911-.299 1.368-.457.398-.142.813-.275 1.198-.422l.007.02c5.995-2.004 11.776-3.492 16.933-4.135l.322-.043.227.236c2.3 2.372 11.863 15.025 13.186 29.22l.073.779-.781-.067c-4.998-.438-10.476.216-16.204 1.727 3.586 4.08 9.698 7.56 20.215 7.56 5.758 0 8.571-2.798 10.626-4.84 1.265-1.26 2.268-2.254 3.561-2.254 1.447 0 2.257 1.237 2.905 2.231.474.722.918 1.408 1.414 1.408 1.387 0 2.171-1.807 3.078-3.901 1.346-3.104 3.022-6.966 7.696-6.966 2.997 0 4.567 2.432 4.567 4.836 0 3.43-3.986 6.077-7.189 8.203-1.66 1.1-3.724 2.468-3.724 3.166 0 .248.072.546.43.546 4.029 0 8.068.712 11.138 2.212 5.117-2.797 8.442-6.34 8.442-10.396 0-.31-.102-.774-.223-1.311-.205-.903-.457-2.026-.457-3.373 0-3.346 3.072-7.162 5.767-7.162.978 0 1.713.651 2.25 1.128.17.151.4.354.492.39.525-.013.902-1.522.902-3.949 0-4.523-3.015-7.306-4.472-7.946l-.653-.289.34-.623c.6-1.118 2.03-2.422 4.069-2.422 3.701 0 6.389 4.172 6.389 9.916 0 1.566-.197 3.12-.53 4.617 1.419-3.556 2.133-7.316 2.133-11.254 0-7.118-4.776-12.896-7.893-12.896-.326 0-.4.084-.678.544-.37.617-.934 1.55-2.778 1.55-1.621 0-2.507-1.722-3.366-3.387-.867-1.688-1.765-3.435-3.271-3.435-1.527 0-2.182 1.18-2.941 2.847-.524 1.15-1.064 2.34-2.242 2.34-2.031 0-7.293-5.164-7.293-6.659 0-.847 1.016-1.299 2.704-2.043 1.175-.519 3.357-1.485 3.357-2.158 0-.209-.274-.326-1.679-.326-9.461 0-16.53 7.094-16.53 13.438 0 6.525 6.01 9.347 9.076 9.347 3.117 0 3.797-1.626 3.797-2.253 0-1-.494-1.435-.971-1.854-.381-.336-.809-.714-.809-1.319 0-.504.265-.753.425-.854.553-.371 1.284-.055 2.395.441.911.402 2.048.903 2.964.903.82 0 1.428-.172 1.913-.311.544-.151 1.053-.296 1.481.028.406.306.461.843.461 1.329 0 2.538-3.338 7.283-11.381 7.283-8.362 0-14.203-5.742-14.203-13.964 0-1.428.172-2.587.406-3.538-3.03 1.738-8.589 3.6-14.122 3.6-8.045 0-13.022-5.746-13.022-11.069 0-4.942 4.195-7.975 7.204-7.975 2.825 0 3.851 1.666 3.851 2.785 0 1.87-2.367 2.892-3.58 2.892-.764 0-1.242-.192-1.657-.358-.358-.144-.643-.255-1.128-.255-1.152 0-1.736 1.089-1.736 3.245 0 5.227 6.298 7.847 9.823 7.847 3.205 0 6.522-.574 7.356-1.086a3.418 3.418 0 00-.473-.413c-1.864-1.24-6.295-5.766-4.447-11.742l.496-1.591.723 1.502c1.46 3.047 3.203 4.495 9.14 4.495 2.952 0 5.545-.691 8.546-1.49 3.779-1.008 8.06-2.147 14.14-2.147 14.74 0 30.525 10.291 30.525 25.614 0 10.984-6.776 22.427-18.839 30.541l.843-.358c7.127-3.056 12.761-5.469 17.341-5.469 2.788 0 5.658.946 6.199 2.557.294-.005.687-.121 1.103-.399 1.079-.723 1.726-2.081 1.726-3.639 0-1.686-.68-3.18-1.873-4.094-1.433-1.104-3.536-1.327-6.08-.659l-.822.218v-.858c.004-2.019.79-4.519 2.211-7.205 5.411-11.335 21.283-30.065 53.411-30.065 7.923 0 14.43.286 20.725.56 5.501.236 10.699.463 16.235.463 7.581 0 14.485-2.775 14.485-5.824 0-2.455 1.581-4.168 3.839-4.168 1.749 0 3.521 1.573 3.521 4.578m47.295-4.816c-6.47 1.21-11.965 4.029-15.08 7.737l-.641.764-.445-.892c-1.283-2.567-6.316-7.595-12.145-7.595H825.414c5.645 4.132 10.037 10.584 11.633 17.146 3.485-3.183 10.428-7.441 16.568-9.839-5.281.023-11.095.083-13.762.111.564.702 1.196 1.683 1.496 2.805l-1.265.338c-.482-1.818-2.133-3.272-2.149-3.286l-1.297-1.129 1.718-.021c.117 0 11.753-.138 19.377-.138h5.217l-5.054 1.288c-7.117 1.816-17.176 7.839-20.759 11.616l-.88.925-.241-1.249c-1.4-7.303-6.536-14.628-13.087-18.668l-1.968-1.21h167.437zm-488.521-9.672c31.991 0 58.395 24.36 61.65 55.502h16.32c8.975.002 15.002-5.738 15.002-14.281 0-5.721-4.363-10.302-9.939-10.426a6.865 6.865 0 00-4.948 1.92 6.898 6.898 0 00-2.14 4.858 4.613 4.613 0 004.5 4.709 2.883 2.883 0 002.085-.81c.278-.267.498-.579.65-.921a2.575 2.575 0 01-2.136 1.024 3.064 3.064 0 01-2.158-.95 3.046 3.046 0 01-.852-2.198c.046-2.045 1.727-3.685 3.793-3.627a4.554 4.554 0 013.213 1.416 4.556 4.556 0 011.271 3.274 5.766 5.766 0 01-1.79 4.064 5.7 5.7 0 01-4.14 1.607c-4.126-.092-7.409-3.524-7.317-7.65a9.767 9.767 0 013.032-6.878 9.762 9.762 0 017.005-2.717c7.15.159 12.754 6.004 12.754 13.305 0 10.105-7.356 17.163-17.885 17.163h-16.092c.069 1.194.113 2.396.113 3.607 0 1.212-.044 2.413-.113 3.609h16.092c10.529 0 17.885 7.058 17.885 17.162 0 7.301-5.604 13.147-12.754 13.307-.077.002-.153.002-.227.002a9.741 9.741 0 01-6.778-2.722 9.754 9.754 0 01-3.032-6.875c-.092-4.126 3.191-7.56 7.317-7.652a5.763 5.763 0 014.14 1.607 5.777 5.777 0 011.792 4.066 4.565 4.565 0 01-1.273 3.272 4.55 4.55 0 01-3.213 1.417c-2.018.062-3.747-1.582-3.793-3.628a3.084 3.084 0 013.01-3.148 2.592 2.592 0 011.871.726c.095.09.182.19.264.291a2.918 2.918 0 00-2.734-1.722 4.61 4.61 0 00-4.5 4.707c.083 3.77 3.18 6.78 6.934 6.78.052 0 .103 0 .154-.002 5.576-.124 9.939-4.704 9.939-10.426 0-8.543-6.027-14.283-15.002-14.283h-16.32c-3.255 31.146-29.659 55.502-61.65 55.502-31.99 0-58.395-24.356-61.649-55.502h-16.321c-8.973 0-15.002 5.74-15.004 14.283.002 5.722 4.366 10.302 9.939 10.426.053.002.105.002.156.002 3.756 0 6.851-3.01 6.936-6.78a4.61 4.61 0 00-4.502-4.707 2.921 2.921 0 00-2.728 1.716 2.62 2.62 0 012.13-1.011 3.083 3.083 0 013.01 3.148 3.678 3.678 0 01-1.147 2.599 3.68 3.68 0 01-2.647 1.029 4.595 4.595 0 01-4.484-4.689 5.792 5.792 0 015.93-5.673c4.128.092 7.411 3.526 7.317 7.65-.122 5.414-4.631 9.723-10.036 9.597-7.151-.16-12.753-6.006-12.753-13.307 0-10.104 7.354-17.162 17.883-17.162h16.094a60.821 60.821 0 01-.114-3.609c0-1.211.043-2.413.114-3.607h-16.094c-10.529 0-17.883-7.058-17.883-17.163 0-7.301 5.602-13.146 12.753-13.305.076-.004.15-.004.225-.004 5.311 0 9.692 4.261 9.811 9.599.094 4.126-3.191 7.558-7.317 7.65-3.169.065-5.859-2.472-5.93-5.671a4.595 4.595 0 014.484-4.69 3.689 3.689 0 012.647 1.028 3.677 3.677 0 011.147 2.601 3.05 3.05 0 01-.853 2.196 3.06 3.06 0 01-2.157.95c-.849.032-1.639-.381-2.132-1.017a2.91 2.91 0 002.73 1.724 4.61 4.61 0 004.5-4.709c-.085-3.823-3.283-6.871-7.09-6.778-5.573.124-9.937 4.705-9.939 10.426.002 8.543 6.031 14.283 15.004 14.281h16.321c3.254-31.142 29.659-55.502 61.649-55.502zm0 2.882c-30.399 0-55.504 23.071-58.746 52.62a57.102 57.102 0 00-.242 2.882 59.056 59.056 0 00-.123 3.607c0 1.214.05 2.413.123 3.609.058.966.136 1.926.242 2.879 3.242 29.551 28.347 52.623 58.746 52.623 30.4 0 55.506-23.072 58.746-52.623a59.3 59.3 0 00.244-2.879A59.1 59.1 0 00559.11 75a59.06 59.06 0 00-.121-3.607 59.53 59.53 0 00-.244-2.882c-3.24-29.549-28.346-52.62-58.746-52.62zm0 7.314c26.406 0 48.182 19.766 51.378 45.306.118.953.212 1.913.278 2.882.083 1.194.14 2.394.14 3.607 0 1.214-.057 2.415-.14 3.609-.066.968-.16 1.928-.278 2.879-3.196 25.542-24.972 45.308-51.378 45.308s-48.181-19.766-51.377-45.308a54.259 54.259 0 01-.28-2.879 52.587 52.587 0 01-.138-3.609c0-1.213.056-2.413.138-3.607.069-.969.161-1.929.28-2.882 3.196-25.54 24.971-45.306 51.377-45.306zm0 4.154c-24.066.002-44.009 17.943-47.186 41.152a48.63 48.63 0 00-.303 2.882 47.886 47.886 0 00-.15 3.607c0 1.216.06 2.417.15 3.609.075.968.172 1.93.303 2.879 3.177 23.21 23.12 41.152 47.186 41.152s44.011-17.942 47.188-41.152a50.17 50.17 0 00.303-2.879c.088-1.192.15-2.393.15-3.609 0-1.213-.062-2.414-.15-3.607a50.369 50.369 0 00-.303-2.882c-3.177-23.209-23.122-41.15-47.188-41.152zm0 3.565c24.303.002 44.075 19.773 44.075 44.076 0 24.304-19.772 44.075-44.075 44.075-24.303 0-44.075-19.771-44.075-44.075 0-24.303 19.772-44.074 44.075-44.074zm-3.944 13.337l-3.75.023c-2.927.009-5.893.016-8.837.111-.569-.184-.827.369-.806.824.397.337.319.778.301 1.254.237.628-.647.734-.558 1.365.037.499-.517.715-.342 1.146.23.372.696.593.983.965.27.527-.324.766-.382 1.235-.328.363-.316.813-.277 1.29-.11.303.245.477-.09.679.09.182-.177.349-.007.588-.238.026-.133.331-.316.427.229.172-.049.214-.053.391-.118.37.043.562.209.898-.205.303.05.633.255.902.098.282.557.268.582.56.148.147.136.441.359.51.007.231.059.425.266.567.186.394.312.868.236 1.318.382.622-.234 1.272-.374 1.884-.599.311-.335.919-.154 1.401-.165.664.334 1.245.237 1.873-.048.124-.101.253-.14.382-.069.206-.427.181-.517.367-.307.29-.353.826-.803.999-.241.142-.228.339-.31.567-.124.257-.122.592-.214.886-.365.207-.243.526-.184.859-.224.61-.534 1.189-.582 1.859.316.308.904.522.658 1.093-.192.48.026.909.053 1.392-.174.571.119 1.184.484 1.614.377.31.078.638.035.985.214.154.269.411-.05.507-.483.354.16.57.158.946.252.211.47.432.579.756-.163.427-.542.775-.439 1.272-.292.243-.409.617-.679.853-.125.246-.069.616-.258.885.025.312-.448.431-.296.743.404.232-.034.473.108.76-.393.405-.046.629.301.848.245.266.33.007.512-.06.027-.131.071-.303-.041-.372.107-.062.078-.158.126-.253.177-.009.185-.28.119-.362.175-.088 0-.409.188-.317.2-.189.342.089.441 0 .135-.076.267-.118.432-.062.176-.207.314.16.431-.025.207-.122.129.459.156.445.361.057.07.537.184.67-.163.239-.029.225.191.179.027.17.314.122.363.212-.026.05.337.172.302.387.244.099-.008.301.168.411.264.223-.114.453-.013.705-.118 5.804-.476 11.606-.664 17.413.165.675-.328.826-.159 1.394-.279.555.108 1.235.175 1.852 6.031.124 12.061.296 18.09.512-.085-.332-.423-.5-.397-.872-.154-.182-.448-.583-.579-.2-.156.186-.462-.039-.19-.175.181-.442-.604-.624-.69-1.014-.126-.361-.024-.795-.312-1.095.11-.306-.142-.898.306-.987.372-.108.115-.568.399-.706-.091-.284.072-.707-.193-.888-.055-.291.391-.427.616-.47.261.043.415-.301.624-.178.453-.068.166-.491.377-.745.236.068.555-.251.204-.4-.459-.147-.048-.68-.353-.912-.023-.31.388-.463.56-.697.351-.246-.048-.526-.017-.804.324-.143.23-.496 0-.673.166-.312-.296-.119-.321-.434.129-.209.097-.498.104-.758.415-.101-.062-.39.087-.548.335-.14.128-.462.183-.724.255-.295-.1-.613.062-.936.365-.172.597-.496.689-.914-.016-.278.264-.482.193-.725-.484-.255-.156-.77.159-1.04-.124-.099-.607-.039-.545-.363-.176-.397.363-.521.292-.898.034-.572.287-1.141.195-1.708.386-.301.356-.942-.115-1.167-.071-.364.189-.475.344-.739.106-.268-.077-.682.053-.826.024-.508.726-.409.969-.779.439-.149-.121-.408.065-.677.153-.135.053-.266.137-.399.441-.023.157-.46.395-.666.301-.28.037-.512.09-.871.112-.33.36-.601.604-.844.099-.297.42-.218.636-.416.34-.087.51-.34.663-.645.443-.027.189-.464.425-.629.136-.198.346-.384.353-.622-.257-.303.157-.616-.007-.953-.178-.259-.008-.584.308-.567.094-.127-.285-.576.189-.499.08-.294.358-.498.608-.663.427-.145.381-.595.356-.951.266.032.461-.255.397-.445.344-.05.092-.145-.112-.175-.287.228-.166-.241-.15-.431-.181-.174-.064-.31.115-.416.112-.085-.066-.519.275-.33.177.3-.105-.124-.002-.248.129-.049.331.144.297-.154.303-.089-.203-.489.282-.523.324-.049-.069-.108.004-.248.249.054.304-.164.437-.331-.204-.147.011-.308.172-.22.346.091.071-.184-.104-.253.285.082.48-.484.095-.418-.071.418-.416-.087-.281-.292-.043-.332.389-.209.448-.465-.227-.085-.193-.35-.2-.566.171-.181-.082-.062.005-.24-.16-.012-.303-.292-.342-.513-.393-.257.05-.55-.036-.789.218-.147.075-.485.229-.719.053-.223-.319-.505-.248-.682-.057-.039.03-.085.027-.119.024-.149-.069-.062-.176-.055-.074-.343.316-.627.569-.737.416-.11-.055-.811.406-.691.271.027.715-.133.841-.391.374-.099.819.009 1.198-.032.225-.363.639-.333.969-.151.445.369.955-.134 1.405-.273.429.054.039-.343.227-.476-.147-.213.031-.411.288-.385-.235-.315.284-.467.526-.428.22-.275.489-.1.725-.007.108-.424.571-.137.843-.312.227-.085.427-.39.606-.372-.136-.351.344-.154.434-.48-.067-.417.229-.387.429-.553-.313-.124-.126-.289.067-.416.098-.209.415.014.046.056-.07.218.346.08.319-.163.186-.032.535.052.541-.285-.066-.337.198.025.182-.158-.058-.267.013-.037.183-.017.053-.103-.167-.286-.245-.399-.285-.246.137-.099.232-.262.402-.378-.186-.537-.418-.755-.032-.489.555-.193.843-.262-.031-.243.16-.09.266-.207-.163-.043-.172-.433-.067-.289-.014.34.554-.181.232-.179.205-.291-.299.133-.11-.19-.104.071-.351.089-.119-.095-.023.009-.446-.036-.143-.1.179-.07-.161-.784.2-.508.112-.044-.407-.239-.094-.151.232 0-.099-.113-.255-.251.184-.071.076-.269-.011-.432-.069.109-.517.101-.226-.039-.298.014-.247-.192-.294-.388.272-.108.003-.167-.158-.211.05-.11-.129-.376.003-.482-.138-.053-.065-.23-.186-.331-.086-.218-.395-.319-.306-.562-.298.112-.158-.271-.198-.459-.273-.138-.025-.283.175-.28.143-.182.264-.358.476-.506-.015-.287.38-.204.502-.419.021-.175.227-.473-.027-.584-.152-.317.363-.222.351-.473.363-.177-.103-.534.252-.682-.185-.325.329-.319.425-.535.083-.151.257-.245.377-.397-.124-.144.126-.231.227-.378.193.043.064-.113.181-.18-.176.017-.2-.208-.349-.348-.204-.088-.062-.198-.208-.347-.218-.193.032.021.069-.172-.157-.147.054-.301-.024-.551-.055-.039-.261-.012-.039-.108-.13.059-.062-.042-.146-.065-.088-.119-.248-.261-.265-.367-.293-.003.177-.218.012-.239.013-.253.422-.241.59-.415.255-.044.361.257.618.144.043-.168.2-.238.36-.284-6.218-.03-12.545.222-18.806.222-1.938-.114-3.889-.043-5.822-.177l-3.724-.14zm104.051 19.776c-1.154 5.096-6.306 8.742-9.527 10.226-.598.19-1.197.406-1.796.659l-.002.156c.601.257 1.2.47 1.8.661 3.221 1.485 8.371 5.131 9.525 10.224 2.646-1.212 3.233-5.967 2.395-8.84a38.117 38.117 0 004.379-.424c2.034-.333 4.066-.799 6.1-1.699-2.034-.9-4.066-1.366-6.1-1.699a39.03 39.03 0 00-4.379-.423c.838-2.874.251-7.629-2.395-8.841zm-200.213 0c-2.647 1.212-3.234 5.967-2.396 8.841-1.459.06-2.919.197-4.379.423-2.034.333-4.066.799-6.1 1.699 2.034.9 4.066 1.366 6.1 1.699 1.46.229 2.92.365 4.379.424-.838 2.873-.251 7.628 2.396 8.84 1.153-5.093 6.305-8.739 9.524-10.224a19.508 19.508 0 001.8-.662l-.002-.155a20.637 20.637 0 00-1.796-.659c-3.219-1.484-8.373-5.13-9.528-10.226zM228.599 91.605c-.324-.009-.645-.03-.967-.044-7.264-.385-14.584-1.845-20.597-4.114 5.008-.806 13.137-1.102 25.706-1.102 15.013 0 23.048-6.266 27.167-12.483a82.726 82.726 0 015.185 1.837c-4.893 9.176-18.297 15.973-33.624 15.973h-.035a76.98 76.98 0 01-2.835-.067m38.253-16.533c.994-2.211 1.552-4.533 1.552-6.931 0-1.133-.079-2.189-.23-3.173 15.591 4.92 30.63 14.26 36.285 19.256l1.02.902.07-1.359c.159-3.212 1.343-5.286 3.616-6.339l.892-.412-.726-.665c-2.36-2.154-18.802-14.667-34.825-18.193l-1.906-.418 1.266 1.483c.401.468.954 1.998.867 3.795l1.311.064c.056-1.246-.144-2.42-.454-3.322 14.17 3.559 28.352 13.822 32.152 16.953-1.867 1.183-3.001 3.098-3.379 5.711-6.441-5.29-21.249-14.224-36.467-18.908-1.823-7.748-8.118-10.398-11.422-10.398h-.707l.053.707c.087 1.095.036 4.551-1.217 7.32l-.368.815.893.101c2.014.234 4.064.603 6.126 1.056-.443 2.326-1.472 5.641-3.862 8.766-6.018-1.642-11.592-2.395-16.372-2.089 1.506-13.083 10.003-24.663 12.522-27.425 5.786.762 12.687 2.617 20.199 5.37.297.115.584.229.905.349 7.35 2.748 15.248 6.329 23.263 10.607 14.205 7.59 26.182 16.071 30.267 21.389-7.388 4.332-14.894 12.919-20.165 21.511-13.076-12.052-27.763-21.183-41.159-26.523m-.081-10.536c.207 1.097.321 2.296.321 3.605 0 2.233-.525 4.398-1.451 6.46a92.423 92.423 0 00-5.065-1.786c2.117-3.557 2.995-6.959 3.19-9.053 1.003.259 2.002.477 3.005.774m-10.639-3.665c.847-2.309 1.047-4.856 1.026-6.405 2.921.324 7.551 2.674 9.266 8.61-3.455-.997-6.917-1.766-10.292-2.205M58.775 27.497c0 3.963 3.43 6.641 10.194 7.961 5.294 1.037 11.537 1.06 15.777 1.06.338 1.229 1.55 3.18 4.284 3.18.659 0 1.824-.326 3.178-.704 1.07-.301 2.25-.628 3.093-.761.186 2.645 1.395 6.921 4.55 6.921 1.872 0 3.299-1.054 4.344-1.821.501-.372 1.073-.793 1.348-.793.432 0 .895.166 1.437.361.735.266 1.651.595 2.824.595 1.759 0 2.197-1.5 2.618-2.948.688-2.349 1.542-5.27 7.785-5.27 3.182 0 7.653.389 11.921 1.412-7.974 1.008-18.954 5.051-18.954 12.902 0 2.509 1.679 4.134 4.271 4.134 2.168 0 3.37-1.804 4.335-3.251.434-.652.843-1.267 1.26-1.602.611-.492 1.486-.551 2.413-.611 1.359-.09 2.898-.191 3.683-1.812.14-.284.163-.636.195-1.078.12-1.697.326-4.537 7.141-4.537 14.737 0 28.288 12.001 33.335 21.526 1.173 2.453 1.825 4.54 2.02 5.967-3.208-.64-5.198.221-6.326 1.091-1.515 1.166-2.383 3.036-2.383 5.132 0 1.995.863 3.763 2.306 4.729.908.6 1.903.779 2.644.467l.405-.166v-.439c0-.725 2.091-1.8 4.982-1.8 4.312 0 10.111 2.485 16.827 5.364 2.883 1.237 5.972 2.546 9.236 3.811-1.846 1.467-2.985 3.389-2.985 5.813 0 4.523 2.71 7.223 5.327 7.223 1.318 0 2.168-.872 2.168-2.224 0-1.084-.866-1.635-1.704-2.168-1.105-.704-2.246-1.428-2.246-3.462 0-1.587 1.084-2.741 3.823-3.565 4.877 1.859 10.249 3.253 16.099 4.047 3.27.485 6.649.802 10.178.802v-.047c.425.007.827.047 1.256.047h.035c15.848 0 29.712-7.139 34.82-16.788 13.938 5.671 28.552 15.481 40.888 26.795-2.254 3.851-4.033 7.653-5.126 11.032-.203-.353-.45-.744-.733-1.17-3.825-6.64-12.621-19.452-32.205-19.452-15.555 0-19.704 11.294-19.704 17.968 0 8.721 10.111 17.247 17.66 17.247 8.688 0 15.239-5.282 15.239-12.285 0-5.503-3.708-8.472-7.194-8.472-3.533 0-4.816 3.024-4.816 5.055v1.303l1.046-.779c1.319-.978 2.995-1.168 4.393-.461 1.384.693 2.178 2.116 2.178 3.903 0 4.637-3.726 7.207-5.627 7.493-.055.007-.103.01-.138.014.044-.404.46-1.32.722-1.896.486-1.07.987-2.177.987-3.067 0-1.722-1.034-2.926-2.517-2.926-1.788 0-2.514 1.658-3.216 3.263-.802 1.828-1.561 3.554-3.695 3.554-4.426 0-11.247-5.478-11.247-12.758 0-8.64 6.261-14.446 15.587-14.446.08 0 .154 0 .222.004-.293.143-.647.306-.984.459-2.994 1.366-9.233 4.214-9.233 11.03 0 3.187 1.722 5.249 4.388 5.249 1.614 0 3.355-1.282 3.355-3.35 0-.707-.239-1.208-.471-1.695-.26-.542-.528-1.106-.528-2.132 0-1.573 3.565-6.122 10.366-6.122 12.58 0 20.684 8.647 24.002 13.446.489.831.9 1.579 1.249 2.208l1.295 2.283.413-1.534c.946-3.527 2.835-7.733 5.342-12.029 7.625 7.113 14.33 14.772 19.394 22.319l.616.919.509-.983c8.504-16.446 27.07-33.409 38.418-38.345l.521-.227-.153-.549c-.707-2.555-11.537-17.546-28.311-32.067-14.054-12.166-35.767-27.051-62.202-32.299h92.783c-9.011 7.255-15.761 17.96-17.348 27.533-3.901-4.501-11.803-12.275-19.088-16.334 5.568.549 11.418.638 16.351-.939-1.101 1.993-2.043 4.672-2.043 6.135h1.311c0-1.543 1.502-5.437 2.905-7.026l1.954-2.215-2.708 1.18c-6.137 2.679-14.363 2.061-21.611 1.092l-5.816-.773 5.504 2.037c8.502 3.149 19.285 14.027 23.177 18.803l.987 1.212.173-1.552c1.124-10.123 8.582-21.891 18.56-29.28l1.591-1.184H268.567l-.074 1.304c55.236 6.313 94.131 57.678 97.516 64.213-11.365 5.236-29.264 21.609-37.955 37.711-5.544-8.103-12.039-15.507-19.037-22.079 5.349-8.744 13.079-17.602 20.435-21.668l.632-.349-.409-.593c-2.266-3.297-7.521-7.728-14.459-12.423.853-.763 1.428-1.828 1.639-3.098.399-2.394-.542-5.14-2.517-7.34l-.505-.562-.487.581c-2.847 3.439-10.2 2.789-15.525.057a215.264 215.264 0 00-9.498-4.725c6.101 1.642 12.339 2.927 16.43 2.927 5.253 0 8.647-2.635 8.647-6.708 0-3.196-2.051-5.262-5.222-5.262-2.165 0-4.096 1.692-4.307 3.77l-.069.722h.721c.57 0 1.688.442 1.688 1.458 0 .956-.99 1.97-2.829 1.97-7.2 0-19.943-1.887-29.79-5.011-.246-.097-.48-.191-.704-.283l-.01.03c-.461-.165-.911-.299-1.37-.457-.397-.142-.811-.275-1.196-.422l-.007.02c-5.995-2.004-11.776-3.492-16.933-4.135l-.322-.043-.227.236c-2.3 2.372-11.863 15.025-13.186 29.22l-.073.779.781-.067c4.996-.438 10.476.216 16.204 1.727-3.586 4.08-9.698 7.56-20.215 7.56-5.758 0-8.571-2.798-10.626-4.84-1.265-1.26-2.268-2.254-3.561-2.254-1.447 0-2.257 1.237-2.906 2.231-.473.722-.917 1.408-1.413 1.408-1.387 0-2.171-1.807-3.078-3.901-1.346-3.104-3.022-6.966-7.696-6.966-2.997 0-4.567 2.432-4.567 4.836 0 3.43 3.986 6.077 7.189 8.203 1.66 1.1 3.724 2.468 3.724 3.166 0 .248-.072.546-.43.546-4.029 0-8.068.712-11.138 2.212-5.117-2.797-8.442-6.34-8.442-10.396 0-.31.102-.774.223-1.311.205-.903.457-2.026.457-3.373 0-3.346-3.072-7.162-5.767-7.162-.978 0-1.713.651-2.25 1.128-.17.151-.4.354-.492.39-.525-.013-.902-1.522-.902-3.949 0-4.523 3.015-7.306 4.472-7.946l.653-.289-.34-.623c-.6-1.118-2.03-2.422-4.069-2.422-3.701 0-6.389 4.172-6.389 9.916 0 1.566.197 3.12.53 4.617-1.419-3.556-2.133-7.316-2.133-11.254 0-7.118 4.776-12.896 7.893-12.896.326 0 .4.084.678.544.37.617.934 1.55 2.778 1.55 1.621 0 2.507-1.722 3.366-3.387.867-1.688 1.765-3.435 3.271-3.435 1.527 0 2.182 1.18 2.941 2.847.524 1.15 1.064 2.34 2.242 2.34 2.031 0 7.293-5.164 7.293-6.659 0-.847-1.016-1.299-2.704-2.043-1.175-.519-3.357-1.485-3.357-2.158 0-.209.274-.326 1.679-.326 9.461 0 16.53 7.094 16.53 13.438 0 6.525-6.01 9.347-9.076 9.347-3.117 0-3.797-1.626-3.797-2.253 0-1 .494-1.435.971-1.854.381-.336.809-.714.809-1.319 0-.504-.265-.753-.425-.854-.553-.371-1.284-.055-2.395.441-.911.402-2.048.903-2.964.903-.82 0-1.428-.172-1.913-.311-.544-.151-1.053-.296-1.481.028-.406.306-.461.843-.461 1.329 0 2.538 3.338 7.283 11.381 7.283 8.362 0 14.203-5.742 14.203-13.964 0-1.428-.172-2.587-.406-3.538 3.03 1.738 8.589 3.6 14.122 3.6 8.045 0 13.022-5.746 13.022-11.069 0-4.942-4.196-7.975-7.204-7.975-2.826 0-3.851 1.666-3.851 2.785 0 1.87 2.367 2.892 3.58 2.892.764 0 1.242-.192 1.657-.358.358-.144.643-.255 1.128-.255 1.152 0 1.736 1.089 1.736 3.245 0 5.227-6.298 7.847-9.823 7.847-3.205 0-6.522-.574-7.356-1.086.143-.149.338-.322.473-.413 1.864-1.24 6.294-5.766 4.447-11.742l-.496-1.591-.723 1.502c-1.46 3.047-3.203 4.495-9.14 4.495-2.952 0-5.545-.691-8.546-1.49-3.779-1.008-8.06-2.147-14.14-2.147-14.74 0-30.525 10.291-30.525 25.614 0 10.984 6.776 22.427 18.839 30.541l-.843-.358c-7.127-3.056-12.761-5.469-17.341-5.469-2.788 0-5.658.946-6.199 2.557-.294-.005-.687-.121-1.103-.399-1.079-.723-1.726-2.081-1.726-3.639 0-1.686.68-3.18 1.873-4.094 1.433-1.104 3.536-1.327 6.08-.659l.822.218v-.858c-.004-2.019-.79-4.519-2.211-7.205-5.411-11.335-21.283-30.065-53.411-30.065-7.923 0-14.43.286-20.725.56-5.501.236-10.699.463-16.235.463-7.581 0-14.485-2.775-14.485-5.824 0-2.455-1.581-4.168-3.839-4.168-1.749 0-3.521 1.573-3.521 4.578M11.48 22.681c6.47 1.21 11.965 4.029 15.08 7.737l.641.764.445-.892c1.283-2.567 6.316-7.595 12.144-7.595h134.796c-5.645 4.132-10.037 10.584-11.633 17.146-3.485-3.183-10.428-7.441-16.568-9.839 5.281.023 11.095.083 13.762.111-.564.702-1.196 1.683-1.496 2.805l1.265.338c.482-1.818 2.133-3.272 2.149-3.286l1.297-1.129-1.718-.021c-.117 0-11.753-.138-19.377-.138h-5.217l5.054 1.288c7.117 1.816 17.176 7.839 20.759 11.616l.88.925.241-1.249c1.4-7.303 6.536-14.628 13.087-18.668l1.968-1.21H11.602z"></path></svg>