<?xml version="1.0" encoding="UTF-8"?>
<!DOCTYPE svg PUBLIC "-//W3C//DTD SVG 1.1//EN" "http://www.w3.org/Graphics/SVG/1.1/DTD/svg11.dtd">
<svg version="1.1" xmlns="http://www.w3.org/2000/svg" xmlns:xlink="http://www.w3.org/1999/xlink" x="0" y="0" width="403.2" height="144" viewBox="0, 0, 403.2, 144">
  <g id="Layer_1">
    <path d="M398.785,28.05 C397.777,28.05 396.957,27.229 396.957,26.22 C396.957,25.212 397.777,24.391 398.785,24.391 C399.793,24.391 400.615,25.212 400.615,26.22 C400.615,27.229 399.793,28.05 398.785,28.05 M393.718,127.674 C393.197,126.807 392.606,125.826 390.311,125.826 C386.129,125.826 384.033,124.784 382.182,123.866 C380.667,123.113 379.234,122.402 376.995,122.402 L220.289,122.402 L220.167,122.718 C220.167,122.718 218.312,127.558 217.471,129.769 C215.505,126.792 208.235,117.198 196.318,117.198 C190.279,117.198 185.189,119.914 182.765,123.933 C182.956,122.808 183.182,121.671 183.415,120.552 C187.46,116.832 191.686,115.017 196.318,115.017 C205.84,115.017 212.612,120.487 216.617,125.076 L216.834,125.324 L218.255,121.617 C218.576,120.782 219.395,120.221 220.289,120.221 L376.995,120.221 C379.747,120.221 381.556,121.119 383.153,121.912 C384.947,122.803 386.642,123.645 390.311,123.645 C392.997,123.645 394.263,125.166 395.381,126.507 C396.211,127.505 396.946,128.387 398.082,128.387 C398.147,128.387 398.215,128.379 398.282,128.373 L398.282,129.725 C394.9,129.637 394.299,128.64 393.718,127.674 M199.803,123.875 C196.584,121.786 192.689,122.258 190.398,123.664 C190.882,122.265 191.331,120.771 191.451,118.854 C192.963,118.427 194.597,118.183 196.318,118.183 C198.174,118.183 199.901,118.444 201.52,118.864 C200.216,120.09 199.828,121.926 199.803,123.875 M191.261,126.761 C191.188,128.687 191.897,129.86 192.287,130.354 C192.21,130.899 191.752,131.555 190.841,131.555 C189.984,131.555 189.074,130.864 189.074,129.582 C189.074,128.533 189.827,127.443 191.261,126.761 M199.803,124.353 C199.818,125.296 199.906,126.255 200.008,127.178 C198.859,125.869 197.022,125.084 194.723,125.084 C192.267,125.084 190.496,125.815 189.397,126.844 C189.604,125.953 189.884,125.128 190.181,124.287 C192.309,122.694 196.466,122.039 199.803,124.353 M191.732,138.014 C185.557,138.014 182.225,133.517 182.225,129.286 C182.225,124.728 185.552,120.902 190.431,119.174 C190.264,121.011 189.777,122.468 189.286,123.86 C188.697,125.526 188.088,127.248 188.088,129.582 C188.088,131.434 189.488,132.541 190.841,132.541 C192.37,132.541 193.285,131.345 193.285,130.187 L193.285,129.996 L193.157,129.854 C192.887,129.561 192.064,128.472 192.276,126.384 C192.982,126.185 193.798,126.069 194.723,126.069 C197.511,126.069 200.323,127.502 200.323,130.701 C200.323,134.236 198.066,138.014 191.732,138.014 M185.057,111.209 C185.057,110.049 184.96,109.189 184.813,108.531 C188.08,106.381 193.092,103.962 199.127,103.962 C203.067,103.962 208.135,104.554 209.911,107.378 L210.819,108.807 C211.299,109.562 212.135,110.002 213.002,110.002 C213.24,110.001 213.48,109.968 213.715,109.9 C214.808,109.582 215.573,108.564 215.573,107.425 L215.573,96.107 C215.573,94.686 214.416,93.529 212.995,93.529 L208.405,93.529 L208.405,91.769 C210.535,90.332 212.608,88.91 214.899,87.336 C223.587,81.368 232.571,75.197 242.053,70.803 L340.028,70.912 C340.335,70.97 340.65,70.97 340.932,70.916 L382.537,70.963 L382.777,70.969 C383.087,71.054 383.29,71.084 383.507,71.113 C383.566,71.121 383.636,71.13 383.742,71.15 L383.794,71.16 C383.891,71.18 383.99,71.198 384.068,71.211 C384.79,71.324 385.499,71.381 386.176,71.381 C387.336,71.381 388.258,71.623 389.001,71.818 C389.65,71.988 390.263,72.149 390.943,72.149 C391.327,72.149 391.697,72.095 392.045,71.991 L392.173,71.953 C392.821,71.758 393.358,71.325 393.686,70.733 L393.724,70.664 C395.231,71.578 396.761,71.556 398.282,70.606 L398.282,127.975 C397.21,128.078 396.526,127.264 395.685,126.253 C394.57,124.915 393.183,123.248 390.311,123.248 C386.735,123.248 385.08,122.427 383.328,121.556 C381.693,120.745 379.84,119.824 376.995,119.824 L220.289,119.824 C219.232,119.824 218.265,120.487 217.884,121.474 L216.699,124.568 C212.614,119.971 205.818,114.62 196.318,114.62 C191.737,114.62 187.551,116.349 183.553,119.891 C183.66,119.388 183.767,118.89 183.872,118.401 C184.508,115.459 185.057,112.918 185.057,111.209 M183.701,106.447 C184.56,105.34 189.977,101.384 199.127,101.384 C205.802,101.384 210.145,102.908 212.087,105.995 L212.995,107.425 L212.995,96.107 L205.827,96.107 L205.827,90.396 C208.416,88.66 210.948,86.923 213.44,85.211 C222.705,78.846 231.711,72.682 241.491,68.225 L340.496,68.338 L340.503,68.378 C340.561,68.367 340.618,68.349 340.675,68.338 L382.561,68.386 C382.561,68.386 383.172,68.397 383.228,68.415 C383.727,68.573 383.72,68.527 384.2,68.613 C384.29,68.629 384.379,68.651 384.469,68.664 C385.071,68.759 385.648,68.804 386.175,68.804 C387.668,68.804 388.815,69.105 389.653,69.324 C390.178,69.462 390.595,69.571 390.943,69.571 C391.072,69.571 391.191,69.556 391.303,69.523 L391.431,69.484 L391.497,69.366 C391.914,68.599 392.99,67.819 393.627,67.819 C394.092,67.819 394.365,68.003 394.68,68.215 C394.979,68.419 395.32,68.65 395.813,68.65 C396.82,68.65 397.498,67.681 397.498,66.778 C397.498,65.938 396.773,65.07 395.557,65.07 C395.451,65.07 395.304,65.087 395.129,65.108 C394.75,65.156 394.21,65.22 393.75,65.098 C394.115,64.298 394.311,62.703 394.311,61.353 C394.311,58.951 393.396,57.178 392.511,55.463 C391.728,53.945 390.99,52.511 390.99,50.774 C390.99,50.203 391.064,48.877 391.756,48.877 C392.232,48.877 392.321,49.628 392.335,49.951 L392.351,50.265 L392.665,50.264 C393.513,50.261 395.44,49.041 395.44,47.042 C395.44,45.81 394.94,45.068 394.537,44.471 C394.277,44.084 394.072,43.779 394.072,43.447 C394.072,42.828 394.323,42.344 394.917,41.829 L395.254,41.534 L394.872,41.3 C394.395,41.009 393.935,40.926 393.502,41.058 C392.653,41.313 392.191,42.296 391.914,42.884 C391.868,42.985 391.828,43.073 391.792,43.137 C391.582,43.525 391.165,43.935 390.682,44.41 C390.225,44.859 389.706,45.369 389.234,45.987 C388.273,47.248 387.928,48.628 388.188,50.187 C387.448,49.912 386.543,49.697 385.246,49.697 C380.903,49.697 378.631,52.487 378.631,55.242 C378.631,57.276 380.019,58.752 381.932,58.752 C383.435,58.752 384.57,57.486 384.57,55.807 C384.57,54.066 383.45,53.287 382.341,53.287 C381.84,53.287 381.362,53.556 381.032,54.026 C380.786,54.373 380.597,54.888 380.727,55.252 L380.845,55.585 L381.17,55.443 C381.462,55.313 381.699,55.29 381.84,55.379 C381.962,55.456 382.038,55.635 382.043,55.855 C382.046,56.006 381.998,56.235 381.847,56.389 C381.738,56.501 381.595,56.554 381.409,56.554 C380.595,56.554 380.07,55.923 380.07,54.945 C380.07,53.809 381.186,51.462 384.635,51.462 C386.792,51.462 388.168,52.122 388.645,53.402 C388.574,53.382 388.502,53.361 388.438,53.341 C388.074,53.231 387.575,53.082 387.066,53.082 C385.639,53.082 384.716,53.997 384.716,55.413 C384.716,56.828 386.13,60.432 387.904,60.432 C388.894,60.432 389.273,59.759 389.551,59.268 C389.77,58.879 389.879,58.721 390.078,58.721 C390.715,58.721 391.47,59.294 391.826,60.395 C391.167,60.316 390.668,60.407 390.341,60.669 C390.154,60.819 389.931,61.103 389.931,61.609 C389.931,62.223 390.391,62.62 390.796,62.972 C391.181,63.304 391.513,63.591 391.513,64.007 C391.513,64.942 390.57,65.494 389.807,65.72 C390.032,65.278 390.147,64.79 390.147,64.276 C390.147,63.052 388.99,62.411 387.846,62.411 C386.578,62.411 386.283,63.51 386.045,64.393 C385.741,65.524 385.475,66.211 384.378,66.211 C379.424,66.211 376.413,62.811 375.995,58.2 C375.86,56.689 375.923,55.155 376.263,53.685 C376.749,51.467 377.787,49.395 379.178,47.586 C381.961,43.932 385.835,41.261 389.667,38.662 C391.595,37.357 393.553,36.079 395.395,34.586 C396.306,33.829 397.193,33.015 397.935,32.036 C398.058,31.873 398.17,31.695 398.282,31.519 L398.282,70.129 C396.055,71.653 394.413,70.629 393.859,70.281 L393.647,70.151 L393.536,70.261 C393.482,70.316 393.44,70.365 393.406,70.42 L393.339,70.541 C393.062,71.042 392.607,71.408 392.059,71.573 L391.931,71.611 C391.62,71.705 391.288,71.752 390.943,71.752 C390.314,71.752 389.725,71.598 389.1,71.434 C388.337,71.234 387.387,70.985 386.176,70.985 C385.519,70.985 384.831,70.929 384.128,70.819 C384.054,70.807 383.963,70.79 383.872,70.771 L383.817,70.76 C383.698,70.739 383.622,70.729 383.558,70.72 C383.345,70.692 383.159,70.663 382.859,70.58 L382.541,70.567 L340.933,70.52 L340.892,70.524 C340.628,70.572 340.361,70.571 340.065,70.518 L242.01,70.407 L241.926,70.425 C232.4,74.834 223.388,81.023 214.674,87.009 C212.353,88.605 210.255,90.043 208.096,91.499 L208.009,91.558 L208.009,93.926 L212.995,93.926 C214.198,93.926 215.176,94.904 215.176,96.107 L215.176,107.425 C215.176,108.389 214.53,109.25 213.604,109.519 C212.679,109.788 211.671,109.409 211.154,108.595 L210.246,107.166 C208.374,104.19 203.167,103.565 199.127,103.565 C193.066,103.565 188.025,105.962 184.71,108.124 C184.423,107.151 184.014,106.731 183.701,106.447 M289.88,67.295 L243.686,67.242 C252.026,63.713 260.975,61.485 271.163,61.485 C282.656,61.485 288.071,65.539 289.88,67.295 M125.309,116.102 C108.352,116.102 92.211,110.037 89.056,107.449 L88.857,107.286 L88.61,107.355 C82.856,108.967 78.416,107.286 77.353,104.747 C77.829,104.419 78.269,104.022 78.677,103.576 C81.763,106.553 85.47,105.97 88.022,105.255 L88.271,105.186 C88.948,104.997 89.697,105.155 90.238,105.598 L90.439,105.763 C92.756,107.663 108.155,113.921 125.309,113.921 C166.057,113.921 190.277,97.281 211.646,82.601 C229.824,70.114 246.994,58.319 271.163,58.319 C279.261,58.319 289.657,61.135 293.911,67.3 L291.241,67.297 C290.261,66.089 284.972,60.5 271.163,60.5 C247.671,60.5 230.772,72.108 212.881,84.399 C191.25,99.259 166.732,116.102 125.309,116.102 M83.045,91.829 C93.771,86.272 103.938,79.627 113.963,73.07 C116.966,71.107 119.944,69.163 122.905,67.271 C123.118,67.332 123.342,67.398 123.592,67.473 C125.843,68.143 129.609,69.267 135.307,69.267 C161.34,69.267 178.191,58.102 196.031,46.283 C214.747,33.882 234.101,21.06 266.096,21.06 C280.648,21.06 288.652,24.283 292.202,26.271 C291.335,28.172 290.895,30.245 290.895,32.438 C290.895,34.763 292.186,39.936 297.026,44.579 C304.079,51.344 314.373,52.765 321.767,52.765 C331.059,52.765 338.63,50.169 343.665,45.259 C343.901,45.028 345.327,43.399 346.432,41.849 C346.941,46.326 348.435,50.568 352.68,55.684 C350.139,60.249 341.87,65.484 334.403,67.346 L294.385,67.3 C292.86,65.025 290.088,62.812 286.692,61.178 C282.264,59.048 276.895,57.923 271.163,57.923 C246.87,57.923 229.652,69.751 211.422,82.274 C190.1,96.922 165.934,113.524 125.309,113.524 C108.253,113.524 92.982,107.335 90.688,105.454 L90.489,105.291 C89.85,104.768 88.964,104.581 88.165,104.804 L87.915,104.873 C83.989,105.973 81.204,105.478 78.941,103.275 C81.823,99.852 82.943,93.901 83.045,91.829 M32.251,104.53 C15.309,104.53 6.757,98.675 6.672,98.616 L6.346,98.387 L4.354,100.233 C3.823,99.815 2.761,98.959 2.057,98.256 C3.076,97.237 3.99,96.163 4.81,95.046 C6.725,96.816 10.352,98.571 14.886,99.91 C20.211,101.483 26.378,102.349 32.251,102.349 C63.408,102.349 88.227,86.117 112.232,70.419 C132.945,56.871 152.51,44.076 173.79,44.076 C179.451,44.076 184.545,45.374 187.584,47.567 C186.838,48.049 186.093,48.527 185.346,49.002 C184.407,48.334 180.915,46.257 173.79,46.257 C153.163,46.257 133.859,58.88 113.424,72.246 C89.154,88.117 64.058,104.53 32.251,104.53 M6.818,56.235 C10.386,57.192 15.633,58.516 22.937,58.516 C51.883,58.516 73.472,45.527 94.352,32.964 C115.16,20.446 136.676,7.501 165.709,7.501 C178.463,7.501 185.907,10.443 188.056,11.996 L188.439,12.291 C188.993,12.716 189.708,12.899 190.395,12.796 C191.085,12.693 191.711,12.306 192.114,11.737 L192.407,11.323 C193.386,9.946 196.914,8.022 201.466,8.13 C198.214,13.277 196.92,19.283 197.822,25.084 C198.464,29.2 201.04,33.802 204.28,36.679 C200.81,38.856 197.421,41.087 194.062,43.312 C192.013,44.67 189.976,46.015 187.938,47.336 C184.847,45.042 179.607,43.679 173.79,43.679 C152.392,43.679 132.779,56.506 112.011,70.089 C88.058,85.754 63.29,101.952 32.251,101.952 C20.034,101.952 8.822,98.254 5.043,94.72 C13.461,82.898 11.396,66.329 6.818,56.235 M22.937,55.939 C51.165,55.939 72.444,43.137 93.022,30.756 C114.131,18.057 135.96,4.924 165.709,4.924 C182.888,4.924 189.539,9.885 189.605,9.935 L190.011,10.247 L190.307,9.83 C192.327,6.988 199.021,4.206 206.123,6.263 C201.562,11.242 199.364,18.228 200.369,24.687 C201.089,29.308 203.411,33.05 206.769,35.131 C206.05,35.57 205.342,36.016 204.631,36.461 C201.414,33.647 198.848,29.092 198.214,25.023 C197.323,19.293 198.698,13.107 201.987,8.052 L202.176,7.762 L201.83,7.746 C196.906,7.52 193.17,9.566 192.084,11.094 L191.791,11.508 C191.45,11.989 190.92,12.316 190.336,12.404 C189.753,12.492 189.149,12.336 188.681,11.976 L188.293,11.678 C186.103,10.096 178.564,7.105 165.709,7.105 C136.566,7.105 115.002,20.078 94.147,32.624 C73.315,45.159 51.773,58.12 22.937,58.12 C15.464,58.12 10.152,56.722 6.601,55.766 C6.026,54.544 5.414,53.422 4.781,52.424 C9.087,54.235 15.672,55.939 22.937,55.939 M7.169,47.481 C7.506,47.637 7.837,47.797 8.172,47.961 C10.778,49.229 13.733,50.666 21.499,50.666 C33.134,50.666 52.809,43.978 59.247,32.637 C59.028,33.411 58.795,34.163 58.563,34.906 C57.414,38.591 56.242,42.414 57.138,48.454 C46.777,52.416 35.663,54.953 22.937,54.953 C15.198,54.953 8.286,52.986 4.152,51.057 C4.951,50.061 6.487,48.233 7.169,47.481 M33.872,43.344 C33.954,42.733 33.991,42.152 34.001,41.588 C35.867,42.271 38.226,42.924 41.999,42.924 C44.458,42.924 46.478,42.41 48.134,41.824 C47.382,42.275 46.606,42.718 45.787,43.145 C44.811,43.654 43.818,44.121 42.821,44.568 C41.914,44.874 36.532,45.646 33.872,43.344 M31.766,33.881 C33.995,34.932 36.706,35.509 39.577,35.509 C45.448,35.509 48.565,33.826 51.795,32.01 C51.131,34.594 50.747,37.198 51.297,39.737 C50.853,40.062 50.392,40.382 49.919,40.699 C47.921,41.534 45.441,42.527 41.999,42.527 C38.2,42.527 35.858,41.855 34.003,41.167 C33.963,38.262 33.01,35.958 31.766,33.881 M28.926,29.691 C32.169,32.119 36.628,32.931 39.577,32.931 C42.682,32.931 49.751,31.377 53.295,26.912 C53.133,27.46 52.966,28.01 52.794,28.571 C52.497,29.533 52.201,30.503 51.937,31.476 L51.813,31.545 C48.553,33.379 45.473,35.112 39.577,35.112 C36.518,35.112 33.646,34.451 31.375,33.248 C30.855,32.433 30.301,31.646 29.75,30.868 C29.471,30.474 29.196,30.082 28.926,29.691 M46.061,25.283 C46.224,24.43 46.294,23.373 46.175,22.544 C46.202,22.56 46.226,22.576 46.247,22.59 C46.541,22.804 46.857,23.272 46.857,23.947 C46.857,24.362 46.584,24.857 46.061,25.283 M46.246,30.576 C43.831,31.488 41.438,31.889 39.884,31.934 C39.985,29.29 39.3,27.592 38.627,25.959 C38.599,25.891 38.574,25.824 38.546,25.756 C39.745,26.761 41.304,27.247 42.864,27.247 C44.446,27.247 45.739,26.759 46.615,26.069 C46.566,26.303 46.513,26.531 46.461,26.755 C46.192,27.891 45.963,28.993 46.246,30.576 M46.823,21.791 C46.374,21.468 45.849,21.37 45.379,21.527 L44.881,21.693 L45.077,22.179 C45.466,23.146 45.14,25.323 44.865,25.938 C44.307,26.137 43.638,26.262 42.864,26.262 C40.343,26.262 37.399,24.812 37.399,20.729 C37.399,14.615 44.689,14.305 46.151,14.305 C50.161,14.305 54.424,16.604 54.424,20.865 C54.424,25.654 50.931,28.57 47.183,30.201 C46.991,28.925 47.179,28.002 47.42,26.982 C47.618,26.143 47.842,25.193 47.842,23.947 C47.842,23.071 47.452,22.245 46.823,21.791 M25.933,22.978 C25.933,22.972 25.93,22.966 25.93,22.959 C25.863,22.489 25.828,21.998 25.828,21.482 C25.828,12.817 34.923,8.142 43.48,8.142 C55.092,8.142 60.381,16.867 60.381,24.974 C60.381,30.033 57.512,34.896 52.178,39.076 C51.624,35.783 52.686,32.27 53.736,28.862 C54.596,26.067 55.409,23.427 55.409,20.865 C55.409,15.964 50.64,13.32 46.151,13.32 C41.444,13.32 36.414,15.266 36.414,20.729 C36.414,23.175 37.075,24.78 37.715,26.334 C38.379,27.944 38.998,29.482 38.9,31.926 C34.342,31.743 26.9,29.685 25.933,22.978 M127.18,64.575 C142.737,54.9 157.914,47.242 173.79,47.242 C179.902,47.242 183.223,48.847 184.432,49.586 C170.3,58.487 155.638,65.704 135.306,65.704 C131.429,65.704 129.247,65.139 127.18,64.575 M266.096,18.482 C285.474,18.482 293.903,24.086 295.665,25.448 C294.97,26.35 293.473,28.725 293.473,32.438 C293.473,36.188 298.275,50.187 321.767,50.187 C330.373,50.187 337.322,47.844 341.865,43.413 C344.131,41.204 345.43,38.89 346.181,36.882 C346.191,38.388 346.235,39.831 346.369,41.246 C345.259,42.874 343.638,44.731 343.388,44.975 C338.429,49.811 330.953,52.368 321.767,52.368 C314.446,52.368 304.259,50.967 297.301,44.293 C292.558,39.742 291.292,34.7 291.292,32.438 C291.292,30.24 291.745,28.165 292.638,26.273 L292.716,26.107 L292.558,26.017 C289.055,24.017 280.961,20.663 266.096,20.663 C233.981,20.663 214.577,33.519 195.812,45.952 C178.023,57.738 161.221,68.87 135.307,68.87 C129.667,68.87 125.935,67.758 123.705,67.092 C123.58,67.055 123.466,67.022 123.35,66.987 C124.246,66.416 125.141,65.848 126.035,65.287 L126.728,65.474 C128.814,66.044 131.179,66.689 135.306,66.689 C160.563,66.689 177.1,55.734 194.608,44.134 C213.642,31.523 233.324,18.482 266.096,18.482 M327.364,39.283 C328.34,39.782 329.411,40.034 330.48,40.034 C332.076,40.034 333.66,39.481 334.899,38.411 C334.893,40.863 335.103,43.515 335.921,46.169 C334.154,46.994 332.278,47.626 330.386,48.102 C330.227,45.303 328.871,42.277 327.364,39.283 M324.885,34.33 C326.288,35.605 328.106,36.423 330.052,36.423 C332.6,36.423 334.142,35.534 335.047,34.425 C334.984,35.501 334.921,36.657 334.903,37.866 C332.818,39.896 329.505,40.208 327.04,38.644 C326.891,38.351 326.741,38.059 326.592,37.767 C325.988,36.592 325.4,35.442 324.885,34.33 M335.173,31.393 C335.173,32.388 334.699,33.84 333.204,34.707 C333.223,33.587 332.997,32.066 332.326,31.221 C332.405,30.655 332.838,29.673 333.772,29.673 C334.449,29.673 335.173,30.125 335.173,31.393 M333.271,19.989 C340.278,19.989 346.199,25.377 346.199,31.753 C346.199,38.515 342.109,42.984 336.815,45.713 C335.628,41.728 335.845,37.689 336.037,34.409 C336.099,33.323 336.158,32.298 336.158,31.393 C336.158,29.534 334.921,28.688 333.772,28.688 C332.177,28.688 331.328,30.259 331.328,31.393 L331.328,31.596 L331.472,31.741 C332.106,32.376 332.297,34.162 332.193,35.144 C331.594,35.329 330.886,35.438 330.052,35.438 C326.412,35.438 323.218,32.244 323.218,28.603 C323.218,23.129 326.882,19.989 333.271,19.989 M340.571,67.352 L335.884,67.347 C342.981,65.219 350.442,60.341 352.953,56.008 C353.271,56.383 353.599,56.762 353.947,57.147 C352.865,60.452 346.888,66.078 340.571,67.352 M398.785,23.406 C397.233,23.406 395.972,24.668 395.972,26.22 C395.972,27.583 396.944,28.721 398.232,28.979 C397.987,30.9 396.378,32.52 394.793,33.858 C393.021,35.312 391.081,36.597 389.16,37.915 C385.334,40.545 381.399,43.274 378.522,47.092 C377.086,48.982 376,51.174 375.5,53.518 C375.039,55.594 375.072,57.74 375.471,59.82 C375.492,59.932 375.51,60.046 375.533,60.155 C375.566,60.308 375.729,60.933 375.775,61.092 C375.851,61.353 375.934,61.604 376.023,61.848 C376.106,62.073 376.182,62.296 376.279,62.515 C376.493,63.007 376.732,63.465 376.996,63.889 C377.021,63.93 377.051,63.967 377.077,64.008 C377.371,64.465 377.693,64.88 378.034,65.261 C378.079,65.311 378.12,65.362 378.165,65.411 C378.565,65.839 378.989,66.22 379.432,66.555 C379.44,66.561 379.445,66.567 379.452,66.573 C379.462,66.581 379.475,66.586 379.486,66.594 C379.889,66.896 380.304,67.166 380.729,67.398 L343.873,67.356 C349.452,65.06 354.206,60.104 354.974,57.144 L355.041,56.886 L354.862,56.688 C347.07,48.155 347.114,42.232 347.173,34.034 C347.179,33.293 347.184,32.534 347.184,31.753 C347.184,24.842 340.813,19.004 333.271,19.004 C326.359,19.004 322.233,22.592 322.233,28.603 C322.233,31.437 323.924,34.731 325.715,38.218 C327.489,41.672 329.298,45.232 329.41,48.339 C326.766,48.925 324.128,49.202 321.767,49.202 C299.093,49.202 294.458,35.98 294.458,32.438 C294.458,28.124 296.694,25.751 296.716,25.728 L297.062,25.369 L296.7,25.027 C296.376,24.719 288.494,17.497 266.096,17.497 C240.725,17.497 223.167,25.227 207.712,34.556 C204.368,32.692 202.048,29.064 201.344,24.536 C200.345,18.123 202.658,11.164 207.376,6.375 L207.928,5.814 L207.182,5.563 C199.567,2.995 192.402,5.759 189.796,8.879 C188.082,7.804 180.861,3.938 165.709,3.938 C135.685,3.938 113.738,17.142 92.513,29.911 C81.151,36.747 70.112,43.363 58.084,48.084 C57.282,42.408 58.353,38.892 59.504,35.2 C60.42,32.261 61.367,29.222 61.367,24.974 C61.367,13.276 52.368,7.157 43.48,7.157 C34.445,7.157 24.842,12.177 24.842,21.482 C24.842,22.027 24.882,22.549 24.949,23.055 C24.961,23.146 24.984,23.231 24.999,23.321 C25.5,26.544 27.239,29.03 28.945,31.438 C31.373,34.867 33.666,38.106 32.859,43.457 L32.822,43.709 L33.004,43.885 C34.664,45.493 37.282,45.928 39.478,45.928 C39.492,45.928 39.505,45.927 39.52,45.927 C32.725,48.492 25.969,49.68 21.499,49.68 C13.961,49.68 11.116,48.296 8.604,47.074 C8.153,46.855 7.71,46.639 7.253,46.436 L6.943,46.298 L6.704,46.538 C6.12,47.121 3.603,50.124 2.982,50.95 L2.761,51.247 L2.984,51.543 C9.752,60.509 15.043,84.328 1.024,97.889 L0.687,98.215 L0.997,98.568 C1.921,99.621 3.995,101.204 4.083,101.272 L4.412,101.523 L6.441,99.644 C8.198,100.753 16.65,105.515 32.251,105.515 C50.735,105.515 66.936,100.042 82.013,92.357 C81.715,95.069 80.195,101.907 76.506,104.12 L76.18,104.316 L76.286,104.681 C77.219,107.888 82.075,110.12 88.634,108.371 C92.813,111.532 109.419,117.087 125.309,117.087 C161.652,117.087 185.041,104.242 204.842,91.055 L204.842,97.093 L212.009,97.093 L212.009,104.222 C210.583,102.633 207.307,100.399 199.127,100.399 C189.355,100.399 183.279,104.827 182.686,106.233 C182.525,106.615 182.701,106.856 182.784,106.942 C182.841,107 182.904,107.058 182.975,107.12 C183.384,107.488 184.072,108.101 184.072,111.209 C184.072,112.812 183.506,115.426 182.909,118.194 C182.126,121.818 181.241,125.926 181.241,129.286 C181.241,133.995 184.917,139 191.732,139 C198.8,139 201.308,134.529 201.308,130.701 C201.308,129.88 201.194,128.886 201.072,127.834 C200.709,124.681 200.281,120.792 202.679,119.203 C212.055,122.218 217.088,130.999 217.147,131.106 L217.662,132.059 L218.043,131.045 C218.398,130.091 220.445,124.751 220.967,123.388 L376.995,123.388 C379.003,123.388 380.274,124.019 381.744,124.749 C383.691,125.716 385.896,126.811 390.311,126.811 C392.049,126.811 392.394,127.387 392.874,128.183 C393.553,129.311 394.399,130.716 398.775,130.716 L399.268,130.716 L399.268,28.986 C400.59,28.756 401.6,27.607 401.6,26.22 C401.6,24.668 400.337,23.406 398.785,23.406" fill="#000000"/>
    <path d="M22.9,71.555 L22.912,71.765 C23.222,71.958 23.524,72.543 23.433,73.089 L19.81,91.73 C19.714,92.186 19.521,92.497 19.299,92.839 L19.307,92.989 L23.681,92.754 L23.669,92.544 C23.405,92.108 23.236,91.756 23.357,91.209 L24.028,88.048 L26.964,87.89 L27.872,90.816 C28.051,91.347 27.929,91.864 27.653,92.33 L27.665,92.539 L32.338,92.288 L32.328,92.108 C32.009,91.765 31.744,91.298 31.56,90.677 L26.076,71.384 z M25.161,80.627 L26.302,85.072 L24.444,85.172 z M39.956,79.413 C41.273,79.117 41.82,77.58 41.359,75.531 C40.879,73.394 39.48,72.233 37.811,72.608 L37.138,72.759 L38.698,79.696 L39.956,79.413 z M38.299,69.577 C41.518,68.853 44.214,70.861 45.05,74.578 C45.918,78.442 44.149,81.514 40.637,82.304 L39.349,82.593 L40.718,88.682 C40.843,89.238 41.189,89.683 41.688,90.124 L41.734,90.329 L37.168,91.355 L37.122,91.15 C37.296,90.558 37.389,90.014 37.264,89.458 L33.461,72.54 C33.336,71.984 33.026,71.562 32.608,71.071 L32.562,70.867 z M54.754,75.165 C56.031,74.726 56.405,73.138 55.722,71.152 C55.01,69.081 53.492,68.081 51.875,68.637 L51.222,68.861 L53.534,75.585 L54.754,75.165 z M52.026,65.571 C55.147,64.498 58.047,66.197 59.286,69.8 C60.573,73.545 59.152,76.793 55.748,77.964 L54.5,78.393 L56.529,84.294 C56.714,84.833 57.107,85.237 57.651,85.621 L57.72,85.82 L53.294,87.342 L53.226,87.143 C53.334,86.535 53.367,85.984 53.181,85.445 L47.543,69.048 C47.357,68.509 47.003,68.123 46.534,67.681 L46.465,67.483 z M64.671,60.565 L64.755,60.757 C64.682,61.411 64.682,61.935 64.911,62.457 L71.309,77.046 L74.221,75.769 C74.743,75.54 74.976,75.176 75.71,73.937 L75.82,73.889 L77.555,77.845 L68.901,81.64 L68.816,81.448 C68.874,80.833 68.85,80.254 68.633,79.759 L61.669,63.879 C61.452,63.385 61.043,62.974 60.552,62.6 L60.467,62.408 z M76.8,54.684 L76.895,54.871 C76.873,55.488 76.891,56.051 77.149,56.559 L85.021,72.01 C85.28,72.518 85.711,72.836 86.238,73.208 L86.333,73.395 L82.243,75.479 L82.148,75.292 C82.17,74.674 82.152,74.111 81.893,73.603 L74.022,58.153 C73.763,57.645 73.331,57.326 72.805,56.954 L72.71,56.767 z M100.319,64.816 C99.978,65.538 98.878,66.568 97.637,67.297 C93.706,69.608 89.011,67.601 85.909,62.325 C82.503,56.532 82.85,51.143 86.832,48.802 C88.306,47.935 89.709,47.598 90.037,47.683 L92.504,51.523 L92.415,51.609 C91.974,51.451 89.789,50.753 88.444,51.543 C86.479,52.699 86.726,56.138 89.219,60.379 C91.272,63.87 93.959,65.423 95.873,64.297 C97.425,63.385 98.224,61.489 98.339,61.212 L98.443,61.151 z M105.318,53.317 L106.871,52.294 L103.644,49.031 z M99.771,40.59 L114.239,54.481 C114.711,54.925 115.176,55.193 115.624,55.329 L115.723,55.479 L111.815,58.054 L111.7,57.879 C111.703,57.338 111.547,56.829 111.125,56.461 L108.865,54.393 L106.41,56.011 L107.425,59.078 C107.596,59.612 107.92,59.83 108.368,60.074 L108.483,60.249 L104.826,62.659 L104.743,62.534 C104.762,62.126 104.772,61.76 104.625,61.318 L98.349,43.394 C98.152,42.878 97.597,42.525 97.231,42.515 L97.115,42.339 z M120.926,52.095 L120.819,51.914 C120.865,51.225 120.854,50.674 120.564,50.183 L112.463,36.467 L111.094,37.275 C110.681,37.519 110.297,37.99 109.843,38.815 L109.655,39.205 L109.552,39.266 L107.431,35.675 L117.247,29.878 L119.368,33.469 L119.265,33.53 L118.832,33.506 C117.891,33.505 117.293,33.614 116.88,33.858 L115.511,34.667 L123.612,48.383 C123.902,48.874 124.378,49.15 125.004,49.442 L125.111,49.623 z M127.91,24.629 L127.999,24.819 C127.955,25.435 127.952,25.999 128.193,26.515 L135.516,42.233 C135.757,42.75 136.177,43.083 136.69,43.473 L136.779,43.664 L132.618,45.602 L132.529,45.412 C132.573,44.796 132.575,44.232 132.335,43.715 L125.012,27.998 C124.771,27.481 124.351,27.147 123.838,26.757 L123.749,26.567 z M147.451,36.591 C149.177,36.082 149.46,32.903 148.222,28.701 C146.907,24.241 144.911,21.608 143.184,22.117 C141.487,22.617 141.155,25.843 142.41,30.102 C143.708,34.504 145.753,37.092 147.451,36.591 z M138.571,31.296 C136.773,25.195 138.311,20.332 142.311,19.153 C146.339,17.966 150.229,21.292 152.052,27.479 C153.859,33.608 152.396,38.512 148.367,39.699 C144.367,40.878 140.403,37.511 138.571,31.296 z M171.742,15.021 L171.751,15.231 C171.474,15.783 171.318,16.331 171.341,16.87 L172.174,36.022 L170.945,36.076 L163.736,23.597 L164.212,34.536 C164.235,35.076 164.437,35.578 164.82,36.102 L164.831,36.341 L160.215,36.542 L160.205,36.302 C160.482,35.78 160.699,35.23 160.675,34.69 L159.922,17.367 C159.895,16.737 159.665,16.297 159.342,15.77 L159.333,15.56 L163.2,15.392 L168.061,24.31 L167.745,17.027 C167.72,16.457 167.548,15.954 167.135,15.431 L167.126,15.222 z M179.33,31.802 C179.624,33.182 180.244,34.322 181.83,34.653 C183.034,34.904 184.206,34.137 184.561,32.434 C184.879,30.906 184.253,29.06 182.743,26.6 C181.373,24.353 180.872,22.348 181.331,20.146 C181.882,17.502 184.247,16.157 187.272,16.788 C188.799,17.106 189.707,17.602 189.882,17.791 L189.154,21.869 L188.919,21.82 C188.62,21.052 187.888,19.858 186.684,19.607 C185.832,19.429 185.132,20.141 184.967,20.934 C184.74,22.021 184.991,23.023 185.676,24.147 C187.761,27.523 188.585,30.331 188.021,33.033 C187.329,36.351 184.691,38.13 181.46,37.456 C179.493,37.046 178.599,36.186 178.356,35.737 L179.095,31.753 L179.33,31.802 z" fill="#000000"/>
    <path d="M237.166,82.631 L237.166,82.421 L231.886,82.421 L231.886,82.631 C232.306,83.171 232.606,83.831 232.606,84.461 L232.606,113.201 C232.606,114.311 232.306,115.361 231.886,116.021 L231.886,116.261 L237.166,114.221 L237.166,113.981 C236.776,113.471 236.446,111.941 236.446,110.351 L236.446,84.401 C236.446,83.741 236.776,83.111 237.166,82.631 z M256.466,87.821 L256.466,88.031 C256.166,88.571 255.986,89.111 255.986,89.651 L255.986,108.821 L254.756,108.821 L248.096,96.041 L248.096,106.991 C248.096,107.531 248.276,108.041 248.636,108.581 L248.636,108.821 L244.016,108.821 L244.016,108.581 C244.316,108.071 244.556,107.531 244.556,106.991 L244.556,89.651 C244.556,89.021 244.346,88.571 244.046,88.031 L244.046,87.821 L247.916,87.821 L252.386,96.941 L252.386,89.651 C252.386,89.081 252.236,88.571 251.846,88.031 L251.846,87.821 z M265.986,108.821 L265.986,108.611 C266.376,108.041 266.646,107.561 266.646,106.991 L266.646,91.061 L265.056,91.061 C264.576,91.061 264.006,91.271 263.196,91.751 L262.836,91.991 L262.716,91.991 L262.716,87.821 L274.116,87.821 L274.116,91.991 L273.996,91.991 L273.636,91.751 C272.826,91.271 272.256,91.061 271.776,91.061 L270.186,91.061 L270.186,106.991 C270.186,107.561 270.456,108.041 270.846,108.611 L270.846,108.821 z M289.426,91.541 C288.346,91.001 287.776,90.821 287.296,90.821 L284.416,90.821 L284.416,95.981 L285.796,95.981 C286.336,95.981 286.936,95.771 287.566,95.471 L287.806,95.471 L287.806,99.311 L287.566,99.311 C286.936,99.011 286.306,98.801 285.796,98.801 L284.416,98.801 L284.416,105.821 L287.806,105.821 C288.406,105.821 288.976,105.521 289.906,105.011 L290.026,105.011 L290.026,108.821 L280.366,108.821 L280.366,108.611 C280.666,108.071 280.876,107.531 280.876,106.991 L280.876,89.651 C280.876,89.111 280.666,88.571 280.366,88.031 L280.366,87.821 L289.546,87.821 L289.546,91.541 L289.426,91.541 z M301.646,97.031 C302.816,97.031 304.076,95.981 304.076,94.061 C304.076,92.021 303.026,91.121 301.226,91.121 L300.626,91.121 L300.626,97.031 L301.646,97.031 z M304.316,108.821 L301.646,100.061 L300.626,100.061 L300.626,106.991 C300.626,107.471 300.746,107.921 301.106,108.611 L301.106,108.821 L296.576,108.821 L296.576,108.611 C296.876,108.071 297.086,107.531 297.086,106.991 L297.086,89.651 C297.086,89.111 296.876,88.571 296.576,88.031 L296.576,87.821 L302.396,87.821 C305.636,87.821 307.796,90.191 307.796,93.701 C307.796,96.671 306.206,98.891 304.616,99.701 L307.376,107.081 C307.586,107.621 307.886,108.131 308.276,108.611 L308.276,108.821 z M323.376,91.361 C322.296,90.821 321.756,90.641 321.246,90.641 L318.576,90.641 L318.576,96.281 L319.956,96.281 C320.526,96.281 321.096,96.071 321.726,95.741 L321.996,95.741 L321.996,99.611 L321.726,99.611 C321.126,99.311 320.496,99.071 319.956,99.071 L318.576,99.071 L318.576,106.991 C318.576,107.531 318.816,108.071 319.206,108.611 L319.206,108.821 L314.526,108.821 L314.526,108.611 C314.826,108.071 315.036,107.531 315.036,106.991 L315.036,89.651 C315.036,89.111 314.826,88.571 314.526,88.031 L314.526,87.821 L323.496,87.821 L323.496,91.361 L323.376,91.361 z M332.986,101.291 L334.846,101.291 L333.946,96.791 z M335.356,87.611 L339.796,107.171 C339.946,107.801 340.186,108.281 340.486,108.641 L340.486,108.821 L335.806,108.821 L335.806,108.611 C336.106,108.161 336.256,107.651 336.106,107.111 L335.356,104.141 L332.416,104.141 L331.576,107.261 C331.426,107.801 331.576,108.161 331.816,108.611 L331.816,108.821 L327.436,108.821 L327.436,108.671 C327.676,108.341 327.886,108.041 328.006,107.591 L332.626,89.171 C332.746,88.631 332.476,88.031 332.176,87.821 L332.176,87.611 z M355.886,108.251 C355.226,108.701 353.756,109.031 352.316,109.031 C347.756,109.031 344.726,104.921 344.726,98.801 C344.726,92.081 347.756,87.611 352.376,87.611 C354.086,87.611 355.466,88.031 355.706,88.271 L355.886,92.831 L355.766,92.861 C355.466,92.501 353.936,90.791 352.376,90.791 C350.096,90.791 348.566,93.881 348.566,98.801 C348.566,102.851 350.096,105.551 352.316,105.551 C354.116,105.551 355.766,104.321 356.006,104.141 L356.126,104.141 z M371.736,91.541 C370.656,91.001 370.086,90.821 369.606,90.821 L366.726,90.821 L366.726,95.981 L368.106,95.981 C368.646,95.981 369.246,95.771 369.876,95.471 L370.116,95.471 L370.116,99.311 L369.876,99.311 C369.246,99.011 368.616,98.801 368.106,98.801 L366.726,98.801 L366.726,105.821 L370.116,105.821 C370.716,105.821 371.286,105.521 372.216,105.011 L372.336,105.011 L372.336,108.821 L362.676,108.821 L362.676,108.611 C362.976,108.071 363.186,107.531 363.186,106.991 L363.186,89.651 C363.186,89.111 362.976,88.571 362.676,88.031 L362.676,87.821 L371.856,87.821 L371.856,91.541 L371.736,91.541 z M378.856,103.931 C379.426,105.221 380.266,106.211 381.886,106.211 C383.116,106.211 384.106,105.221 384.106,103.481 C384.106,101.921 383.116,100.241 381.136,98.141 C379.336,96.221 378.436,94.361 378.436,92.111 C378.436,89.411 380.476,87.611 383.566,87.611 C385.126,87.611 386.116,87.911 386.326,88.061 L386.446,92.201 L386.206,92.201 C385.756,91.511 384.796,90.491 383.566,90.491 C382.696,90.491 382.156,91.331 382.156,92.141 C382.156,93.251 382.606,94.181 383.506,95.141 C386.236,98.021 387.616,100.601 387.616,103.361 C387.616,106.751 385.396,109.031 382.096,109.031 C380.086,109.031 379.036,108.371 378.706,107.981 L378.616,103.931 L378.856,103.931 z" fill="#000000"/>
    <path d="M126.446,86.766 C127.377,80.9 123.965,75.984 117.536,74.964 C111.403,73.99 106.981,78.118 106.351,82.089 C105.81,85.496 108.457,87.192 110.978,86.043 L111.016,85.806 C110.201,85.008 109.963,84.211 110.188,82.789 C110.678,79.707 113.932,78.341 116.925,78.816 C121.31,79.512 123.121,82.837 122.594,86.155 C122.077,89.414 119.779,92.026 116.393,91.732 L117.734,83.288 C117.823,82.725 118.248,82.154 118.639,81.791 L118.672,81.584 L113.606,80.78 L113.573,80.987 C113.853,81.518 114.026,82.152 113.936,82.715 L110.151,106.567 C110.062,107.13 109.671,107.675 109.275,108.068 L109.242,108.276 L114.308,109.08 L114.341,108.872 C114.056,108.371 113.854,107.732 113.943,107.169 L115.824,95.317 C121.817,96.025 125.689,91.537 126.446,86.766 z M135.594,93.15 C136.764,93.119 137.996,92.036 137.945,90.117 C137.89,88.077 136.817,87.206 135.018,87.253 L134.418,87.269 L134.575,93.177 L135.594,93.15 z M138.576,104.865 L135.675,96.179 L134.655,96.206 L134.839,103.134 C134.852,103.614 134.984,104.06 135.362,104.74 L135.367,104.95 L130.839,105.071 L130.833,104.861 C131.119,104.313 131.315,103.768 131.3,103.228 L130.84,85.894 C130.826,85.354 130.601,84.82 130.287,84.288 L130.282,84.078 L136.1,83.924 C139.338,83.838 141.561,86.149 141.654,89.658 C141.733,92.627 140.202,94.888 138.634,95.74 L141.589,103.045 C141.813,103.579 142.127,104.081 142.529,104.55 L142.535,104.76 z M152.874,100.361 C154.65,100.067 155.319,96.946 154.605,92.625 C153.846,88.037 152.187,85.179 150.411,85.473 C148.665,85.762 147.941,88.922 148.666,93.303 C149.415,97.831 151.128,100.65 152.874,100.361 z M144.709,94.018 C143.671,87.744 145.793,83.105 149.907,82.424 C154.051,81.739 157.503,85.516 158.556,91.88 C159.599,98.184 157.546,102.872 153.403,103.557 C149.289,104.238 145.767,100.411 144.709,94.018 z M173.139,86.32 C172.979,86.88 172.999,87.506 173.161,87.99 L175.347,94.503 C175.427,96.628 174.035,98.139 171.788,98.893 C168.034,100.153 163.559,96.908 161.622,91.134 C159.475,84.735 161.248,79.836 165.315,78.471 C167.42,77.765 168.683,78.227 169.395,78.558 L170.674,82.369 L170.56,82.407 C169.553,81.764 168.12,81.264 166.698,81.741 C164.308,82.543 163.678,85.191 165.262,89.913 C166.57,93.809 169.506,96.146 171.042,95.631 C171.554,95.459 171.752,95.108 171.809,94.994 L169.757,88.879 C169.614,88.452 169.243,88.102 168.816,87.771 L168.749,87.572 L173.072,86.121 L173.139,86.32 z M180.836,81.927 C181.873,81.385 182.503,79.871 181.614,78.17 C180.669,76.361 179.322,76.05 177.727,76.884 L177.195,77.161 L179.932,82.4 L180.836,81.927 z M188.662,91.14 L182.239,84.613 L181.335,85.085 L184.544,91.227 C184.767,91.653 185.081,91.996 185.72,92.441 L185.817,92.627 L181.802,94.725 L181.705,94.539 C181.721,93.921 181.657,93.345 181.407,92.867 L173.377,77.498 C173.127,77.019 172.69,76.638 172.174,76.298 L172.077,76.112 L177.235,73.417 C180.107,71.917 183.119,73.017 184.745,76.128 C186.12,78.76 185.739,81.464 184.705,82.918 L190.569,88.181 C191.005,88.562 191.507,88.875 192.075,89.12 L192.172,89.306 z M196.01,78.065 L197.602,77.103 L194.504,73.717 z M190.964,65.13 L204.879,79.576 C205.333,80.038 205.787,80.325 206.23,80.478 L206.323,80.632 L202.317,83.052 L202.209,82.872 C202.233,82.332 202.097,81.818 201.69,81.433 L199.512,79.279 L196.996,80.799 L197.89,83.904 C198.041,84.444 198.355,84.674 198.793,84.935 L198.902,85.115 L195.153,87.38 L195.076,87.252 C195.11,86.845 195.135,86.48 195.005,86.032 L189.434,67.877 C189.258,67.353 188.716,66.979 188.351,66.955 L188.242,66.775 z M212.827,51.991 C212.81,52.923 212.928,53.168 213.231,53.651 L222.446,68.339 C222.717,68.771 223.147,69.174 223.713,69.456 L223.825,69.634 L220.166,71.93 L220.054,71.752 C220.005,71.11 219.903,70.608 219.6,70.125 L213.063,59.706 L213.869,68.16 L213.59,68.335 L206.303,63.947 L212.92,74.493 C213.223,74.976 213.665,75.229 214.184,75.435 L214.295,75.613 L210.458,78.02 L210.346,77.843 C210.39,77.178 210.322,76.618 210.019,76.135 L200.692,61.269 C200.469,60.913 200.109,60.678 199.46,60.377 L199.348,60.2 L203.008,57.904 L210.043,62.344 L208.878,54.221 L212.716,51.813 L212.827,51.991 z M231.882,40.544 C231.833,41.475 231.943,41.723 232.23,42.216 L240.952,57.203 C241.209,57.643 241.625,58.061 242.182,58.361 L242.288,58.543 L238.554,60.716 L238.448,60.534 C238.421,59.891 238.335,59.385 238.048,58.893 L231.861,48.262 L232.386,56.739 L232.101,56.905 L224.964,52.276 L231.227,63.037 C231.514,63.529 231.947,63.797 232.459,64.02 L232.565,64.202 L228.649,66.48 L228.544,66.299 C228.609,65.636 228.56,65.075 228.273,64.582 L219.445,49.414 C219.234,49.051 218.882,48.804 218.243,48.482 L218.138,48.301 L221.871,46.128 L228.755,50.799 L227.861,42.642 L231.776,40.363 L231.882,40.544 z M243.096,34.96 L243.181,35.152 C243.127,35.767 243.116,36.33 243.348,36.851 L250.416,52.685 C250.649,53.206 251.064,53.546 251.57,53.944 L251.655,54.136 L247.464,56.007 L247.378,55.815 C247.432,55.2 247.444,54.636 247.211,54.116 L240.143,38.282 C239.911,37.761 239.496,37.421 238.99,37.022 L238.904,36.831 z M266.188,29.105 L266.218,29.313 C266,29.891 265.9,30.451 265.978,30.986 L268.751,49.954 L267.534,50.132 L259.095,38.45 L260.679,49.285 C260.757,49.819 261.009,50.297 261.444,50.78 L261.478,51.017 L256.907,51.686 L256.872,51.448 C257.095,50.9 257.255,50.331 257.176,49.797 L254.668,32.639 C254.577,32.016 254.304,31.601 253.929,31.11 L253.899,30.902 L257.728,30.342 L263.47,38.72 L262.416,31.506 C262.333,30.942 262.111,30.459 261.647,29.982 L261.616,29.774 z M289.467,43.306 C289.022,43.681 288.69,44.213 288.556,44.705 L286.743,51.331 C285.626,53.14 283.628,53.62 281.342,52.995 C277.523,51.95 275.614,46.763 277.221,40.889 C279.002,34.378 283.204,31.297 287.342,32.429 C289.483,33.015 290.274,34.102 290.681,34.774 L289.621,38.651 L289.505,38.619 C289.027,37.524 288.115,36.311 286.668,35.915 C284.237,35.25 282.239,37.098 280.925,41.902 C279.84,45.866 280.977,49.443 282.539,49.87 C283.06,50.013 283.421,49.831 283.531,49.768 L285.233,43.547 C285.352,43.113 285.239,42.615 285.069,42.102 L285.124,41.9 L289.522,43.103 L289.467,43.306 z" fill="#000000"/>
  </g>
</svg>
